<?xml version="1.0" encoding="UTF-8" standalone="no"?>
<!DOCTYPE svg PUBLIC "-//W3C//DTD SVG 1.1//EN"
 "http://www.w3.org/Graphics/SVG/1.1/DTD/svg11.dtd">
<!-- Generated by graphviz version 2.43.0 (0)
 -->
<!-- Title: fifo_infer #() Pages: 1 -->
<svg width="897pt" height="344pt"
 viewBox="0.00 0.00 896.67 344.00" xmlns="http://www.w3.org/2000/svg" xmlns:xlink="http://www.w3.org/1999/xlink">
<g id="graph0" class="graph" transform="scale(1 1) rotate(0) translate(4 340)">
<title>fifo_infer #()</title>
<polygon fill="white" stroke="transparent" points="-4,4 -4,-340 892.67,-340 892.67,4 -4,4"/>
<g id="clust1" class="cluster">
<title>cluster_submodule_0</title>
<polygon fill="lightgrey" stroke="lightgrey" points="318,-175 318,-322 880.67,-322 880.67,-175 318,-175"/>
<text text-anchor="middle" x="599.34" y="-306.8" font-family="Times,serif" font-size="14.00">FIFO #(T: type float #(), ALMOST_FULL: ?)</text>
</g>
<g id="clust4" class="cluster">
<title>cluster_submodule_1</title>
<polygon fill="lightgrey" stroke="lightgrey" points="342.7,-8 342.7,-137 878.07,-137 878.07,-8 342.7,-8"/>
<text text-anchor="middle" x="610.38" y="-121.8" font-family="Times,serif" font-size="14.00">fp_mul #()</text>
</g>
<!-- n8 -->
<g id="node1" class="node">
<title>n8</title>
<ellipse fill="bisque" stroke="black" cx="407.24" cy="-273" rx="56.59" ry="18"/>
<text text-anchor="middle" x="407.24" y="-269.3" font-family="Times,serif" font-size="14.00">_fifo_push</text>
</g>
<!-- n10 -->
<g id="node2" class="node">
<title>n10</title>
<ellipse fill="bisque" stroke="black" cx="407.24" cy="-201" rx="81.49" ry="18"/>
<text text-anchor="middle" x="407.24" y="-197.3" font-family="Times,serif" font-size="14.00">_fifo_push_data</text>
</g>
<!-- n8&#45;&gt;n10 -->
<g id="edge14" class="edge">
<title>n8&#45;&gt;n10</title>
<path fill="none" stroke="black" d="M369.78,-259.34C343.6,-246.88 339.32,-234.42 356.96,-221.95"/>
<polygon fill="black" stroke="black" points="359.09,-224.76 365.86,-216.61 355.48,-218.75 359.09,-224.76"/>
</g>
<!-- n1 -->
<g id="node3" class="node">
<title>n1</title>
<ellipse fill="bisque" stroke="black" cx="792.08" cy="-213" rx="80.69" ry="18"/>
<text text-anchor="middle" x="792.08" y="-209.3" font-family="Times,serif" font-size="14.00">_fifo_may_push</text>
</g>
<!-- n8&#45;&gt;n1 -->
<g id="edge18" class="edge">
<title>n8&#45;&gt;n1</title>
<path fill="none" stroke="green" d="M458.29,-265.16C523.85,-254.88 639.41,-236.77 715.62,-224.83"/>
<polygon fill="green" stroke="green" points="716.3,-228.26 725.63,-223.26 715.21,-221.35 716.3,-228.26"/>
<text text-anchor="middle" x="599.99" y="-254.8" font-family="Times,serif" font-size="14.00">&#45;ALMOST_FULL</text>
</g>
<!-- n10&#45;&gt;n8 -->
<g id="edge13" class="edge">
<title>n10&#45;&gt;n8</title>
<path fill="none" stroke="black" d="M448.63,-216.61C472.84,-229.24 474.56,-241.87 453.77,-254.5"/>
<polygon fill="black" stroke="black" points="451.88,-251.55 444.7,-259.34 455.17,-257.72 451.88,-251.55"/>
</g>
<!-- n10&#45;&gt;n1 -->
<g id="edge17" class="edge">
<title>n10&#45;&gt;n1</title>
<path fill="none" stroke="green" d="M488.03,-203.5C550.43,-205.46 637.17,-208.18 701.86,-210.2"/>
<polygon fill="green" stroke="green" points="701.94,-213.71 712.05,-210.52 702.16,-206.71 701.94,-213.71"/>
<text text-anchor="middle" x="599.99" y="-211.8" font-family="Times,serif" font-size="14.00">&#45;ALMOST_FULL</text>
</g>
<!-- n2 -->
<g id="node8" class="node">
<title>n2</title>
<ellipse fill="bisque" stroke="black" cx="190" cy="-155" rx="27" ry="18"/>
<text text-anchor="middle" x="190" y="-151.3" font-family="Times,serif" font-size="14.00">_1</text>
</g>
<!-- n1&#45;&gt;n2 -->
<g id="edge1" class="edge">
<title>n1&#45;&gt;n2</title>
<path fill="none" stroke="black" d="M724.51,-203.17C663.29,-194.42 569.94,-181.84 488.49,-174 394.6,-164.96 283.62,-159.16 227.46,-156.57"/>
<polygon fill="black" stroke="black" points="227.46,-153.07 217.31,-156.11 227.14,-160.06 227.46,-153.07"/>
</g>
<!-- n5 -->
<g id="node4" class="node">
<title>n5</title>
<ellipse fill="bisque" stroke="black" cx="407.24" cy="-34" rx="55.79" ry="18"/>
<text text-anchor="middle" x="407.24" y="-30.3" font-family="Times,serif" font-size="14.00">_fp_mul_a</text>
</g>
<!-- n7 -->
<g id="node6" class="node">
<title>n7</title>
<ellipse fill="bisque" stroke="black" cx="792.08" cy="-88" rx="77.99" ry="18"/>
<text text-anchor="middle" x="792.08" y="-84.3" font-family="Times,serif" font-size="14.00">_fp_mul_result</text>
</g>
<!-- n5&#45;&gt;n7 -->
<g id="edge15" class="edge">
<title>n5&#45;&gt;n7</title>
<path fill="none" stroke="red" d="M458.85,-41.08C509.21,-48.13 588.69,-59.28 657.49,-69 676.16,-71.64 696.31,-74.5 715.15,-77.18"/>
<polygon fill="red" stroke="red" points="714.78,-80.66 725.17,-78.6 715.76,-73.73 714.78,-80.66"/>
<text text-anchor="middle" x="599.99" y="-72.8" font-family="Times,serif" font-size="14.00">poison</text>
</g>
<!-- n6 -->
<g id="node5" class="node">
<title>n6</title>
<ellipse fill="bisque" stroke="black" cx="407.24" cy="-88" rx="56.59" ry="18"/>
<text text-anchor="middle" x="407.24" y="-84.3" font-family="Times,serif" font-size="14.00">_fp_mul_b</text>
</g>
<!-- n6&#45;&gt;n7 -->
<g id="edge16" class="edge">
<title>n6&#45;&gt;n7</title>
<path fill="none" stroke="red" d="M463.91,-88C526.8,-88 629.95,-88 703.62,-88"/>
<polygon fill="red" stroke="red" points="703.81,-91.5 713.81,-88 703.81,-84.5 703.81,-91.5"/>
<text text-anchor="middle" x="599.99" y="-91.8" font-family="Times,serif" font-size="14.00">poison</text>
</g>
<!-- n7&#45;&gt;n10 -->
<g id="edge12" class="edge">
<title>n7&#45;&gt;n10</title>
<path fill="none" stroke="black" d="M743.29,-102.11C673.11,-122.82 542.34,-161.42 466.59,-183.78"/>
<polygon fill="black" stroke="black" points="465.33,-180.5 456.73,-186.69 467.31,-187.21 465.33,-180.5"/>
</g>
<!-- n0 -->
<g id="node7" class="node">
<title>n0</title>
<polygon fill="#a2cd5a" stroke="black" points="42,-66 0,-66 0,-42 42,-42 54,-54 42,-66"/>
<text text-anchor="middle" x="27" y="-50.3" font-family="Times,serif" font-size="14.00">f</text>
</g>
<!-- n3 -->
<g id="node9" class="node">
<title>n3</title>
<ellipse fill="bisque" stroke="black" cx="190" cy="-28" rx="27" ry="18"/>
<text text-anchor="middle" x="190" y="-24.3" font-family="Times,serif" font-size="14.00">_2</text>
</g>
<!-- n0&#45;&gt;n3 -->
<g id="edge2" class="edge">
<title>n0:e&#45;&gt;n3</title>
<path fill="none" stroke="black" d="M54,-54C89.13,-54 128.5,-45.4 155.61,-38.1"/>
<polygon fill="black" stroke="black" points="156.67,-41.43 165.37,-35.38 154.79,-34.69 156.67,-41.43"/>
</g>
<!-- n4 -->
<g id="node10" class="node">
<title>n4</title>
<ellipse fill="bisque" stroke="black" cx="190" cy="-82" rx="27" ry="18"/>
<text text-anchor="middle" x="190" y="-78.3" font-family="Times,serif" font-size="14.00">_3</text>
</g>
<!-- n0&#45;&gt;n4 -->
<g id="edge3" class="edge">
<title>n0:e&#45;&gt;n4</title>
<path fill="none" stroke="black" d="M54,-54C73.25,-54 121.61,-65.06 154.9,-73.27"/>
<polygon fill="black" stroke="black" points="154.15,-76.69 164.7,-75.72 155.84,-69.9 154.15,-76.69"/>
</g>
<!-- n2&#45;&gt;n8 -->
<g id="edge9" class="edge">
<title>n2&#45;&gt;n8</title>
<path fill="none" stroke="black" d="M210.63,-166.69C235.43,-181.37 279.54,-207.16 318,-228 333.78,-236.55 351.35,-245.61 366.64,-253.34"/>
<polygon fill="black" stroke="black" points="365.32,-256.59 375.83,-257.96 368.47,-250.34 365.32,-256.59"/>
</g>
<!-- n2&#45;&gt;n10 -->
<g id="edge11" class="edge">
<title>n2&#45;&gt;n10</title>
<path fill="none" stroke="black" d="M216.11,-160.37C245.89,-166.73 296.71,-177.59 338.33,-186.49"/>
<polygon fill="black" stroke="black" points="337.63,-189.92 348.14,-188.58 339.1,-183.07 337.63,-189.92"/>
</g>
<!-- n2&#45;&gt;n5 -->
<g id="edge4" class="edge">
<title>n2&#45;&gt;n5</title>
<path fill="none" stroke="black" d="M206.66,-140.6C229.53,-120.26 274.16,-83.11 318,-61 328.51,-55.7 340.26,-51.22 351.66,-47.52"/>
<polygon fill="black" stroke="black" points="353.03,-50.76 361.56,-44.47 350.98,-44.07 353.03,-50.76"/>
</g>
<!-- n2&#45;&gt;n6 -->
<g id="edge6" class="edge">
<title>n2&#45;&gt;n6</title>
<path fill="none" stroke="black" d="M214.86,-147.57C248.84,-136.99 312,-117.34 356.44,-103.5"/>
<polygon fill="black" stroke="black" points="357.68,-106.78 366.19,-100.47 355.6,-100.1 357.68,-106.78"/>
</g>
<!-- n3&#45;&gt;n5 -->
<g id="edge5" class="edge">
<title>n3&#45;&gt;n5</title>
<path fill="none" stroke="black" d="M217.39,-28.74C248.09,-29.59 299.87,-31.03 341.45,-32.19"/>
<polygon fill="black" stroke="black" points="341.42,-35.69 351.51,-32.47 341.61,-28.7 341.42,-35.69"/>
</g>
<!-- n4&#45;&gt;n6 -->
<g id="edge7" class="edge">
<title>n4&#45;&gt;n6</title>
<path fill="none" stroke="black" d="M217.39,-82.74C247.88,-83.59 299.17,-85.02 340.61,-86.17"/>
<polygon fill="black" stroke="black" points="340.54,-89.67 350.64,-86.45 340.74,-82.67 340.54,-89.67"/>
</g>
<!-- n9 -->
<g id="node11" class="node">
<title>n9</title>
<ellipse fill="bisque" stroke="black" cx="190" cy="-318" rx="27" ry="18"/>
<text text-anchor="middle" x="190" y="-314.3" font-family="Times,serif" font-size="14.00">_4</text>
</g>
<!-- n9&#45;&gt;n8 -->
<g id="edge8" class="edge">
<title>n9&#45;&gt;n8</title>
<path fill="none" stroke="black" d="M216.11,-312.75C248.62,-305.95 306.24,-293.91 349.55,-284.85"/>
<polygon fill="black" stroke="black" points="350.32,-288.27 359.39,-282.79 348.89,-281.42 350.32,-288.27"/>
</g>
<!-- n11 -->
<g id="node12" class="node">
<title>n11</title>
<ellipse fill="bisque" stroke="black" cx="190" cy="-264" rx="27" ry="18"/>
<text text-anchor="middle" x="190" y="-260.3" font-family="Times,serif" font-size="14.00">_5</text>
</g>
<!-- n11&#45;&gt;n8 -->
<g id="edge10" class="edge">
<title>n11&#45;&gt;n8</title>
<path fill="none" stroke="black" d="M216.96,-265.09C247.44,-266.36 299.1,-268.52 340.75,-270.26"/>
<polygon fill="black" stroke="black" points="340.7,-273.76 350.84,-270.68 340.99,-266.77 340.7,-273.76"/>
</g>
</g>
</svg>
