<?xml version="1.0" encoding="UTF-8" standalone="no"?>
<!-- Generated by graphviz version 2.43.0 (0)
 -->

<!-- Title: fifo_infer #() Pages: 1 -->

<svg
   width="1267pt"
   height="261pt"
   viewBox="0.00 0.00 1266.75 261.00"
   version="1.1"
   id="svg31"
   sodipodi:docname="fifo_inferv2_1.svg"
   inkscape:version="1.4 (e7c3feb100, 2024-10-09)"
   xmlns:inkscape="http://www.inkscape.org/namespaces/inkscape"
   xmlns:sodipodi="http://sodipodi.sourceforge.net/DTD/sodipodi-0.dtd"
   xmlns="http://www.w3.org/2000/svg"
   xmlns:svg="http://www.w3.org/2000/svg">
  <defs
     id="defs31" />
  <sodipodi:namedview
     id="namedview31"
     pagecolor="#ffffff"
     bordercolor="#000000"
     borderopacity="0.25"
     inkscape:showpageshadow="2"
     inkscape:pageopacity="0.0"
     inkscape:pagecheckerboard="0"
     inkscape:deskcolor="#d1d1d1"
     inkscape:document-units="pt"
     inkscape:zoom="2.3908046"
     inkscape:cx="915.59135"
     inkscape:cy="193.24039"
     inkscape:window-width="3838"
     inkscape:window-height="2130"
     inkscape:window-x="0"
     inkscape:window-y="0"
     inkscape:window-maximized="0"
     inkscape:current-layer="svg31" />
  <g
     id="clust1"
     class="cluster"
     transform="translate(4,257)">
    <title
       id="title2">cluster_submodule_0</title>
    <polygon
       fill="#d3d3d3"
       stroke="#d3d3d3"
       points="717.67,-155 717.67,-8 155,-8 155,-155 "
       id="polygon2" />
    <text
       text-anchor="middle"
       x="436.34"
       y="-139.8"
       font-family="Times, serif"
       font-size="14px"
       id="text2">FIFO #(T: type float #(), ALMOST_FULL: ?)</text>
  </g>
  <g
     id="clust4"
     class="cluster"
     transform="translate(4,257)">
    <title
       id="title3">cluster_submodule_1</title>
    <polygon
       fill="#d3d3d3"
       stroke="#d3d3d3"
       points="1250.75,-205 1250.75,-76 810.67,-76 810.67,-205 "
       id="polygon3" />
    <text
       text-anchor="middle"
       x="1030.71"
       y="-189.8"
       font-family="Times, serif"
       font-size="14px"
       id="text3">fp_mul #()</text>
  </g>
  <g
     id="node1"
     class="node"
     transform="translate(4,257)">
    <title
       id="title4">n7</title>
    <ellipse
       fill="#ffe4c4"
       stroke="#000000"
       cx="244.24001"
       cy="-106"
       rx="56.59"
       ry="18"
       id="ellipse4" />
    <text
       text-anchor="middle"
       x="244.24001"
       y="-102.3"
       font-family="Times, serif"
       font-size="14px"
       id="text4">_fifo_push</text>
  </g>
  <g
     id="node2"
     class="node"
     transform="translate(4,257)">
    <title
       id="title5">n9</title>
    <ellipse
       fill="#ffe4c4"
       stroke="#000000"
       cx="244.24001"
       cy="-34"
       rx="81.489998"
       ry="18"
       id="ellipse5" />
    <text
       text-anchor="middle"
       x="244.24001"
       y="-30.299999"
       font-family="Times, serif"
       font-size="14px"
       id="text5">_fifo_push_data</text>
  </g>
  <g
     id="edge13"
     class="edge"
     transform="translate(4,257)">
    <title
       id="title6">n7-&gt;n9</title>
    <path
       fill="none"
       stroke="#000000"
       d="m 206.78,-92.34 c -26.18,12.46 -30.46,24.92 -12.82,37.39"
       id="path6" />
    <polygon
       fill="#000000"
       stroke="#000000"
       points="192.48,-51.75 196.09,-57.76 202.86,-49.61 "
       id="polygon6" />
  </g>
  <g
     id="node3"
     class="node"
     transform="translate(4,257)">
    <title
       id="title7">n1</title>
    <ellipse
       fill="#ffe4c4"
       stroke="#000000"
       cx="629.08002"
       cy="-102"
       rx="80.690002"
       ry="18"
       id="ellipse7" />
    <text
       text-anchor="middle"
       x="629.08002"
       y="-98.300003"
       font-family="Times, serif"
       font-size="14px"
       id="text7">_fifo_may_push</text>
  </g>
  <g
     id="edge17"
     class="edge"
     transform="translate(4,257)">
    <title
       id="title8">n7-&gt;n1</title>
    <path
       fill="none"
       stroke="#008000"
       d="m 299.76,-102.51 c 24.38,1.39 53.48,2.83 79.73,3.51 51.09,1.33 63.89,0.57 115,0 14.32,-0.16 29.51,-0.42 44.31,-0.72"
       id="path8" />
    <polygon
       fill="#008000"
       stroke="#008000"
       points="539.04,-96.22 538.89,-103.22 548.97,-99.93 "
       id="polygon8" />
    <text
       text-anchor="middle"
       x="436.98999"
       y="-102.8"
       font-family="Times, serif"
       font-size="14px"
       id="text8">-ALMOST_FULL</text>
  </g>
  <g
     id="edge12"
     class="edge"
     transform="translate(4,257)">
    <title
       id="title9">n9-&gt;n7</title>
    <path
       fill="none"
       stroke="#000000"
       d="m 285.63,-49.61 c 24.21,-12.63 25.93,-25.26 5.14,-37.89"
       id="path9" />
    <polygon
       fill="#000000"
       stroke="#000000"
       points="292.17,-90.72 288.88,-84.55 281.7,-92.34 "
       id="polygon9" />
  </g>
  <g
     id="edge16"
     class="edge"
     transform="translate(4,257)">
    <title
       id="title10">n9-&gt;n1</title>
    <path
       fill="none"
       stroke="#008000"
       d="m 325.44,-35.06 c 49.25,-1.97 113.35,-6.92 169.05,-18.94 30.01,-6.48 62.45,-18.02 87.85,-28.16"
       id="path10" />
    <polygon
       fill="#008000"
       stroke="#008000"
       points="583.76,-78.96 581.12,-85.44 591.7,-85.96 "
       id="polygon10" />
    <text
       text-anchor="middle"
       x="436.98999"
       y="-57.799999"
       font-family="Times, serif"
       font-size="14px"
       id="text10">-ALMOST_FULL</text>
  </g>
  <g
     id="edge8"
     class="edge"
     transform="translate(4,257)">
    <title
       id="title11">n1-&gt;n7</title>
    <path
       fill="none"
       stroke="#000000"
       d="m 560.94,-111.63 c -21.21,-2.61 -44.77,-5.08 -66.45,-6.37 -51.02,-3.04 -63.94,-2.28 -115,0 -23.32,1.04 -48.84,3.09 -71.31,5.21"
       id="path11" />
    <polygon
       fill="#000000"
       stroke="#000000"
       points="307.71,-116.26 308.38,-109.3 298.09,-111.82 "
       id="polygon11" />
  </g>
  <g
     id="edge10"
     class="edge"
     transform="translate(4,257)">
    <title
       id="title12">n1-&gt;n9</title>
    <path
       fill="none"
       stroke="#000000"
       d="m 552.23,-96.45 c -49.51,4.43 -115.35,11.85 -172.74,23.45 -26.66,5.39 -55.7,13.53 -79.94,20.99"
       id="path12" />
    <polygon
       fill="#000000"
       stroke="#000000"
       points="298.34,-55.3 300.42,-48.62 289.83,-48.98 "
       id="polygon12" />
  </g>
  <g
     id="node4"
     class="node"
     transform="translate(4,257)">
    <title
       id="title13">n4</title>
    <ellipse
       fill="#ffe4c4"
       stroke="#000000"
       cx="875.21997"
       cy="-156"
       rx="55.790001"
       ry="18"
       id="ellipse13" />
    <text
       text-anchor="middle"
       x="875.21997"
       y="-152.3"
       font-family="Times, serif"
       font-size="14px"
       id="text13">_fp_mul_a</text>
  </g>
  <path
     fill="none"
     stroke="#000000"
     d="m 691.01,142.41 c 39.66,-8.78 92.3,-20.42 131.66,-29.12"
     id="path14" />
  <polygon
     fill="#000000"
     stroke="#000000"
     points="828.63,-145.92 819.62,-140.34 818.11,-147.17 "
     id="polygon14"
     transform="translate(4,257)" />
  <g
     id="node5"
     class="node"
     transform="translate(4,257)">
    <title
       id="title15">n5</title>
    <ellipse
       fill="#ffe4c4"
       stroke="#000000"
       cx="875.21997"
       cy="-102"
       rx="56.59"
       ry="18"
       id="ellipse15" />
    <text
       text-anchor="middle"
       x="875.21997"
       y="-98.300003"
       font-family="Times, serif"
       font-size="14px"
       id="text15">_fp_mul_b</text>
  </g>
  <path
     fill="none"
     stroke="#000000"
     d="m 713.68,155 c 32,0 68.46,0 98.9,0"
     id="path16" />
  <polygon
     fill="#000000"
     stroke="#000000"
     points="818.66,-102 808.66,-98.5 808.66,-105.5 "
     id="polygon16"
     transform="translate(4,257)" />
  <g
     id="node6"
     class="node"
     transform="translate(4,257)">
    <title
       id="title17">n6</title>
    <ellipse
       fill="#ffe4c4"
       stroke="#000000"
       cx="1164.75"
       cy="-102"
       rx="77.989998"
       ry="18"
       id="ellipse17" />
    <text
       text-anchor="middle"
       x="1164.75"
       y="-98.300003"
       font-family="Times, serif"
       font-size="14px"
       id="text17">_fp_mul_result</text>
  </g>
  <g
     id="edge14"
     class="edge"
     transform="translate(4,257)">
    <title
       id="title18">n4-&gt;n6</title>
    <path
       fill="none"
       stroke="#ff0000"
       d="m 924.02,-147.02 c 46.36,8.7 117.21,22.01 169.88,31.9"
       id="path18" />
    <polygon
       fill="#ff0000"
       stroke="#ff0000"
       points="1093.38,-111.66 1094.67,-118.54 1103.85,-113.25 "
       id="polygon18" />
    <text
       text-anchor="middle"
       x="1009.26"
       y="-138.8"
       font-family="Times, serif"
       font-size="14px"
       id="text18">poison</text>
  </g>
  <g
     id="edge15"
     class="edge"
     transform="translate(4,257)">
    <title
       id="title19">n5-&gt;n6</title>
    <path
       fill="none"
       stroke="#ff0000"
       d="m 932,-102 c 41,0 97.52,0 144.48,0"
       id="path19" />
    <polygon
       fill="#ff0000"
       stroke="#ff0000"
       points="1076.65,-98.5 1076.65,-105.5 1086.65,-102 "
       id="polygon19" />
    <text
       text-anchor="middle"
       x="1009.26"
       y="-105.8"
       font-family="Times, serif"
       font-size="14px"
       id="text19">poison</text>
  </g>
  <g
     id="edge11"
     class="edge"
     transform="translate(4,257)">
    <title
       id="title20">n6-&gt;n9</title>
    <path
       fill="none"
       stroke="#000000"
       d="m 1095.8,-93.52 c -46.21,5.62 -108.77,12.97 -164.04,18.52 -194.06,19.5 -242.48,27.21 -437.27,37 -52.55,2.64 -111.41,3.68 -158.72,4.03"
       id="path20" />
    <polygon
       fill="#000000"
       stroke="#000000"
       points="335.52,-37.46 335.57,-30.46 325.55,-33.9 "
       id="polygon20" />
  </g>
  <g
     id="node7"
     class="node"
     transform="translate(4,257)">
    <title
       id="title21">n0</title>
    <polygon
       fill="#a2cd5a"
       stroke="#000000"
       points="217.24,-188 259.24,-188 271.24,-200 259.24,-212 217.24,-212 "
       id="polygon21" />
    <text
       text-anchor="middle"
       x="244.24001"
       y="-196.3"
       font-family="Times, serif"
       font-size="14px"
       id="text21">f</text>
  </g>
  <g
     id="node8"
     class="node"
     transform="translate(4,257)">
    <title
       id="title22">n2</title>
    <ellipse
       fill="#ffe4c4"
       stroke="#000000"
       cx="629.08002"
       cy="-235"
       rx="27"
       ry="18"
       id="ellipse22" />
    <text
       text-anchor="middle"
       x="629.08002"
       y="-231.3"
       font-family="Times, serif"
       font-size="14px"
       id="text22">_1</text>
  </g>
  <g
     id="edge1"
     class="edge"
     transform="translate(4,257)">
    <title
       id="title23">n0:e-&gt;n2</title>
    <path
       fill="none"
       stroke="#000000"
       d="m 272.24,-200 c 31.44,0 235.96,-21.92 319.94,-31.06"
       id="path23" />
    <polygon
       fill="#000000"
       stroke="#000000"
       points="592.7,-227.6 591.94,-234.56 602.27,-232.17 "
       id="polygon23" />
  </g>
  <g
     id="node9"
     class="node"
     transform="translate(4,257)">
    <title
       id="title24">n3</title>
    <ellipse
       fill="#ffe4c4"
       stroke="#000000"
       cx="629.08002"
       cy="-181"
       rx="27"
       ry="18"
       id="ellipse24" />
    <text
       text-anchor="middle"
       x="629.08002"
       y="-177.3"
       font-family="Times, serif"
       font-size="14px"
       id="text24">_2</text>
  </g>
  <g
     id="edge2"
     class="edge"
     transform="translate(4,257)">
    <title
       id="title25">n0:e-&gt;n3</title>
    <path
       fill="none"
       stroke="#000000"
       d="m 272.24,-200 c 117.21,0 255.82,10.41 319.96,15.82"
       id="path25" />
    <polygon
       fill="#000000"
       stroke="#000000"
       points="591.95,-180.69 592.54,-187.67 602.21,-183.33 "
       id="polygon25" />
  </g>
  <g
     id="edge4"
     class="edge"
     transform="translate(4,257)">
    <title
       id="title26">n2-&gt;n4</title>
    <path
       fill="none"
       stroke="#000000"
       d="m 653.92,-227.81 c 17.63,5.37 42.23,12.92 63.75,19.81 36.55,11.7 77.73,25.4 108.67,35.8"
       id="path26" />
    <polygon
       fill="#000000"
       stroke="#000000"
       points="825.42,-168.82 827.65,-175.45 836.01,-168.95 "
       id="polygon26" />
  </g>
  <g
     id="edge6"
     class="edge"
     transform="translate(4,257)">
    <title
       id="title27">n3-&gt;n5</title>
    <path
       fill="none"
       stroke="#000000"
       d="m 654.81,-175.51 c 17.65,4.1 41.88,10.07 62.86,16.51 38.18,11.71 80.71,27.37 111.79,39.31"
       id="path27" />
    <polygon
       fill="#000000"
       stroke="#000000"
       points="828.54,-116.29 831.06,-122.82 839.13,-115.95 "
       id="polygon27" />
  </g>
  <g
     id="node10"
     class="node"
     transform="translate(4,257)">
    <title
       id="title28">n8</title>
    <ellipse
       fill="#ffe4c4"
       stroke="#000000"
       cx="27"
       cy="-133"
       rx="27"
       ry="18"
       id="ellipse28" />
    <text
       text-anchor="middle"
       x="27"
       y="-129.3"
       font-family="Times, serif"
       font-size="14px"
       id="text28">_3</text>
  </g>
  <g
     id="edge7"
     class="edge"
     transform="translate(4,257)">
    <title
       id="title29">n8-&gt;n7</title>
    <path
       fill="none"
       stroke="#000000"
       d="m 53.96,-129.74 c 31.3,3.92 84.95,10.65 127.16,15.95"
       id="path29" />
    <polygon
       fill="#000000"
       stroke="#000000"
       points="180.95,-110.29 181.82,-117.23 191.31,-112.51 "
       id="polygon29" />
  </g>
  <g
     id="node11"
     class="node"
     transform="translate(4,257)">
    <title
       id="title30">n10</title>
    <ellipse
       fill="#ffe4c4"
       stroke="#000000"
       cx="27"
       cy="-79"
       rx="27"
       ry="18"
       id="ellipse30" />
    <text
       text-anchor="middle"
       x="27"
       y="-75.300003"
       font-family="Times, serif"
       font-size="14px"
       id="text30">_4</text>
  </g>
  <g
     id="edge9"
     class="edge"
     transform="translate(4,257)">
    <title
       id="title31">n10-&gt;n7</title>
    <path
       fill="none"
       stroke="#000000"
       d="m 53.96,-82.26 c 31.3,-3.92 84.95,-10.65 127.16,-15.95"
       id="path31" />
    <polygon
       fill="#000000"
       stroke="#000000"
       points="181.82,-94.77 180.95,-101.71 191.31,-99.49 "
       id="polygon31" />
  </g>
</svg>
