<?xml version="1.0" encoding="UTF-8" standalone="no"?>
<!DOCTYPE svg PUBLIC "-//W3C//DTD SVG 1.1//EN"
 "http://www.w3.org/Graphics/SVG/1.1/DTD/svg11.dtd">
<!-- Generated by graphviz version 2.43.0 (0)
 -->
<!-- Title: fifo_infer #() Pages: 1 -->
<svg width="927pt" height="222pt"
 viewBox="0.00 0.00 927.00 222.00" xmlns="http://www.w3.org/2000/svg" xmlns:xlink="http://www.w3.org/1999/xlink">
<g id="graph0" class="graph" transform="scale(1 1) rotate(0) translate(4 218)">
<title>fifo_infer #()</title>
<polygon fill="white" stroke="transparent" points="-4,4 -4,-218 923,-218 923,4 -4,4"/>
<!-- submodule_0_clk -->
<g id="node1" class="node">
<title>submodule_0_clk</title>
<polygon fill="bisque" stroke="transparent" points="505,-201.5 162,-201.5 162,-138.5 505,-138.5 505,-201.5"/>
<polygon fill="bisque" stroke="transparent" points="162,-138.5 162,-201.5 505,-201.5 505,-138.5 162,-138.5"/>
<polygon fill="none" stroke="black" points="162.5,-180 162.5,-201 505.5,-201 505.5,-180 162.5,-180"/>
<text text-anchor="start" x="165.5" y="-187.8" font-family="Times,serif" font-weight="bold" font-size="14.00">FIFO #(T: type float #(), ALMOST_FULL: 8)</text>
<polygon fill="none" stroke="black" points="162.5,-159 162.5,-180 317.5,-180 317.5,-159 162.5,-159"/>
<text text-anchor="start" x="216" y="-165.8" font-family="Times,serif" font-size="14.00">push&#39;0</text>
<polygon fill="none" stroke="black" points="162.5,-138 162.5,-159 317.5,-159 317.5,-138 162.5,-138"/>
<text text-anchor="start" x="197" y="-144.8" font-family="Times,serif" font-size="14.00">push_data&#39;0</text>
<polygon fill="none" stroke="black" points="317.5,-138 317.5,-180 378.5,-180 378.5,-138 317.5,-138"/>
<text text-anchor="start" x="336.5" y="-162.8" font-family="Times,serif" font-size="14.00">fifo</text>
<text text-anchor="start" x="337.5" y="-147.8" font-family="Times,serif" font-size="14.00">clk</text>
<polygon fill="none" stroke="black" points="378.5,-138 378.5,-180 505.5,-180 505.5,-138 378.5,-138"/>
<text text-anchor="start" x="397.5" y="-155.3" font-family="Times,serif" font-size="14.00">may_push&#39;&#45;8</text>
</g>
<!-- n2 -->
<g id="node4" class="node">
<title>n2</title>
<ellipse fill="bisque" stroke="black" cx="640" cy="-164" rx="27" ry="18"/>
<text text-anchor="middle" x="640" y="-160.3" font-family="Times,serif" font-size="14.00">_1</text>
</g>
<!-- submodule_0_clk&#45;&gt;n2 -->
<g id="edge1" class="edge">
<title>submodule_0_clk:may_push&#45;&gt;n2</title>
<path fill="none" stroke="black" d="M505,-159C538.19,-159 575.98,-160.55 602.94,-161.93"/>
<polygon fill="black" stroke="black" points="602.9,-165.43 613.07,-162.46 603.27,-158.44 602.9,-165.43"/>
</g>
<!-- submodule_1_clk -->
<g id="node2" class="node">
<title>submodule_1_clk</title>
<polygon fill="bisque" stroke="transparent" points="919,-160.5 775,-160.5 775,-97.5 919,-97.5 919,-160.5"/>
<polygon fill="bisque" stroke="transparent" points="775,-97.5 775,-160.5 919,-160.5 919,-97.5 775,-97.5"/>
<polygon fill="none" stroke="black" points="775,-139 775,-160 919,-160 919,-139 775,-139"/>
<text text-anchor="start" x="805" y="-146.8" font-family="Times,serif" font-weight="bold" font-size="14.00">fp_mul #()</text>
<polygon fill="none" stroke="black" points="775,-118 775,-139 803,-139 803,-118 775,-118"/>
<text text-anchor="start" x="778" y="-124.8" font-family="Times,serif" font-size="14.00">a&#39;0</text>
<polygon fill="none" stroke="black" points="775,-97 775,-118 803,-118 803,-97 775,-97"/>
<text text-anchor="start" x="778" y="-103.8" font-family="Times,serif" font-size="14.00">b&#39;0</text>
<polygon fill="none" stroke="black" points="803,-97 803,-139 858,-139 858,-97 803,-97"/>
<text text-anchor="start" x="806" y="-121.8" font-family="Times,serif" font-size="14.00">fp_mul</text>
<text text-anchor="start" x="820" y="-106.8" font-family="Times,serif" font-size="14.00">clk</text>
<polygon fill="none" stroke="black" points="858,-97 858,-139 919,-139 919,-97 858,-97"/>
<text text-anchor="start" x="861" y="-114.3" font-family="Times,serif" font-size="14.00">result&#39;8</text>
</g>
<!-- submodule_1_clk&#45;&gt;submodule_0_clk -->
<g id="edge12" class="edge">
<title>submodule_1_clk:result&#45;&gt;submodule_0_clk:push_data</title>
<path fill="none" stroke="black" d="M889,-96C889,-45.33 825.62,-94.89 775,-97 747.41,-98.15 311.94,-105.88 247.46,-130.7"/>
<polygon fill="black" stroke="black" points="245.17,-128.05 239.5,-137 249.51,-133.53 245.17,-128.05"/>
</g>
<!-- n0 -->
<g id="node3" class="node">
<title>n0</title>
<polygon fill="#a2cd5a" stroke="black" points="348.5,-57 306.5,-57 306.5,-33 348.5,-33 360.5,-45 348.5,-57"/>
<text text-anchor="middle" x="333.5" y="-41.3" font-family="Times,serif" font-size="14.00">f</text>
</g>
<!-- n3 -->
<g id="node5" class="node">
<title>n3</title>
<ellipse fill="bisque" stroke="black" cx="640" cy="-72" rx="27" ry="18"/>
<text text-anchor="middle" x="640" y="-68.3" font-family="Times,serif" font-size="14.00">_2</text>
</g>
<!-- n0&#45;&gt;n3 -->
<g id="edge2" class="edge">
<title>n0:e&#45;&gt;n3</title>
<path fill="none" stroke="black" d="M361.5,-45C448.67,-45 550.53,-58.36 603.27,-66.29"/>
<polygon fill="black" stroke="black" points="603.03,-69.79 613.45,-67.84 604.09,-62.87 603.03,-69.79"/>
</g>
<!-- n4 -->
<g id="node6" class="node">
<title>n4</title>
<ellipse fill="bisque" stroke="black" cx="640" cy="-18" rx="27" ry="18"/>
<text text-anchor="middle" x="640" y="-14.3" font-family="Times,serif" font-size="14.00">_3</text>
</g>
<!-- n0&#45;&gt;n4 -->
<g id="edge3" class="edge">
<title>n0:e&#45;&gt;n4</title>
<path fill="none" stroke="black" d="M361.5,-45C448.67,-45 550.53,-31.64 603.27,-23.71"/>
<polygon fill="black" stroke="black" points="604.09,-27.13 613.45,-22.16 603.03,-20.21 604.09,-27.13"/>
</g>
<!-- n2&#45;&gt;submodule_0_clk -->
<g id="edge9" class="edge">
<title>n2&#45;&gt;submodule_0_clk:push</title>
<path fill="none" stroke="black" d="M614.5,-157.9C587.78,-151.59 543.67,-142.15 505,-138.5 353.45,-124.21 271.89,-32.64 162.5,-138.5 156.1,-144.69 151.83,-155.89 153.48,-162.86"/>
<polygon fill="black" stroke="black" points="151.43,-165.7 161.5,-169 155.69,-160.14 151.43,-165.7"/>
</g>
<!-- n2&#45;&gt;submodule_0_clk -->
<g id="edge11" class="edge">
<title>n2&#45;&gt;submodule_0_clk:push_data</title>
<path fill="none" stroke="black" d="M614.91,-157.3C532.75,-135.06 267.24,-68.29 241.51,-126.95"/>
<polygon fill="black" stroke="black" points="238.03,-126.51 239.5,-137 244.89,-127.88 238.03,-126.51"/>
</g>
<!-- n2&#45;&gt;submodule_1_clk -->
<g id="edge4" class="edge">
<title>n2&#45;&gt;submodule_1_clk:a</title>
<path fill="none" stroke="black" d="M662.8,-154.35C686.79,-144.56 726.98,-130.54 764.9,-128.31"/>
<polygon fill="black" stroke="black" points="765.11,-131.8 775,-128 764.9,-124.8 765.11,-131.8"/>
</g>
<!-- n2&#45;&gt;submodule_1_clk -->
<g id="edge6" class="edge">
<title>n2&#45;&gt;submodule_1_clk:b</title>
<path fill="none" stroke="black" d="M659.04,-150.78C681.96,-135.22 723.53,-111.05 764.81,-107.45"/>
<polygon fill="black" stroke="black" points="765.17,-110.94 775,-107 764.85,-103.95 765.17,-110.94"/>
</g>
<!-- n3&#45;&gt;submodule_1_clk -->
<g id="edge5" class="edge">
<title>n3&#45;&gt;submodule_1_clk:a</title>
<path fill="none" stroke="black" d="M659.08,-84.99C682.04,-100.27 723.64,-124.03 764.83,-127.56"/>
<polygon fill="black" stroke="black" points="764.86,-131.06 775,-128 765.16,-124.07 764.86,-131.06"/>
</g>
<!-- n4&#45;&gt;submodule_1_clk -->
<g id="edge7" class="edge">
<title>n4&#45;&gt;submodule_1_clk:b</title>
<path fill="none" stroke="black" d="M657.37,-32.3C683.64,-54.71 735.27,-96.45 765.09,-105.32"/>
<polygon fill="black" stroke="black" points="764.56,-108.78 775,-107 765.73,-101.88 764.56,-108.78"/>
</g>
<!-- n9 -->
<g id="node7" class="node">
<title>n9</title>
<ellipse fill="bisque" stroke="black" cx="27" cy="-196" rx="27" ry="18"/>
<text text-anchor="middle" x="27" y="-192.3" font-family="Times,serif" font-size="14.00">_4</text>
</g>
<!-- n9&#45;&gt;submodule_0_clk -->
<g id="edge8" class="edge">
<title>n9&#45;&gt;submodule_0_clk:push</title>
<path fill="none" stroke="black" d="M51.43,-188.34C75.68,-181.04 115.07,-170.93 151.74,-169.24"/>
<polygon fill="black" stroke="black" points="152.09,-172.74 162,-169 151.92,-165.74 152.09,-172.74"/>
</g>
<!-- n11 -->
<g id="node8" class="node">
<title>n11</title>
<ellipse fill="bisque" stroke="black" cx="27" cy="-142" rx="27" ry="18"/>
<text text-anchor="middle" x="27" y="-138.3" font-family="Times,serif" font-size="14.00">_5</text>
</g>
<!-- n11&#45;&gt;submodule_0_clk -->
<g id="edge10" class="edge">
<title>n11&#45;&gt;submodule_0_clk:push</title>
<path fill="none" stroke="black" d="M51.43,-149.66C75.68,-156.96 115.07,-167.07 151.74,-168.76"/>
<polygon fill="black" stroke="black" points="151.92,-172.26 162,-169 152.09,-165.26 151.92,-172.26"/>
</g>
</g>
</svg>
