<?xml version="1.0" encoding="UTF-8" standalone="no"?>
<!-- Generated by graphviz version 2.43.0 (0)
 -->

<!-- Title: fifo_infer #() Pages: 1 -->

<svg
   width="971pt"
   height="310pt"
   viewBox="0.00 0.00 970.67 310.00"
   version="1.1"
   id="svg32"
   sodipodi:docname="fifo_infer_2.svg"
   inkscape:version="1.4 (e7c3feb100, 2024-10-09)"
   xmlns:inkscape="http://www.inkscape.org/namespaces/inkscape"
   xmlns:sodipodi="http://sodipodi.sourceforge.net/DTD/sodipodi-0.dtd"
   xmlns="http://www.w3.org/2000/svg"
   xmlns:svg="http://www.w3.org/2000/svg">
  <defs
     id="defs32" />
  <sodipodi:namedview
     id="namedview32"
     pagecolor="#ffffff"
     bordercolor="#000000"
     borderopacity="0.25"
     inkscape:showpageshadow="2"
     inkscape:pageopacity="0.0"
     inkscape:pagecheckerboard="0"
     inkscape:deskcolor="#d1d1d1"
     inkscape:document-units="pt"
     inkscape:zoom="2.0129032"
     inkscape:cx="859.95193"
     inkscape:cy="282.67628"
     inkscape:window-width="3840"
     inkscape:window-height="2160"
     inkscape:window-x="0"
     inkscape:window-y="0"
     inkscape:window-maximized="0"
     inkscape:current-layer="svg32" />
  <g
     id="clust1"
     class="cluster"
     transform="translate(4,306)">
    <title
       id="title2">cluster_submodule_0</title>
    <polygon
       fill="#d3d3d3"
       stroke="#d3d3d3"
       points="717.67,-166 717.67,-19 155,-19 155,-166 "
       id="polygon2" />
    <text
       text-anchor="middle"
       x="436.34"
       y="-150.8"
       font-family="Times, serif"
       font-size="14px"
       id="text2">FIFO #(T: type float #(), ALMOST_FULL: ?)</text>
  </g>
  <g
     id="node1"
     class="node"
     transform="translate(4,306)">
    <title
       id="title3">n7</title>
    <ellipse
       fill="#ffe4c4"
       stroke="#000000"
       cx="244.24001"
       cy="-45"
       rx="56.59"
       ry="18"
       id="ellipse3" />
    <text
       text-anchor="middle"
       x="244.24001"
       y="-41.299999"
       font-family="Times, serif"
       font-size="14px"
       id="text3">_fifo_push</text>
  </g>
  <g
     id="node2"
     class="node"
     transform="translate(4,306)">
    <title
       id="title4">n9</title>
    <ellipse
       fill="#ffe4c4"
       stroke="#000000"
       cx="244.24001"
       cy="-117"
       rx="81.489998"
       ry="18"
       id="ellipse4" />
    <text
       text-anchor="middle"
       x="244.24001"
       y="-113.3"
       font-family="Times, serif"
       font-size="14px"
       id="text4">_fifo_push_data</text>
  </g>
  <g
     id="edge13"
     class="edge"
     transform="translate(4,306)">
    <title
       id="title5">n7-&gt;n9</title>
    <path
       fill="none"
       stroke="#000000"
       d="M 215.25,-60.75 C 201,-71.5 198.1,-82.26 206.56,-93.01"
       id="path5" />
    <polygon
       fill="#000000"
       stroke="#000000"
       points="209.07,-90.58 204.16,-95.57 213.75,-100.08 "
       id="polygon5" />
  </g>
  <g
     id="node3"
     class="node"
     transform="translate(4,306)">
    <title
       id="title6">n1</title>
    <ellipse
       fill="#ffe4c4"
       stroke="#000000"
       cx="629.08002"
       cy="-100"
       rx="80.690002"
       ry="18"
       id="ellipse6" />
    <text
       text-anchor="middle"
       x="629.08002"
       y="-96.300003"
       font-family="Times, serif"
       font-size="14px"
       id="text6">_fifo_may_push</text>
  </g>
  <g
     id="edge15"
     class="edge"
     transform="translate(4,306)">
    <title
       id="title7">n7-&gt;n1</title>
    <path
       fill="none"
       stroke="#008000"
       d="m 299.75,-41.24 c 50.86,2.32 128.61,2.81 194.74,-9.76 30.88,-5.87 64.06,-18.01 89.64,-28.74"
       id="path7" />
    <polygon
       fill="#008000"
       stroke="#008000"
       points="585.72,-76.61 582.96,-83.05 593.53,-83.76 "
       id="polygon7" />
    <text
       text-anchor="middle"
       x="436.98999"
       y="-54.799999"
       font-family="Times, serif"
       font-size="14px"
       id="text7">-ALMOST_FULL</text>
  </g>
  <g
     id="edge12"
     class="edge"
     transform="translate(4,306)">
    <title
       id="title8">n9-&gt;n7</title>
    <path
       fill="none"
       stroke="#000000"
       d="m 274.74,-100.08 c 13.56,10.86 15.54,21.71 5.96,32.57"
       id="path8" />
    <polygon
       fill="#000000"
       stroke="#000000"
       points="278.3,-70.06 282.99,-64.87 273.23,-60.75 "
       id="polygon8" />
  </g>
  <g
     id="edge14"
     class="edge"
     transform="translate(4,306)">
    <title
       id="title9">n9-&gt;n1</title>
    <path
       fill="none"
       stroke="#008000"
       d="m 324.1,-113.5 c 62.75,2.79 150.52,6.69 215.63,9.58"
       id="path9" />
    <polygon
       fill="#008000"
       stroke="#008000"
       points="539.83,-100.42 540.14,-107.41 549.98,-103.47 "
       id="polygon9" />
    <text
       text-anchor="middle"
       x="436.98999"
       y="-114.8"
       font-family="Times, serif"
       font-size="14px"
       id="text9">-ALMOST_FULL</text>
  </g>
  <g
     id="edge8"
     class="edge"
     transform="translate(4,306)">
    <title
       id="title10">n1-&gt;n7</title>
    <path
       fill="none"
       stroke="#000000"
       d="m 555.57,-92.49 c -49.67,5.45 -117,13.43 -176.08,22.49 -25.43,3.9 -53.42,8.98 -77.23,13.55"
       id="path10" />
    <polygon
       fill="#000000"
       stroke="#000000"
       points="301.49,-59.87 302.82,-53 292.33,-54.53 "
       id="polygon10" />
  </g>
  <g
     id="edge10"
     class="edge"
     transform="translate(4,306)">
    <title
       id="title11">n1-&gt;n9</title>
    <path
       fill="none"
       stroke="#000000"
       d="m 549.62,-96.85 c -48.97,1.26 -113.29,1.64 -170.13,-2.15 -19.28,-1.29 -40.02,-3.6 -59.29,-6.15"
       id="path11" />
    <polygon
       fill="#000000"
       stroke="#000000"
       points="320.65,-108.62 319.71,-101.69 310.27,-106.5 "
       id="polygon11" />
  </g>
  <g
     id="node4"
     class="node"
     transform="translate(4,306)">
    <title
       id="title12">submodule_1_clk</title>
    <polygon
       fill="#ffe4c4"
       stroke="transparent"
       points="818.67,-182.5 962.67,-182.5 962.67,-245.5 818.67,-245.5 "
       id="polygon12" />
    <polygon
       fill="#ffe4c4"
       stroke="transparent"
       points="962.67,-245.5 962.67,-182.5 818.67,-182.5 818.67,-245.5 "
       id="polygon13" />
    <polygon
       fill="none"
       stroke="#000000"
       points="962.67,-245 962.67,-224 818.67,-224 818.67,-245 "
       id="polygon14" />
    <text
       text-anchor="start"
       x="848.66998"
       y="-231.8"
       font-family="Times, serif"
       font-weight="bold"
       font-size="14px"
       id="text14">fp_mul #()</text>
    <polygon
       fill="none"
       stroke="#000000"
       points="846.67,-224 846.67,-203 818.67,-203 818.67,-224 "
       id="polygon15" />
    <text
       text-anchor="start"
       x="821.66998"
       y="-209.8"
       font-family="Times, serif"
       font-size="14px"
       id="text15">a'0</text>
    <polygon
       fill="none"
       stroke="#000000"
       points="846.67,-203 846.67,-182 818.67,-182 818.67,-203 "
       id="polygon16" />
    <text
       text-anchor="start"
       x="821.66998"
       y="-188.8"
       font-family="Times, serif"
       font-size="14px"
       id="text16">b'0</text>
    <polygon
       fill="none"
       stroke="#000000"
       points="901.67,-224 901.67,-182 846.67,-182 846.67,-224 "
       id="polygon17" />
    <text
       text-anchor="start"
       x="849.66998"
       y="-206.8"
       font-family="Times, serif"
       font-size="14px"
       id="text17">fp_mul</text>
    <text
       text-anchor="start"
       x="863.66998"
       y="-191.8"
       font-family="Times, serif"
       font-size="14px"
       id="text18">clk</text>
    <polygon
       fill="none"
       stroke="#000000"
       points="962.67,-224 962.67,-182 901.67,-182 901.67,-224 "
       id="polygon18" />
    <text
       text-anchor="start"
       x="904.66998"
       y="-199.3"
       font-family="Times, serif"
       font-size="14px"
       id="text19">result'8</text>
  </g>
  <path
     fill="none"
     stroke="#000000"
     d="m 659.37068,188.85484 c 41.34503,-26.1886 121.93483,-76.10619 153.35865,-87.81991"
     id="path19"
     style="stroke:#00b0ce;stroke-width:0.970819;stroke-opacity:1" />
  <polygon
     fill="#000000"
     stroke="#000000"
     points="809.91,-207.04 808.11,-213.81 818.67,-213 "
     id="polygon19"
     transform="translate(2.7890625,311.91496)"
     style="fill:#00b0ce;fill-opacity:1;stroke:#00b0ce;stroke-opacity:1" />
  <path
     fill="none"
     stroke="#000000"
     d="m 713.57,204.68 c 53.21,-5.33 114.85,-21.92 122.34,-69.7"
     id="path20"
     style="stroke:#00b0ce;stroke-opacity:1" />
  <polygon
     fill="#000000"
     stroke="#000000"
     points="832.67,-181 835.4,-170.76 828.42,-171.29 "
     id="polygon20"
     transform="translate(4,306)"
     style="stroke:#00b0ce;stroke-opacity:1;fill:#00b0ce;fill-opacity:1" />
  <path
     fill="none"
     stroke="#000000"
     d="M 936.85282,124.37851 C 896.83756,269.31284 767.67312,34.792222 473.06371,83.673377 377.95509,99.442663 303.07516,118.57415 268.88224,161.04655"
     id="path21"
     sodipodi:nodetypes="ccc"
     style="stroke:#00b0ce;stroke-width:1.00744;stroke-opacity:1" />
  <polygon
     fill="#000000"
     stroke="#000000"
     points="288.46,-140.34 291.25,-133.92 280.68,-133.15 "
     id="polygon21"
     transform="rotate(-38.741287,703.60648,41.352209)"
     style="stroke:#00b0ce;stroke-opacity:1;fill:#00b0ce;fill-opacity:1" />
  <g
     id="node5"
     class="node"
     transform="translate(4,306)">
    <title
       id="title22">n0</title>
    <polygon
       fill="#a2cd5a"
       stroke="#000000"
       points="217.24,-225 259.24,-225 271.24,-237 259.24,-249 217.24,-249 "
       id="polygon22" />
    <text
       text-anchor="middle"
       x="244.24001"
       y="-233.3"
       font-family="Times, serif"
       font-size="14px"
       id="text22">f</text>
  </g>
  <g
     id="node6"
     class="node"
     transform="translate(4,306)">
    <title
       id="title23">n2</title>
    <ellipse
       fill="#ffe4c4"
       stroke="#000000"
       cx="629.08002"
       cy="-284"
       rx="27"
       ry="18"
       id="ellipse23" />
    <text
       text-anchor="middle"
       x="629.08002"
       y="-280.29999"
       font-family="Times, serif"
       font-size="14px"
       id="text23">_1</text>
  </g>
  <g
     id="edge1"
     class="edge"
     transform="translate(4,306)">
    <title
       id="title24">n0:e-&gt;n2</title>
    <path
       fill="none"
       stroke="#000000"
       d="m 272.24,-237 c 48.13,0 59.55,-8.59 107.25,-15 75.73,-10.17 164.54,-21.45 212.85,-27.52"
       id="path24" />
    <polygon
       fill="#000000"
       stroke="#000000"
       points="592.81,-276.06 591.94,-283 602.3,-280.78 "
       id="polygon24" />
  </g>
  <g
     id="node7"
     class="node"
     transform="translate(4,306)">
    <title
       id="title25">n3</title>
    <ellipse
       fill="#ffe4c4"
       stroke="#000000"
       cx="629.08002"
       cy="-192"
       rx="27"
       ry="18"
       id="ellipse25" />
    <text
       text-anchor="middle"
       x="629.08002"
       y="-188.3"
       font-family="Times, serif"
       font-size="14px"
       id="text25">_2</text>
  </g>
  <g
     id="edge2"
     class="edge"
     transform="translate(4,306)">
    <title
       id="title26">n0:e-&gt;n3</title>
    <path
       fill="none"
       stroke="#000000"
       d="m 272.24,-237 c 118.56,0 257.6,24.89 321.07,37.65"
       id="path26" />
    <polygon
       fill="#000000"
       stroke="#000000"
       points="592.7,-195.9 594.09,-202.76 603.19,-197.34 "
       id="polygon26" />
  </g>
  <g
     id="edge4"
     class="edge"
     transform="translate(4,306)">
    <title
       id="title27">n2-&gt;submodule_1_clk:a</title>
    <path
       fill="none"
       stroke="#000000"
       d="m 655.86,-280.93 c 27.83,4.01 73,12.53 108.81,28.93 23.45,10.74 24.56,32.36 44.02,37.76"
       id="path27" />
    <polygon
       fill="#000000"
       stroke="#000000"
       points="808.32,-210.76 809.18,-217.71 818.67,-213 "
       id="polygon27" />
  </g>
  <g
     id="edge6"
     class="edge"
     transform="translate(4,306)">
    <title
       id="title28">n3-&gt;submodule_1_clk:b</title>
    <path
       fill="none"
       stroke="#000000"
       d="m 656.32,-192 c 34.29,0 96.54,0 152.07,0"
       id="path28" />
    <polygon
       fill="#000000"
       stroke="#000000"
       points="808.67,-188.5 808.67,-195.5 818.67,-192 "
       id="polygon28" />
  </g>
  <g
     id="node8"
     class="node"
     transform="translate(4,306)">
    <title
       id="title29">n8</title>
    <ellipse
       fill="#ffe4c4"
       stroke="#000000"
       cx="27"
       cy="-72"
       rx="27"
       ry="18"
       id="ellipse29" />
    <text
       text-anchor="middle"
       x="27"
       y="-68.300003"
       font-family="Times, serif"
       font-size="14px"
       id="text29">_3</text>
  </g>
  <g
     id="edge7"
     class="edge"
     transform="translate(4,306)">
    <title
       id="title30">n8-&gt;n7</title>
    <path
       fill="none"
       stroke="#000000"
       d="m 53.96,-68.74 c 31.3,3.92 84.95,10.65 127.16,15.95"
       id="path30" />
    <polygon
       fill="#000000"
       stroke="#000000"
       points="180.95,-49.29 181.82,-56.23 191.31,-51.51 "
       id="polygon30" />
  </g>
  <g
     id="node9"
     class="node"
     transform="translate(4,306)">
    <title
       id="title31">n10</title>
    <ellipse
       fill="#ffe4c4"
       stroke="#000000"
       cx="27"
       cy="-18"
       rx="27"
       ry="18"
       id="ellipse31" />
    <text
       text-anchor="middle"
       x="27"
       y="-14.3"
       font-family="Times, serif"
       font-size="14px"
       id="text31">_4</text>
  </g>
  <g
     id="edge9"
     class="edge"
     transform="translate(4,306)">
    <title
       id="title32">n10-&gt;n7</title>
    <path
       fill="none"
       stroke="#000000"
       d="m 53.96,-21.26 c 31.3,-3.92 84.95,-10.65 127.16,-15.95"
       id="path32" />
    <polygon
       fill="#000000"
       stroke="#000000"
       points="181.82,-33.77 180.95,-40.71 191.31,-38.49 "
       id="polygon32" />
  </g>
</svg>
