<?xml version="1.0" encoding="UTF-8" standalone="no"?>
<!DOCTYPE svg PUBLIC "-//W3C//DTD SVG 1.1//EN"
 "http://www.w3.org/Graphics/SVG/1.1/DTD/svg11.dtd">
<!-- Generated by graphviz version 2.43.0 (0)
 -->
<!-- Title: fifo_infer #() Pages: 1 -->
<svg width="897pt" height="325pt"
 viewBox="0.00 0.00 896.67 325.00" xmlns="http://www.w3.org/2000/svg" xmlns:xlink="http://www.w3.org/1999/xlink">
<g id="graph0" class="graph" transform="scale(1 1) rotate(0) translate(4 321)">
<title>fifo_infer #()</title>
<polygon fill="white" stroke="transparent" points="-4,4 -4,-321 892.67,-321 892.67,4 -4,4"/>
<g id="clust1" class="cluster">
<title>cluster_submodule_0</title>
<polygon fill="lightgrey" stroke="lightgrey" points="318,-156 318,-303 880.67,-303 880.67,-156 318,-156"/>
<text text-anchor="middle" x="599.34" y="-287.8" font-family="Times,serif" font-size="14.00">FIFO #(T: type float #(), ALMOST_FULL: ?)</text>
</g>
<!-- n8 -->
<g id="node1" class="node">
<title>n8</title>
<ellipse fill="bisque" stroke="black" cx="407.24" cy="-254" rx="56.59" ry="18"/>
<text text-anchor="middle" x="407.24" y="-250.3" font-family="Times,serif" font-size="14.00">_fifo_push</text>
</g>
<!-- n10 -->
<g id="node2" class="node">
<title>n10</title>
<ellipse fill="bisque" stroke="black" cx="407.24" cy="-182" rx="81.49" ry="18"/>
<text text-anchor="middle" x="407.24" y="-178.3" font-family="Times,serif" font-size="14.00">_fifo_push_data</text>
</g>
<!-- n8&#45;&gt;n10 -->
<g id="edge14" class="edge">
<title>n8&#45;&gt;n10</title>
<path fill="none" stroke="black" d="M369.78,-240.34C343.6,-227.88 339.32,-215.42 356.96,-202.95"/>
<polygon fill="black" stroke="black" points="359.09,-205.76 365.86,-197.61 355.48,-199.75 359.09,-205.76"/>
</g>
<!-- n1 -->
<g id="node3" class="node">
<title>n1</title>
<ellipse fill="bisque" stroke="black" cx="792.08" cy="-182" rx="80.69" ry="18"/>
<text text-anchor="middle" x="792.08" y="-178.3" font-family="Times,serif" font-size="14.00">_fifo_may_push</text>
</g>
<!-- n8&#45;&gt;n1 -->
<g id="edge16" class="edge">
<title>n8&#45;&gt;n1</title>
<path fill="none" stroke="green" d="M456.34,-244.95C522.74,-232.47 642.99,-209.85 719.84,-195.4"/>
<polygon fill="green" stroke="green" points="720.74,-198.79 729.92,-193.5 719.44,-191.91 720.74,-198.79"/>
<text text-anchor="middle" x="599.99" y="-231.8" font-family="Times,serif" font-size="14.00">&#45;ALMOST_FULL</text>
</g>
<!-- n10&#45;&gt;n8 -->
<g id="edge13" class="edge">
<title>n10&#45;&gt;n8</title>
<path fill="none" stroke="black" d="M448.63,-197.61C472.84,-210.24 474.56,-222.87 453.77,-235.5"/>
<polygon fill="black" stroke="black" points="451.88,-232.55 444.7,-240.34 455.17,-238.72 451.88,-232.55"/>
</g>
<!-- n10&#45;&gt;n1 -->
<g id="edge15" class="edge">
<title>n10&#45;&gt;n1</title>
<path fill="none" stroke="green" d="M488.5,-182C550.62,-182 636.65,-182 701.11,-182"/>
<polygon fill="green" stroke="green" points="701.26,-185.5 711.26,-182 701.26,-178.5 701.26,-185.5"/>
<text text-anchor="middle" x="599.99" y="-185.8" font-family="Times,serif" font-size="14.00">&#45;ALMOST_FULL</text>
</g>
<!-- n2 -->
<g id="node6" class="node">
<title>n2</title>
<ellipse fill="bisque" stroke="black" cx="190" cy="-136" rx="27" ry="18"/>
<text text-anchor="middle" x="190" y="-132.3" font-family="Times,serif" font-size="14.00">_1</text>
</g>
<!-- n1&#45;&gt;n2 -->
<g id="edge1" class="edge">
<title>n1&#45;&gt;n2</title>
<path fill="none" stroke="black" d="M717.75,-174.94C656.49,-169.16 566.84,-161 488.49,-155 394.44,-147.8 283.52,-141.22 227.42,-138.03"/>
<polygon fill="black" stroke="black" points="227.46,-134.53 217.28,-137.46 227.07,-141.52 227.46,-134.53"/>
</g>
<!-- submodule_1_clk -->
<g id="node4" class="node">
<title>submodule_1_clk</title>
<polygon fill="bisque" stroke="transparent" points="479.24,-107.5 335.24,-107.5 335.24,-44.5 479.24,-44.5 479.24,-107.5"/>
<polygon fill="bisque" stroke="transparent" points="335.24,-44.5 335.24,-107.5 479.24,-107.5 479.24,-44.5 335.24,-44.5"/>
<polygon fill="none" stroke="black" points="335.24,-86 335.24,-107 479.24,-107 479.24,-86 335.24,-86"/>
<text text-anchor="start" x="365.24" y="-93.8" font-family="Times,serif" font-weight="bold" font-size="14.00">fp_mul #()</text>
<polygon fill="none" stroke="black" points="335.24,-65 335.24,-86 363.24,-86 363.24,-65 335.24,-65"/>
<text text-anchor="start" x="338.24" y="-71.8" font-family="Times,serif" font-size="14.00">a&#39;0</text>
<polygon fill="none" stroke="black" points="335.24,-44 335.24,-65 363.24,-65 363.24,-44 335.24,-44"/>
<text text-anchor="start" x="338.24" y="-50.8" font-family="Times,serif" font-size="14.00">b&#39;0</text>
<polygon fill="none" stroke="black" points="363.24,-44 363.24,-86 418.24,-86 418.24,-44 363.24,-44"/>
<text text-anchor="start" x="366.24" y="-68.8" font-family="Times,serif" font-size="14.00">fp_mul</text>
<text text-anchor="start" x="380.24" y="-53.8" font-family="Times,serif" font-size="14.00">clk</text>
<polygon fill="none" stroke="black" points="418.24,-44 418.24,-86 479.24,-86 479.24,-44 418.24,-44"/>
<text text-anchor="start" x="421.24" y="-61.3" font-family="Times,serif" font-size="14.00">result&#39;8</text>
</g>
<!-- submodule_1_clk&#45;&gt;n10 -->
<g id="edge12" class="edge">
<title>submodule_1_clk:result&#45;&gt;n10</title>
<path fill="none" stroke="black" d="M433.29,-157.13C468.81,-123.17 523.38,-65 480.24,-65"/>
<polygon fill="black" stroke="black" points="430.47,-154.97 425.61,-164.38 435.28,-160.06 430.47,-154.97"/>
</g>
<!-- n0 -->
<g id="node5" class="node">
<title>n0</title>
<polygon fill="#a2cd5a" stroke="black" points="42,-56 0,-56 0,-32 42,-32 54,-44 42,-56"/>
<text text-anchor="middle" x="27" y="-40.3" font-family="Times,serif" font-size="14.00">f</text>
</g>
<!-- n3 -->
<g id="node7" class="node">
<title>n3</title>
<ellipse fill="bisque" stroke="black" cx="190" cy="-72" rx="27" ry="18"/>
<text text-anchor="middle" x="190" y="-68.3" font-family="Times,serif" font-size="14.00">_2</text>
</g>
<!-- n0&#45;&gt;n3 -->
<g id="edge2" class="edge">
<title>n0:e&#45;&gt;n3</title>
<path fill="none" stroke="black" d="M54,-44C73.25,-44 121.61,-55.06 154.9,-63.27"/>
<polygon fill="black" stroke="black" points="154.15,-66.69 164.7,-65.72 155.84,-59.9 154.15,-66.69"/>
</g>
<!-- n4 -->
<g id="node8" class="node">
<title>n4</title>
<ellipse fill="bisque" stroke="black" cx="190" cy="-18" rx="27" ry="18"/>
<text text-anchor="middle" x="190" y="-14.3" font-family="Times,serif" font-size="14.00">_3</text>
</g>
<!-- n0&#45;&gt;n4 -->
<g id="edge3" class="edge">
<title>n0:e&#45;&gt;n4</title>
<path fill="none" stroke="black" d="M54,-44C89.13,-44 128.5,-35.4 155.61,-28.1"/>
<polygon fill="black" stroke="black" points="156.67,-31.43 165.37,-25.38 154.79,-24.69 156.67,-31.43"/>
</g>
<!-- n2&#45;&gt;n8 -->
<g id="edge9" class="edge">
<title>n2&#45;&gt;n8</title>
<path fill="none" stroke="black" d="M210.63,-147.69C235.43,-162.37 279.54,-188.16 318,-209 333.78,-217.55 351.35,-226.61 366.64,-234.34"/>
<polygon fill="black" stroke="black" points="365.32,-237.59 375.83,-238.96 368.47,-231.34 365.32,-237.59"/>
</g>
<!-- n2&#45;&gt;n10 -->
<g id="edge11" class="edge">
<title>n2&#45;&gt;n10</title>
<path fill="none" stroke="black" d="M216.11,-141.37C245.89,-147.73 296.71,-158.59 338.33,-167.49"/>
<polygon fill="black" stroke="black" points="337.63,-170.92 348.14,-169.58 339.1,-164.07 337.63,-170.92"/>
</g>
<!-- n2&#45;&gt;submodule_1_clk -->
<g id="edge4" class="edge">
<title>n2&#45;&gt;submodule_1_clk:a</title>
<path fill="none" stroke="black" d="M212.38,-125.79C243.36,-111.14 299.7,-85.05 324.24,-77.26"/>
<polygon fill="black" stroke="black" points="325.26,-80.62 334.24,-75 323.72,-73.79 325.26,-80.62"/>
</g>
<!-- n2&#45;&gt;submodule_1_clk -->
<g id="edge6" class="edge">
<title>n2&#45;&gt;submodule_1_clk:b</title>
<path fill="none" stroke="black" d="M208.72,-122.83C237.12,-102.18 292.79,-63.72 323.96,-55.55"/>
<polygon fill="black" stroke="black" points="324.88,-58.95 334.24,-54 323.83,-52.03 324.88,-58.95"/>
</g>
<!-- n3&#45;&gt;submodule_1_clk -->
<g id="edge5" class="edge">
<title>n3&#45;&gt;submodule_1_clk:a</title>
<path fill="none" stroke="black" d="M217.14,-72.88C243.49,-73.69 285.66,-74.8 324.05,-74.98"/>
<polygon fill="black" stroke="black" points="324.23,-78.48 334.24,-75 324.25,-71.48 324.23,-78.48"/>
</g>
<!-- n4&#45;&gt;submodule_1_clk -->
<g id="edge7" class="edge">
<title>n4&#45;&gt;submodule_1_clk:b</title>
<path fill="none" stroke="black" d="M213.39,-27.27C239.09,-37.12 283.03,-51.58 324.14,-53.73"/>
<polygon fill="black" stroke="black" points="324.15,-57.23 334.24,-54 324.34,-50.23 324.15,-57.23"/>
</g>
<!-- n9 -->
<g id="node9" class="node">
<title>n9</title>
<ellipse fill="bisque" stroke="black" cx="190" cy="-299" rx="27" ry="18"/>
<text text-anchor="middle" x="190" y="-295.3" font-family="Times,serif" font-size="14.00">_4</text>
</g>
<!-- n9&#45;&gt;n8 -->
<g id="edge8" class="edge">
<title>n9&#45;&gt;n8</title>
<path fill="none" stroke="black" d="M216.11,-293.75C248.62,-286.95 306.24,-274.91 349.55,-265.85"/>
<polygon fill="black" stroke="black" points="350.32,-269.27 359.39,-263.79 348.89,-262.42 350.32,-269.27"/>
</g>
<!-- n11 -->
<g id="node10" class="node">
<title>n11</title>
<ellipse fill="bisque" stroke="black" cx="190" cy="-245" rx="27" ry="18"/>
<text text-anchor="middle" x="190" y="-241.3" font-family="Times,serif" font-size="14.00">_5</text>
</g>
<!-- n11&#45;&gt;n8 -->
<g id="edge10" class="edge">
<title>n11&#45;&gt;n8</title>
<path fill="none" stroke="black" d="M216.96,-246.09C247.44,-247.36 299.1,-249.52 340.75,-251.26"/>
<polygon fill="black" stroke="black" points="340.7,-254.76 350.84,-251.68 340.99,-247.77 340.7,-254.76"/>
</g>
</g>
</svg>
