<?xml version="1.0" encoding="UTF-8" standalone="no"?>
<!-- Generated by graphviz version 2.43.0 (0)
 -->

<!-- Title: fifo_infer #() Pages: 1 -->

<svg
   width="765pt"
   height="217pt"
   viewBox="0.00 0.00 765.00 216.81"
   version="1.1"
   id="svg29"
   sodipodi:docname="fifo_inferv2_3.svg"
   inkscape:version="1.4 (e7c3feb100, 2024-10-09)"
   xmlns:inkscape="http://www.inkscape.org/namespaces/inkscape"
   xmlns:sodipodi="http://sodipodi.sourceforge.net/DTD/sodipodi-0.dtd"
   xmlns="http://www.w3.org/2000/svg"
   xmlns:svg="http://www.w3.org/2000/svg">
  <defs
     id="defs29" />
  <sodipodi:namedview
     id="namedview29"
     pagecolor="#ffffff"
     bordercolor="#000000"
     borderopacity="0.25"
     inkscape:showpageshadow="2"
     inkscape:pageopacity="0.0"
     inkscape:pagecheckerboard="0"
     inkscape:deskcolor="#d1d1d1"
     inkscape:document-units="pt"
     inkscape:zoom="2.0333393"
     inkscape:cx="362.45795"
     inkscape:cy="108.1964"
     inkscape:window-width="3840"
     inkscape:window-height="2160"
     inkscape:window-x="0"
     inkscape:window-y="0"
     inkscape:window-maximized="0"
     inkscape:current-layer="svg29" />
  <g
     id="node1"
     class="node"
     transform="translate(4,212.81)">
    <title
       id="title2">submodule_0_clk</title>
    <polygon
       fill="#ffe4c4"
       stroke="transparent"
       points="162,-37.31 505,-37.31 505,-100.31 162,-100.31 "
       id="polygon2" />
    <polygon
       fill="#ffe4c4"
       stroke="transparent"
       points="505,-100.31 505,-37.31 162,-37.31 162,-100.31 "
       id="polygon3" />
    <polygon
       fill="none"
       stroke="#000000"
       points="505.5,-99.81 505.5,-78.81 162.5,-78.81 162.5,-99.81 "
       id="polygon4" />
    <text
       text-anchor="start"
       x="165.5"
       y="-86.610001"
       font-family="Times, serif"
       font-weight="bold"
       font-size="14px"
       id="text4">FIFO #(T: type float #(), ALMOST_FULL: 8)</text>
    <polygon
       fill="none"
       stroke="#000000"
       points="317.5,-78.81 317.5,-57.81 162.5,-57.81 162.5,-78.81 "
       id="polygon5" />
    <text
       text-anchor="start"
       x="216"
       y="-64.610001"
       font-family="Times, serif"
       font-size="14px"
       id="text5">push'0</text>
    <polygon
       fill="none"
       stroke="#000000"
       points="317.5,-57.81 317.5,-36.81 162.5,-36.81 162.5,-57.81 "
       id="polygon6" />
    <text
       text-anchor="start"
       x="197"
       y="-43.610001"
       font-family="Times, serif"
       font-size="14px"
       id="text6">push_data'0</text>
    <polygon
       fill="none"
       stroke="#000000"
       points="378.5,-78.81 378.5,-36.81 317.5,-36.81 317.5,-78.81 "
       id="polygon7" />
    <text
       text-anchor="start"
       x="336.5"
       y="-61.610001"
       font-family="Times, serif"
       font-size="14px"
       id="text7">fifo</text>
    <text
       text-anchor="start"
       x="337.5"
       y="-46.610001"
       font-family="Times, serif"
       font-size="14px"
       id="text8">clk</text>
    <polygon
       fill="none"
       stroke="#000000"
       points="505.5,-78.81 505.5,-36.81 378.5,-36.81 378.5,-78.81 "
       id="polygon8" />
    <text
       text-anchor="start"
       x="397.5"
       y="-54.110001"
       font-family="Times, serif"
       font-size="14px"
       id="text9">may_push'-8</text>
  </g>
  <g
     id="node2"
     class="node"
     transform="translate(4,212.81)">
    <title
       id="title9">submodule_1_clk</title>
    <polygon
       fill="#ffe4c4"
       stroke="transparent"
       points="613,-48.31 757,-48.31 757,-111.31 613,-111.31 "
       id="polygon9" />
    <polygon
       fill="#ffe4c4"
       stroke="transparent"
       points="757,-111.31 757,-48.31 613,-48.31 613,-111.31 "
       id="polygon10" />
    <polygon
       fill="none"
       stroke="#000000"
       points="757,-110.81 757,-89.81 613,-89.81 613,-110.81 "
       id="polygon11" />
    <text
       text-anchor="start"
       x="643"
       y="-97.610001"
       font-family="Times, serif"
       font-weight="bold"
       font-size="14px"
       id="text11">fp_mul #()</text>
    <polygon
       fill="none"
       stroke="#000000"
       points="641,-89.81 641,-68.81 613,-68.81 613,-89.81 "
       id="polygon12" />
    <text
       text-anchor="start"
       x="616"
       y="-75.610001"
       font-family="Times, serif"
       font-size="14px"
       id="text12">a'0</text>
    <polygon
       fill="none"
       stroke="#000000"
       points="641,-68.81 641,-47.81 613,-47.81 613,-68.81 "
       id="polygon13" />
    <text
       text-anchor="start"
       x="616"
       y="-54.610001"
       font-family="Times, serif"
       font-size="14px"
       id="text13">b'0</text>
    <polygon
       fill="none"
       stroke="#000000"
       points="696,-89.81 696,-47.81 641,-47.81 641,-89.81 "
       id="polygon14" />
    <text
       text-anchor="start"
       x="644"
       y="-72.610001"
       font-family="Times, serif"
       font-size="14px"
       id="text14">fp_mul</text>
    <text
       text-anchor="start"
       x="658"
       y="-57.610001"
       font-family="Times, serif"
       font-size="14px"
       id="text15">clk</text>
    <polygon
       fill="none"
       stroke="#000000"
       points="757,-89.81 757,-47.81 696,-47.81 696,-89.81 "
       id="polygon15" />
    <text
       text-anchor="start"
       x="699"
       y="-65.110001"
       font-family="Times, serif"
       font-size="14px"
       id="text16">result'8</text>
  </g>
  <g
     id="edge3"
     class="edge"
     transform="translate(4,212.81)">
    <title
       id="title16">submodule_0_clk:may_push-&gt;submodule_1_clk:a</title>
    <path
       fill="none"
       stroke="#000000"
       d="m 505,-57.81 c 45.37,0 57.42,-18.07 97.98,-20.69"
       id="path16" />
    <polygon
       fill="#000000"
       stroke="#000000"
       points="603.11,-75 602.9,-81.99 613,-78.81 "
       id="polygon16" />
  </g>
  <g
     id="edge5"
     class="edge"
     transform="translate(4,212.81)">
    <title
       id="title17">submodule_0_clk:may_push-&gt;submodule_1_clk:b</title>
    <path
       fill="none"
       stroke="#000000"
       d="m 505,-57.81 c 44.44,0 58.02,0 97.88,0"
       id="path17" />
    <polygon
       fill="#000000"
       stroke="#000000"
       points="603,-54.31 603,-61.31 613,-57.81 "
       id="polygon17" />
  </g>
  <g
     id="edge9"
     class="edge"
     transform="translate(4,212.81)">
    <title
       id="title18">submodule_1_clk:result-&gt;submodule_0_clk:push_data</title>
    <path
       fill="none"
       stroke="#000000"
       d="M 727,-46.81 C 727,4.2 294.96,16.93 244.32,-26.95"
       id="path18" />
    <polygon
       fill="#000000"
       stroke="#000000"
       points="247.36,-28.7 241.21,-25.35 239.5,-35.81 "
       id="polygon18" />
  </g>
  <g
     id="node3"
     class="node"
     transform="translate(4,212.81)">
    <title
       id="title19">n0</title>
    <polygon
       fill="#a2cd5a"
       stroke="#000000"
       points="0,-147.81 42,-147.81 54,-159.81 42,-171.81 0,-171.81 "
       id="polygon19" />
    <text
       text-anchor="middle"
       x="27"
       y="-156.11"
       font-family="Times, serif"
       font-size="14px"
       id="text19">f</text>
  </g>
  <g
     id="node4"
     class="node"
     transform="translate(4,212.81)">
    <title
       id="title20">n2</title>
    <ellipse
       fill="#ffe4c4"
       stroke="#000000"
       cx="333.5"
       cy="-190.81"
       rx="27"
       ry="18"
       id="ellipse20" />
    <text
       text-anchor="middle"
       x="333.5"
       y="-187.11"
       font-family="Times, serif"
       font-size="14px"
       id="text20">_1</text>
  </g>
  <g
     id="edge1"
     class="edge"
     transform="translate(4,212.81)">
    <title
       id="title21">n0:e-&gt;n2</title>
    <path
       fill="none"
       stroke="#000000"
       d="m 54,-159.81 c 87.84,0 190.32,-15.42 243.08,-24.51"
       id="path21" />
    <polygon
       fill="#000000"
       stroke="#000000"
       points="298.01,-180.93 296.81,-187.82 307.26,-186.1 "
       id="polygon21" />
  </g>
  <g
     id="node5"
     class="node"
     transform="translate(4,212.81)">
    <title
       id="title22">n3</title>
    <ellipse
       fill="#ffe4c4"
       stroke="#000000"
       cx="333.5"
       cy="-136.81"
       rx="27"
       ry="18"
       id="ellipse22" />
    <text
       text-anchor="middle"
       x="333.5"
       y="-133.11"
       font-family="Times, serif"
       font-size="14px"
       id="text22">_2</text>
  </g>
  <g
     id="edge2"
     class="edge"
     transform="translate(4,212.81)">
    <title
       id="title23">n0:e-&gt;n3</title>
    <path
       fill="none"
       stroke="#000000"
       d="m 54,-159.81 c 87.37,0 189.64,11.38 242.61,18.13"
       id="path23" />
    <polygon
       fill="#000000"
       stroke="#000000"
       points="296.47,-138.17 297.37,-145.11 306.83,-140.35 "
       id="polygon23" />
  </g>
  <g
     id="edge4"
     class="edge"
     transform="translate(4,212.81)">
    <title
       id="title24">n2-&gt;submodule_1_clk:a</title>
    <path
       fill="none"
       stroke="#000000"
       d="m 360.77,-190.71 c 34.5,1.02 96.31,5.96 144.23,26.9 52.69,23.02 47.75,78.03 97.96,84.4"
       id="path24" />
    <polygon
       fill="#000000"
       stroke="#000000"
       points="602.81,-75.92 603.23,-82.9 613,-78.81 "
       id="polygon24" />
  </g>
  <g
     id="edge6"
     class="edge"
     transform="translate(4,212.81)">
    <title
       id="title25">n3-&gt;submodule_1_clk:b</title>
    <path
       fill="none"
       stroke="#000000"
       d="m 360.45,-135.06 c 33.9,2.81 94.78,9.7 144.55,25.25 47.37,14.81 53.98,47.16 97.74,51.51"
       id="path25" />
    <polygon
       fill="#000000"
       stroke="#000000"
       points="602.84,-54.79 603.18,-61.78 613,-57.81 "
       id="polygon25" />
  </g>
  <g
     id="node6"
     class="node"
     transform="translate(4,212.81)">
    <title
       id="title26">n8</title>
    <ellipse
       fill="#ffe4c4"
       stroke="#000000"
       cx="27"
       cy="-98.809998"
       rx="27"
       ry="18"
       id="ellipse26" />
    <text
       text-anchor="middle"
       x="27"
       y="-95.110001"
       font-family="Times, serif"
       font-size="14px"
       id="text26">_3</text>
  </g>
  <g
     id="edge7"
     class="edge"
     transform="translate(4,212.81)">
    <title
       id="title27">n8-&gt;submodule_0_clk:push</title>
    <path
       fill="none"
       stroke="#000000"
       d="m 50.87,-90.17 c 24.11,8.38 63.68,20.12 100.75,22.08"
       id="path27" />
    <polygon
       fill="#000000"
       stroke="#000000"
       points="151.91,-64.58 152.1,-71.58 162,-67.81 "
       id="polygon27" />
  </g>
  <g
     id="node7"
     class="node"
     transform="translate(4,212.81)">
    <title
       id="title28">n10</title>
    <ellipse
       fill="#ffe4c4"
       stroke="#000000"
       cx="27"
       cy="-44.810001"
       rx="27"
       ry="18"
       id="ellipse28" />
    <text
       text-anchor="middle"
       x="27"
       y="-41.110001"
       font-family="Times, serif"
       font-size="14px"
       id="text28">_4</text>
  </g>
  <g
     id="edge8"
     class="edge"
     transform="translate(4,212.81)">
    <title
       id="title29">n10-&gt;submodule_0_clk:push</title>
    <path
       fill="none"
       stroke="#000000"
       d="m 52.48,-51.59 c 24.41,-6.2 63.36,-14.62 99.43,-16.02"
       id="path29" />
    <polygon
       fill="#000000"
       stroke="#000000"
       points="152.07,-64.11 151.93,-71.11 162,-67.81 "
       id="polygon29" />
  </g>
</svg>
