<?xml version="1.0" encoding="UTF-8" standalone="no"?>
<!DOCTYPE svg PUBLIC "-//W3C//DTD SVG 1.1//EN"
 "http://www.w3.org/Graphics/SVG/1.1/DTD/svg11.dtd">
<!-- Generated by graphviz version 2.43.0 (0)
 -->
<!-- Title: fifo_infer #() Pages: 1 -->
<svg width="971pt" height="310pt"
 viewBox="0.00 0.00 970.67 310.00" xmlns="http://www.w3.org/2000/svg" xmlns:xlink="http://www.w3.org/1999/xlink">
<g id="graph0" class="graph" transform="scale(1 1) rotate(0) translate(4 306)">
<title>fifo_infer #()</title>
<polygon fill="white" stroke="transparent" points="-4,4 -4,-306 966.67,-306 966.67,4 -4,4"/>
<g id="clust1" class="cluster">
<title>cluster_submodule_0</title>
<polygon fill="lightgrey" stroke="lightgrey" points="155,-19 155,-166 717.67,-166 717.67,-19 155,-19"/>
<text text-anchor="middle" x="436.34" y="-150.8" font-family="Times,serif" font-size="14.00">FIFO #(T: type float #(), ALMOST_FULL: ?)</text>
</g>
<!-- n7 -->
<g id="node1" class="node">
<title>n7</title>
<ellipse fill="bisque" stroke="black" cx="244.24" cy="-45" rx="56.59" ry="18"/>
<text text-anchor="middle" x="244.24" y="-41.3" font-family="Times,serif" font-size="14.00">_fifo_push</text>
</g>
<!-- n9 -->
<g id="node2" class="node">
<title>n9</title>
<ellipse fill="bisque" stroke="black" cx="244.24" cy="-117" rx="81.49" ry="18"/>
<text text-anchor="middle" x="244.24" y="-113.3" font-family="Times,serif" font-size="14.00">_fifo_push_data</text>
</g>
<!-- n7&#45;&gt;n9 -->
<g id="edge13" class="edge">
<title>n7&#45;&gt;n9</title>
<path fill="none" stroke="black" d="M215.25,-60.75C201,-71.5 198.1,-82.26 206.56,-93.01"/>
<polygon fill="black" stroke="black" points="204.16,-95.57 213.75,-100.08 209.07,-90.58 204.16,-95.57"/>
</g>
<!-- n1 -->
<g id="node3" class="node">
<title>n1</title>
<ellipse fill="bisque" stroke="black" cx="629.08" cy="-100" rx="80.69" ry="18"/>
<text text-anchor="middle" x="629.08" y="-96.3" font-family="Times,serif" font-size="14.00">_fifo_may_push</text>
</g>
<!-- n7&#45;&gt;n1 -->
<g id="edge15" class="edge">
<title>n7&#45;&gt;n1</title>
<path fill="none" stroke="green" d="M299.75,-41.24C350.61,-38.92 428.36,-38.43 494.49,-51 525.37,-56.87 558.55,-69.01 584.13,-79.74"/>
<polygon fill="green" stroke="green" points="582.96,-83.05 593.53,-83.76 585.72,-76.61 582.96,-83.05"/>
<text text-anchor="middle" x="436.99" y="-54.8" font-family="Times,serif" font-size="14.00">&#45;ALMOST_FULL</text>
</g>
<!-- n9&#45;&gt;n7 -->
<g id="edge12" class="edge">
<title>n9&#45;&gt;n7</title>
<path fill="none" stroke="black" d="M274.74,-100.08C288.3,-89.22 290.28,-78.37 280.7,-67.51"/>
<polygon fill="black" stroke="black" points="282.99,-64.87 273.23,-60.75 278.3,-70.06 282.99,-64.87"/>
</g>
<!-- n9&#45;&gt;n1 -->
<g id="edge14" class="edge">
<title>n9&#45;&gt;n1</title>
<path fill="none" stroke="green" d="M324.1,-113.5C386.85,-110.71 474.62,-106.81 539.73,-103.92"/>
<polygon fill="green" stroke="green" points="540.14,-107.41 549.98,-103.47 539.83,-100.42 540.14,-107.41"/>
<text text-anchor="middle" x="436.99" y="-114.8" font-family="Times,serif" font-size="14.00">&#45;ALMOST_FULL</text>
</g>
<!-- n1&#45;&gt;n7 -->
<g id="edge8" class="edge">
<title>n1&#45;&gt;n7</title>
<path fill="none" stroke="black" d="M555.57,-92.49C505.9,-87.04 438.57,-79.06 379.49,-70 354.06,-66.1 326.07,-61.02 302.26,-56.45"/>
<polygon fill="black" stroke="black" points="302.82,-53 292.33,-54.53 301.49,-59.87 302.82,-53"/>
</g>
<!-- n1&#45;&gt;n9 -->
<g id="edge10" class="edge">
<title>n1&#45;&gt;n9</title>
<path fill="none" stroke="black" d="M549.62,-96.85C500.65,-95.59 436.33,-95.21 379.49,-99 360.21,-100.29 339.47,-102.6 320.2,-105.15"/>
<polygon fill="black" stroke="black" points="319.71,-101.69 310.27,-106.5 320.65,-108.62 319.71,-101.69"/>
</g>
<!-- submodule_1_clk -->
<g id="node4" class="node">
<title>submodule_1_clk</title>
<polygon fill="bisque" stroke="transparent" points="962.67,-245.5 818.67,-245.5 818.67,-182.5 962.67,-182.5 962.67,-245.5"/>
<polygon fill="bisque" stroke="transparent" points="818.67,-182.5 818.67,-245.5 962.67,-245.5 962.67,-182.5 818.67,-182.5"/>
<polygon fill="none" stroke="black" points="818.67,-224 818.67,-245 962.67,-245 962.67,-224 818.67,-224"/>
<text text-anchor="start" x="848.67" y="-231.8" font-family="Times,serif" font-weight="bold" font-size="14.00">fp_mul #()</text>
<polygon fill="none" stroke="black" points="818.67,-203 818.67,-224 846.67,-224 846.67,-203 818.67,-203"/>
<text text-anchor="start" x="821.67" y="-209.8" font-family="Times,serif" font-size="14.00">a&#39;0</text>
<polygon fill="none" stroke="black" points="818.67,-182 818.67,-203 846.67,-203 846.67,-182 818.67,-182"/>
<text text-anchor="start" x="821.67" y="-188.8" font-family="Times,serif" font-size="14.00">b&#39;0</text>
<polygon fill="none" stroke="black" points="846.67,-182 846.67,-224 901.67,-224 901.67,-182 846.67,-182"/>
<text text-anchor="start" x="849.67" y="-206.8" font-family="Times,serif" font-size="14.00">fp_mul</text>
<text text-anchor="start" x="863.67" y="-191.8" font-family="Times,serif" font-size="14.00">clk</text>
<polygon fill="none" stroke="black" points="901.67,-182 901.67,-224 962.67,-224 962.67,-182 901.67,-182"/>
<text text-anchor="start" x="904.67" y="-199.3" font-family="Times,serif" font-size="14.00">result&#39;8</text>
</g>
<!-- n1&#45;&gt;submodule_1_clk -->
<g id="edge3" class="edge">
<title>n1&#45;&gt;submodule_1_clk:a</title>
<path fill="none" stroke="black" d="M655.38,-117.16C696.72,-144.95 777.3,-197.92 808.72,-210.35"/>
<polygon fill="black" stroke="black" points="808.11,-213.81 818.67,-213 809.91,-207.04 808.11,-213.81"/>
</g>
<!-- n1&#45;&gt;submodule_1_clk -->
<g id="edge5" class="edge">
<title>n1&#45;&gt;submodule_1_clk:b</title>
<path fill="none" stroke="black" d="M709.57,-101.32C762.78,-106.65 824.42,-123.24 831.91,-171.02"/>
<polygon fill="black" stroke="black" points="828.42,-171.29 832.67,-181 835.4,-170.76 828.42,-171.29"/>
</g>
<!-- submodule_1_clk&#45;&gt;n9 -->
<g id="edge11" class="edge">
<title>submodule_1_clk:result&#45;&gt;n9</title>
<path fill="none" stroke="black" d="M932.67,-181C932.67,-130.33 868.19,-171.26 818.67,-182 793,-187.56 789.4,-197.14 764.67,-206 744.27,-213.31 739.15,-216.08 717.67,-219 643.16,-229.11 622.69,-231.15 548.49,-219 453.46,-203.45 348.08,-162.19 289.94,-137.17"/>
<polygon fill="black" stroke="black" points="291.25,-133.92 280.68,-133.15 288.46,-140.34 291.25,-133.92"/>
</g>
<!-- n0 -->
<g id="node5" class="node">
<title>n0</title>
<polygon fill="#a2cd5a" stroke="black" points="259.24,-249 217.24,-249 217.24,-225 259.24,-225 271.24,-237 259.24,-249"/>
<text text-anchor="middle" x="244.24" y="-233.3" font-family="Times,serif" font-size="14.00">f</text>
</g>
<!-- n2 -->
<g id="node6" class="node">
<title>n2</title>
<ellipse fill="bisque" stroke="black" cx="629.08" cy="-284" rx="27" ry="18"/>
<text text-anchor="middle" x="629.08" y="-280.3" font-family="Times,serif" font-size="14.00">_1</text>
</g>
<!-- n0&#45;&gt;n2 -->
<g id="edge1" class="edge">
<title>n0:e&#45;&gt;n2</title>
<path fill="none" stroke="black" d="M272.24,-237C320.37,-237 331.79,-245.59 379.49,-252 455.22,-262.17 544.03,-273.45 592.34,-279.52"/>
<polygon fill="black" stroke="black" points="591.94,-283 602.3,-280.78 592.81,-276.06 591.94,-283"/>
</g>
<!-- n3 -->
<g id="node7" class="node">
<title>n3</title>
<ellipse fill="bisque" stroke="black" cx="629.08" cy="-192" rx="27" ry="18"/>
<text text-anchor="middle" x="629.08" y="-188.3" font-family="Times,serif" font-size="14.00">_2</text>
</g>
<!-- n0&#45;&gt;n3 -->
<g id="edge2" class="edge">
<title>n0:e&#45;&gt;n3</title>
<path fill="none" stroke="black" d="M272.24,-237C390.8,-237 529.84,-212.11 593.31,-199.35"/>
<polygon fill="black" stroke="black" points="594.09,-202.76 603.19,-197.34 592.7,-195.9 594.09,-202.76"/>
</g>
<!-- n2&#45;&gt;submodule_1_clk -->
<g id="edge4" class="edge">
<title>n2&#45;&gt;submodule_1_clk:a</title>
<path fill="none" stroke="black" d="M655.86,-280.93C683.69,-276.92 728.86,-268.4 764.67,-252 788.12,-241.26 789.23,-219.64 808.69,-214.24"/>
<polygon fill="black" stroke="black" points="809.18,-217.71 818.67,-213 808.32,-210.76 809.18,-217.71"/>
</g>
<!-- n3&#45;&gt;submodule_1_clk -->
<g id="edge6" class="edge">
<title>n3&#45;&gt;submodule_1_clk:b</title>
<path fill="none" stroke="black" d="M656.32,-192C690.61,-192 752.86,-192 808.39,-192"/>
<polygon fill="black" stroke="black" points="808.67,-195.5 818.67,-192 808.67,-188.5 808.67,-195.5"/>
</g>
<!-- n8 -->
<g id="node8" class="node">
<title>n8</title>
<ellipse fill="bisque" stroke="black" cx="27" cy="-72" rx="27" ry="18"/>
<text text-anchor="middle" x="27" y="-68.3" font-family="Times,serif" font-size="14.00">_3</text>
</g>
<!-- n8&#45;&gt;n7 -->
<g id="edge7" class="edge">
<title>n8&#45;&gt;n7</title>
<path fill="none" stroke="black" d="M53.96,-68.74C85.26,-64.82 138.91,-58.09 181.12,-52.79"/>
<polygon fill="black" stroke="black" points="181.82,-56.23 191.31,-51.51 180.95,-49.29 181.82,-56.23"/>
</g>
<!-- n10 -->
<g id="node9" class="node">
<title>n10</title>
<ellipse fill="bisque" stroke="black" cx="27" cy="-18" rx="27" ry="18"/>
<text text-anchor="middle" x="27" y="-14.3" font-family="Times,serif" font-size="14.00">_4</text>
</g>
<!-- n10&#45;&gt;n7 -->
<g id="edge9" class="edge">
<title>n10&#45;&gt;n7</title>
<path fill="none" stroke="black" d="M53.96,-21.26C85.26,-25.18 138.91,-31.91 181.12,-37.21"/>
<polygon fill="black" stroke="black" points="180.95,-40.71 191.31,-38.49 181.82,-33.77 180.95,-40.71"/>
</g>
</g>
</svg>
