<?xml version="1.0" encoding="UTF-8" standalone="no"?>
<!DOCTYPE svg PUBLIC "-//W3C//DTD SVG 1.1//EN"
 "http://www.w3.org/Graphics/SVG/1.1/DTD/svg11.dtd">
<!-- Generated by graphviz version 2.43.0 (0)
 -->
<!-- Title: fifo_infer #() Pages: 1 -->
<svg width="1267pt" height="261pt"
 viewBox="0.00 0.00 1266.75 261.00" xmlns="http://www.w3.org/2000/svg" xmlns:xlink="http://www.w3.org/1999/xlink">
<g id="graph0" class="graph" transform="scale(1 1) rotate(0) translate(4 257)">
<title>fifo_infer #()</title>
<polygon fill="white" stroke="transparent" points="-4,4 -4,-257 1262.75,-257 1262.75,4 -4,4"/>
<g id="clust1" class="cluster">
<title>cluster_submodule_0</title>
<polygon fill="lightgrey" stroke="lightgrey" points="155,-8 155,-155 717.67,-155 717.67,-8 155,-8"/>
<text text-anchor="middle" x="436.34" y="-139.8" font-family="Times,serif" font-size="14.00">FIFO #(T: type float #(), ALMOST_FULL: ?)</text>
</g>
<g id="clust4" class="cluster">
<title>cluster_submodule_1</title>
<polygon fill="lightgrey" stroke="lightgrey" points="810.67,-76 810.67,-205 1250.75,-205 1250.75,-76 810.67,-76"/>
<text text-anchor="middle" x="1030.71" y="-189.8" font-family="Times,serif" font-size="14.00">fp_mul #()</text>
</g>
<!-- n7 -->
<g id="node1" class="node">
<title>n7</title>
<ellipse fill="bisque" stroke="black" cx="244.24" cy="-106" rx="56.59" ry="18"/>
<text text-anchor="middle" x="244.24" y="-102.3" font-family="Times,serif" font-size="14.00">_fifo_push</text>
</g>
<!-- n9 -->
<g id="node2" class="node">
<title>n9</title>
<ellipse fill="bisque" stroke="black" cx="244.24" cy="-34" rx="81.49" ry="18"/>
<text text-anchor="middle" x="244.24" y="-30.3" font-family="Times,serif" font-size="14.00">_fifo_push_data</text>
</g>
<!-- n7&#45;&gt;n9 -->
<g id="edge13" class="edge">
<title>n7&#45;&gt;n9</title>
<path fill="none" stroke="black" d="M206.78,-92.34C180.6,-79.88 176.32,-67.42 193.96,-54.95"/>
<polygon fill="black" stroke="black" points="196.09,-57.76 202.86,-49.61 192.48,-51.75 196.09,-57.76"/>
</g>
<!-- n1 -->
<g id="node3" class="node">
<title>n1</title>
<ellipse fill="bisque" stroke="black" cx="629.08" cy="-102" rx="80.69" ry="18"/>
<text text-anchor="middle" x="629.08" y="-98.3" font-family="Times,serif" font-size="14.00">_fifo_may_push</text>
</g>
<!-- n7&#45;&gt;n1 -->
<g id="edge17" class="edge">
<title>n7&#45;&gt;n1</title>
<path fill="none" stroke="green" d="M299.76,-102.51C324.14,-101.12 353.24,-99.68 379.49,-99 430.58,-97.67 443.38,-98.43 494.49,-99 508.81,-99.16 524,-99.42 538.8,-99.72"/>
<polygon fill="green" stroke="green" points="538.89,-103.22 548.97,-99.93 539.04,-96.22 538.89,-103.22"/>
<text text-anchor="middle" x="436.99" y="-102.8" font-family="Times,serif" font-size="14.00">&#45;ALMOST_FULL</text>
</g>
<!-- n9&#45;&gt;n7 -->
<g id="edge12" class="edge">
<title>n9&#45;&gt;n7</title>
<path fill="none" stroke="black" d="M285.63,-49.61C309.84,-62.24 311.56,-74.87 290.77,-87.5"/>
<polygon fill="black" stroke="black" points="288.88,-84.55 281.7,-92.34 292.17,-90.72 288.88,-84.55"/>
</g>
<!-- n9&#45;&gt;n1 -->
<g id="edge16" class="edge">
<title>n9&#45;&gt;n1</title>
<path fill="none" stroke="green" d="M325.44,-35.06C374.69,-37.03 438.79,-41.98 494.49,-54 524.5,-60.48 556.94,-72.02 582.34,-82.16"/>
<polygon fill="green" stroke="green" points="581.12,-85.44 591.7,-85.96 583.76,-78.96 581.12,-85.44"/>
<text text-anchor="middle" x="436.99" y="-57.8" font-family="Times,serif" font-size="14.00">&#45;ALMOST_FULL</text>
</g>
<!-- n1&#45;&gt;n7 -->
<g id="edge8" class="edge">
<title>n1&#45;&gt;n7</title>
<path fill="none" stroke="black" d="M560.94,-111.63C539.73,-114.24 516.17,-116.71 494.49,-118 443.47,-121.04 430.55,-120.28 379.49,-118 356.17,-116.96 330.65,-114.91 308.18,-112.79"/>
<polygon fill="black" stroke="black" points="308.38,-109.3 298.09,-111.82 307.71,-116.26 308.38,-109.3"/>
</g>
<!-- n1&#45;&gt;n9 -->
<g id="edge10" class="edge">
<title>n1&#45;&gt;n9</title>
<path fill="none" stroke="black" d="M552.23,-96.45C502.72,-92.02 436.88,-84.6 379.49,-73 352.83,-67.61 323.79,-59.47 299.55,-52.01"/>
<polygon fill="black" stroke="black" points="300.42,-48.62 289.83,-48.98 298.34,-55.3 300.42,-48.62"/>
</g>
<!-- n4 -->
<g id="node4" class="node">
<title>n4</title>
<ellipse fill="bisque" stroke="black" cx="875.22" cy="-156" rx="55.79" ry="18"/>
<text text-anchor="middle" x="875.22" y="-152.3" font-family="Times,serif" font-size="14.00">_fp_mul_a</text>
</g>
<!-- n1&#45;&gt;n4 -->
<g id="edge3" class="edge">
<title>n1&#45;&gt;n4</title>
<path fill="none" stroke="black" d="M687.01,-114.59C726.67,-123.37 779.31,-135.01 818.67,-143.71"/>
<polygon fill="black" stroke="black" points="818.11,-147.17 828.63,-145.92 819.62,-140.34 818.11,-147.17"/>
</g>
<!-- n5 -->
<g id="node5" class="node">
<title>n5</title>
<ellipse fill="bisque" stroke="black" cx="875.22" cy="-102" rx="56.59" ry="18"/>
<text text-anchor="middle" x="875.22" y="-98.3" font-family="Times,serif" font-size="14.00">_fp_mul_b</text>
</g>
<!-- n1&#45;&gt;n5 -->
<g id="edge5" class="edge">
<title>n1&#45;&gt;n5</title>
<path fill="none" stroke="black" d="M709.68,-102C741.68,-102 778.14,-102 808.58,-102"/>
<polygon fill="black" stroke="black" points="808.66,-105.5 818.66,-102 808.66,-98.5 808.66,-105.5"/>
</g>
<!-- n6 -->
<g id="node6" class="node">
<title>n6</title>
<ellipse fill="bisque" stroke="black" cx="1164.75" cy="-102" rx="77.99" ry="18"/>
<text text-anchor="middle" x="1164.75" y="-98.3" font-family="Times,serif" font-size="14.00">_fp_mul_result</text>
</g>
<!-- n4&#45;&gt;n6 -->
<g id="edge14" class="edge">
<title>n4&#45;&gt;n6</title>
<path fill="none" stroke="red" d="M924.02,-147.02C970.38,-138.32 1041.23,-125.01 1093.9,-115.12"/>
<polygon fill="red" stroke="red" points="1094.67,-118.54 1103.85,-113.25 1093.38,-111.66 1094.67,-118.54"/>
<text text-anchor="middle" x="1009.26" y="-138.8" font-family="Times,serif" font-size="14.00">poison</text>
</g>
<!-- n5&#45;&gt;n6 -->
<g id="edge15" class="edge">
<title>n5&#45;&gt;n6</title>
<path fill="none" stroke="red" d="M932,-102C973,-102 1029.52,-102 1076.48,-102"/>
<polygon fill="red" stroke="red" points="1076.65,-105.5 1086.65,-102 1076.65,-98.5 1076.65,-105.5"/>
<text text-anchor="middle" x="1009.26" y="-105.8" font-family="Times,serif" font-size="14.00">poison</text>
</g>
<!-- n6&#45;&gt;n9 -->
<g id="edge11" class="edge">
<title>n6&#45;&gt;n9</title>
<path fill="none" stroke="black" d="M1095.8,-93.52C1049.59,-87.9 987.03,-80.55 931.76,-75 737.7,-55.5 689.28,-47.79 494.49,-38 441.94,-35.36 383.08,-34.32 335.77,-33.97"/>
<polygon fill="black" stroke="black" points="335.57,-30.46 325.55,-33.9 335.52,-37.46 335.57,-30.46"/>
</g>
<!-- n0 -->
<g id="node7" class="node">
<title>n0</title>
<polygon fill="#a2cd5a" stroke="black" points="259.24,-212 217.24,-212 217.24,-188 259.24,-188 271.24,-200 259.24,-212"/>
<text text-anchor="middle" x="244.24" y="-196.3" font-family="Times,serif" font-size="14.00">f</text>
</g>
<!-- n2 -->
<g id="node8" class="node">
<title>n2</title>
<ellipse fill="bisque" stroke="black" cx="629.08" cy="-235" rx="27" ry="18"/>
<text text-anchor="middle" x="629.08" y="-231.3" font-family="Times,serif" font-size="14.00">_1</text>
</g>
<!-- n0&#45;&gt;n2 -->
<g id="edge1" class="edge">
<title>n0:e&#45;&gt;n2</title>
<path fill="none" stroke="black" d="M272.24,-200C303.68,-200 508.2,-221.92 592.18,-231.06"/>
<polygon fill="black" stroke="black" points="591.94,-234.56 602.27,-232.17 592.7,-227.6 591.94,-234.56"/>
</g>
<!-- n3 -->
<g id="node9" class="node">
<title>n3</title>
<ellipse fill="bisque" stroke="black" cx="629.08" cy="-181" rx="27" ry="18"/>
<text text-anchor="middle" x="629.08" y="-177.3" font-family="Times,serif" font-size="14.00">_2</text>
</g>
<!-- n0&#45;&gt;n3 -->
<g id="edge2" class="edge">
<title>n0:e&#45;&gt;n3</title>
<path fill="none" stroke="black" d="M272.24,-200C389.45,-200 528.06,-189.59 592.2,-184.18"/>
<polygon fill="black" stroke="black" points="592.54,-187.67 602.21,-183.33 591.95,-180.69 592.54,-187.67"/>
</g>
<!-- n2&#45;&gt;n4 -->
<g id="edge4" class="edge">
<title>n2&#45;&gt;n4</title>
<path fill="none" stroke="black" d="M653.92,-227.81C671.55,-222.44 696.15,-214.89 717.67,-208 754.22,-196.3 795.4,-182.6 826.34,-172.2"/>
<polygon fill="black" stroke="black" points="827.65,-175.45 836.01,-168.95 825.42,-168.82 827.65,-175.45"/>
</g>
<!-- n3&#45;&gt;n5 -->
<g id="edge6" class="edge">
<title>n3&#45;&gt;n5</title>
<path fill="none" stroke="black" d="M654.81,-175.51C672.46,-171.41 696.69,-165.44 717.67,-159 755.85,-147.29 798.38,-131.63 829.46,-119.69"/>
<polygon fill="black" stroke="black" points="831.06,-122.82 839.13,-115.95 828.54,-116.29 831.06,-122.82"/>
</g>
<!-- n8 -->
<g id="node10" class="node">
<title>n8</title>
<ellipse fill="bisque" stroke="black" cx="27" cy="-133" rx="27" ry="18"/>
<text text-anchor="middle" x="27" y="-129.3" font-family="Times,serif" font-size="14.00">_3</text>
</g>
<!-- n8&#45;&gt;n7 -->
<g id="edge7" class="edge">
<title>n8&#45;&gt;n7</title>
<path fill="none" stroke="black" d="M53.96,-129.74C85.26,-125.82 138.91,-119.09 181.12,-113.79"/>
<polygon fill="black" stroke="black" points="181.82,-117.23 191.31,-112.51 180.95,-110.29 181.82,-117.23"/>
</g>
<!-- n10 -->
<g id="node11" class="node">
<title>n10</title>
<ellipse fill="bisque" stroke="black" cx="27" cy="-79" rx="27" ry="18"/>
<text text-anchor="middle" x="27" y="-75.3" font-family="Times,serif" font-size="14.00">_4</text>
</g>
<!-- n10&#45;&gt;n7 -->
<g id="edge9" class="edge">
<title>n10&#45;&gt;n7</title>
<path fill="none" stroke="black" d="M53.96,-82.26C85.26,-86.18 138.91,-92.91 181.12,-98.21"/>
<polygon fill="black" stroke="black" points="180.95,-101.71 191.31,-99.49 181.82,-94.77 180.95,-101.71"/>
</g>
</g>
</svg>
