<?xml version="1.0" encoding="UTF-8" standalone="no"?>
<!DOCTYPE svg PUBLIC "-//W3C//DTD SVG 1.1//EN"
 "http://www.w3.org/Graphics/SVG/1.1/DTD/svg11.dtd">
<!-- Generated by graphviz version 2.43.0 (0)
 -->
<!-- Title: fifo_infer #() Pages: 1 -->
<svg width="765pt" height="217pt"
 viewBox="0.00 0.00 765.00 216.81" xmlns="http://www.w3.org/2000/svg" xmlns:xlink="http://www.w3.org/1999/xlink">
<g id="graph0" class="graph" transform="scale(1 1) rotate(0) translate(4 212.81)">
<title>fifo_infer #()</title>
<polygon fill="white" stroke="transparent" points="-4,4 -4,-212.81 761,-212.81 761,4 -4,4"/>
<!-- submodule_0_clk -->
<g id="node1" class="node">
<title>submodule_0_clk</title>
<polygon fill="bisque" stroke="transparent" points="505,-100.31 162,-100.31 162,-37.31 505,-37.31 505,-100.31"/>
<polygon fill="bisque" stroke="transparent" points="162,-37.31 162,-100.31 505,-100.31 505,-37.31 162,-37.31"/>
<polygon fill="none" stroke="black" points="162.5,-78.81 162.5,-99.81 505.5,-99.81 505.5,-78.81 162.5,-78.81"/>
<text text-anchor="start" x="165.5" y="-86.61" font-family="Times,serif" font-weight="bold" font-size="14.00">FIFO #(T: type float #(), ALMOST_FULL: 8)</text>
<polygon fill="none" stroke="black" points="162.5,-57.81 162.5,-78.81 317.5,-78.81 317.5,-57.81 162.5,-57.81"/>
<text text-anchor="start" x="216" y="-64.61" font-family="Times,serif" font-size="14.00">push&#39;0</text>
<polygon fill="none" stroke="black" points="162.5,-36.81 162.5,-57.81 317.5,-57.81 317.5,-36.81 162.5,-36.81"/>
<text text-anchor="start" x="197" y="-43.61" font-family="Times,serif" font-size="14.00">push_data&#39;0</text>
<polygon fill="none" stroke="black" points="317.5,-36.81 317.5,-78.81 378.5,-78.81 378.5,-36.81 317.5,-36.81"/>
<text text-anchor="start" x="336.5" y="-61.61" font-family="Times,serif" font-size="14.00">fifo</text>
<text text-anchor="start" x="337.5" y="-46.61" font-family="Times,serif" font-size="14.00">clk</text>
<polygon fill="none" stroke="black" points="378.5,-36.81 378.5,-78.81 505.5,-78.81 505.5,-36.81 378.5,-36.81"/>
<text text-anchor="start" x="397.5" y="-54.11" font-family="Times,serif" font-size="14.00">may_push&#39;&#45;8</text>
</g>
<!-- submodule_1_clk -->
<g id="node2" class="node">
<title>submodule_1_clk</title>
<polygon fill="bisque" stroke="transparent" points="757,-111.31 613,-111.31 613,-48.31 757,-48.31 757,-111.31"/>
<polygon fill="bisque" stroke="transparent" points="613,-48.31 613,-111.31 757,-111.31 757,-48.31 613,-48.31"/>
<polygon fill="none" stroke="black" points="613,-89.81 613,-110.81 757,-110.81 757,-89.81 613,-89.81"/>
<text text-anchor="start" x="643" y="-97.61" font-family="Times,serif" font-weight="bold" font-size="14.00">fp_mul #()</text>
<polygon fill="none" stroke="black" points="613,-68.81 613,-89.81 641,-89.81 641,-68.81 613,-68.81"/>
<text text-anchor="start" x="616" y="-75.61" font-family="Times,serif" font-size="14.00">a&#39;0</text>
<polygon fill="none" stroke="black" points="613,-47.81 613,-68.81 641,-68.81 641,-47.81 613,-47.81"/>
<text text-anchor="start" x="616" y="-54.61" font-family="Times,serif" font-size="14.00">b&#39;0</text>
<polygon fill="none" stroke="black" points="641,-47.81 641,-89.81 696,-89.81 696,-47.81 641,-47.81"/>
<text text-anchor="start" x="644" y="-72.61" font-family="Times,serif" font-size="14.00">fp_mul</text>
<text text-anchor="start" x="658" y="-57.61" font-family="Times,serif" font-size="14.00">clk</text>
<polygon fill="none" stroke="black" points="696,-47.81 696,-89.81 757,-89.81 757,-47.81 696,-47.81"/>
<text text-anchor="start" x="699" y="-65.11" font-family="Times,serif" font-size="14.00">result&#39;8</text>
</g>
<!-- submodule_0_clk&#45;&gt;submodule_1_clk -->
<g id="edge3" class="edge">
<title>submodule_0_clk:may_push&#45;&gt;submodule_1_clk:a</title>
<path fill="none" stroke="black" d="M505,-57.81C550.37,-57.81 562.42,-75.88 602.98,-78.5"/>
<polygon fill="black" stroke="black" points="602.9,-81.99 613,-78.81 603.11,-75 602.9,-81.99"/>
</g>
<!-- submodule_0_clk&#45;&gt;submodule_1_clk -->
<g id="edge5" class="edge">
<title>submodule_0_clk:may_push&#45;&gt;submodule_1_clk:b</title>
<path fill="none" stroke="black" d="M505,-57.81C549.44,-57.81 563.02,-57.81 602.88,-57.81"/>
<polygon fill="black" stroke="black" points="603,-61.31 613,-57.81 603,-54.31 603,-61.31"/>
</g>
<!-- submodule_1_clk&#45;&gt;submodule_0_clk -->
<g id="edge9" class="edge">
<title>submodule_1_clk:result&#45;&gt;submodule_0_clk:push_data</title>
<path fill="none" stroke="black" d="M727,-46.81C727,4.2 294.96,16.93 244.32,-26.95"/>
<polygon fill="black" stroke="black" points="241.21,-25.35 239.5,-35.81 247.36,-28.7 241.21,-25.35"/>
</g>
<!-- n0 -->
<g id="node3" class="node">
<title>n0</title>
<polygon fill="#a2cd5a" stroke="black" points="42,-171.81 0,-171.81 0,-147.81 42,-147.81 54,-159.81 42,-171.81"/>
<text text-anchor="middle" x="27" y="-156.11" font-family="Times,serif" font-size="14.00">f</text>
</g>
<!-- n2 -->
<g id="node4" class="node">
<title>n2</title>
<ellipse fill="bisque" stroke="black" cx="333.5" cy="-190.81" rx="27" ry="18"/>
<text text-anchor="middle" x="333.5" y="-187.11" font-family="Times,serif" font-size="14.00">_1</text>
</g>
<!-- n0&#45;&gt;n2 -->
<g id="edge1" class="edge">
<title>n0:e&#45;&gt;n2</title>
<path fill="none" stroke="black" d="M54,-159.81C141.84,-159.81 244.32,-175.23 297.08,-184.32"/>
<polygon fill="black" stroke="black" points="296.81,-187.82 307.26,-186.1 298.01,-180.93 296.81,-187.82"/>
</g>
<!-- n3 -->
<g id="node5" class="node">
<title>n3</title>
<ellipse fill="bisque" stroke="black" cx="333.5" cy="-136.81" rx="27" ry="18"/>
<text text-anchor="middle" x="333.5" y="-133.11" font-family="Times,serif" font-size="14.00">_2</text>
</g>
<!-- n0&#45;&gt;n3 -->
<g id="edge2" class="edge">
<title>n0:e&#45;&gt;n3</title>
<path fill="none" stroke="black" d="M54,-159.81C141.37,-159.81 243.64,-148.43 296.61,-141.68"/>
<polygon fill="black" stroke="black" points="297.37,-145.11 306.83,-140.35 296.47,-138.17 297.37,-145.11"/>
</g>
<!-- n2&#45;&gt;submodule_1_clk -->
<g id="edge4" class="edge">
<title>n2&#45;&gt;submodule_1_clk:a</title>
<path fill="none" stroke="black" d="M360.77,-190.71C395.27,-189.69 457.08,-184.75 505,-163.81 557.69,-140.79 552.75,-85.78 602.96,-79.41"/>
<polygon fill="black" stroke="black" points="603.23,-82.9 613,-78.81 602.81,-75.92 603.23,-82.9"/>
</g>
<!-- n3&#45;&gt;submodule_1_clk -->
<g id="edge6" class="edge">
<title>n3&#45;&gt;submodule_1_clk:b</title>
<path fill="none" stroke="black" d="M360.45,-135.06C394.35,-132.25 455.23,-125.36 505,-109.81 552.37,-95 558.98,-62.65 602.74,-58.3"/>
<polygon fill="black" stroke="black" points="603.18,-61.78 613,-57.81 602.84,-54.79 603.18,-61.78"/>
</g>
<!-- n8 -->
<g id="node6" class="node">
<title>n8</title>
<ellipse fill="bisque" stroke="black" cx="27" cy="-98.81" rx="27" ry="18"/>
<text text-anchor="middle" x="27" y="-95.11" font-family="Times,serif" font-size="14.00">_3</text>
</g>
<!-- n8&#45;&gt;submodule_0_clk -->
<g id="edge7" class="edge">
<title>n8&#45;&gt;submodule_0_clk:push</title>
<path fill="none" stroke="black" d="M50.87,-90.17C74.98,-81.79 114.55,-70.05 151.62,-68.09"/>
<polygon fill="black" stroke="black" points="152.1,-71.58 162,-67.81 151.91,-64.58 152.1,-71.58"/>
</g>
<!-- n10 -->
<g id="node7" class="node">
<title>n10</title>
<ellipse fill="bisque" stroke="black" cx="27" cy="-44.81" rx="27" ry="18"/>
<text text-anchor="middle" x="27" y="-41.11" font-family="Times,serif" font-size="14.00">_4</text>
</g>
<!-- n10&#45;&gt;submodule_0_clk -->
<g id="edge8" class="edge">
<title>n10&#45;&gt;submodule_0_clk:push</title>
<path fill="none" stroke="black" d="M52.48,-51.59C76.89,-57.79 115.84,-66.21 151.91,-67.61"/>
<polygon fill="black" stroke="black" points="151.93,-71.11 162,-67.81 152.07,-64.11 151.93,-71.11"/>
</g>
</g>
</svg>
