<?xml version="1.0" encoding="UTF-8" standalone="no"?>
<!-- Created with Inkscape (http://www.inkscape.org/) -->

<svg
   width="429.34857mm"
   height="345.83694mm"
   viewBox="0 0 429.34857 345.83694"
   version="1.1"
   id="svg1"
   inkscape:version="1.3 (0e150ed, 2023-07-21)"
   sodipodi:docname="sus.svg"
   xmlns:inkscape="http://www.inkscape.org/namespaces/inkscape"
   xmlns:sodipodi="http://sodipodi.sourceforge.net/DTD/sodipodi-0.dtd"
   xmlns="http://www.w3.org/2000/svg"
   xmlns:svg="http://www.w3.org/2000/svg">
  <sodipodi:namedview
     id="namedview1"
     pagecolor="#ffffff"
     bordercolor="#999999"
     borderopacity="1"
     inkscape:showpageshadow="0"
     inkscape:pageopacity="0"
     inkscape:pagecheckerboard="0"
     inkscape:deskcolor="#d1d1d1"
     inkscape:document-units="mm"
     inkscape:zoom="0.38097222"
     inkscape:cx="1702.2239"
     inkscape:cy="937.0762"
     inkscape:window-width="2560"
     inkscape:window-height="1387"
     inkscape:window-x="4072"
     inkscape:window-y="25"
     inkscape:window-maximized="1"
     inkscape:current-layer="g1" />
  <defs
     id="defs1" />
  <g
     inkscape:label="Ebene 1"
     inkscape:groupmode="layer"
     id="layer1"
     transform="translate(100.11143,96.847023)">
    <g
       id="g1"
       inkscape:label="logo">
      <path
         id="path5"
         style="display:none;fill:#ffffff;fill-opacity:1"
         inkscape:label="white_outline"
         d="m 185.95318,-108.47284 c -17.32254,0.4546 -34.18822,7.93736 -46.63115,19.91061 -1.12491,1.06368 -2.24304,2.13525 -3.3083,3.25931 -8.62543,-7.15963 -19.08852,-12.44547 -30.30575,-13.78349 -10.98304,-1.35347 -22.42849,1.58264 -31.38187,8.09131 -8.91138,6.355 -15.3974,15.633 -19.64635,25.62538 -0.75625,1.77891 -1.43195,3.59023 -2.04103,5.42423 -3.84941,-0.66844 -7.74031,-1.04984 -11.6211,-1.48829 -6.12474,-10.41618 -14.76963,-19.58854 -25.5779,-25.17627 -5.47856,-2.84608 -11.63256,-4.7247 -17.86052,-4.30343 -5.43292,0.24871 -10.68925,1.91735 -15.6394,4.08195 -0.58909,0.0523 -1.08592,-0.51759 -1.63793,-0.71026 -6.59502,-3.51928 -13.61359,-6.66238 -21.14558,-7.33547 -12.50268,-1.3596 -25.25106,2.25299 -35.75226,9.02195 -13.74692,8.67805 -23.91236,22.64858 -28.41322,38.22871 -5.49437,17.16167 -7.07963,35.34879 -6.54821,53.29498 0.49513,13.90139 2.49455,27.88994 7.39204,40.96229 2.66757,6.787 6.5932,13.3372 12.48412,17.79507 1.68626,1.23945 3.54538,2.2473 5.50941,2.97056 2.07355,9.28994 7.52762,17.54604 14.39689,24.01638 4.83343,4.68257 10.22165,8.95782 16.43787,11.64238 5.90848,2.25995 12.8733,1.88347 18.30918,-1.45303 3.85386,-2.10918 7.05847,-5.19748 9.95762,-8.45768 6.0811,5.96254 12.91662,11.38042 20.84759,14.64838 1.54955,0.49836 3.17496,0.76524 4.8028,0.7774 -5.74981,10.61668 -10.44424,21.82946 -17.4778,31.70705 -2.70664,3.57923 -6.42883,6.24396 -10.39234,8.2732 -0.48293,0.13276 -1.17024,1.062 -1.40072,0.21099 -3.52862,-5.52377 -8.48467,-10.3416 -14.6084,-12.85389 -5.86949,-1.99097 -12.56662,-0.30059 -17.27802,3.58182 -7.66235,5.53209 -12.57981,14.30877 -14.37039,23.49526 -0.9218,4.1699 -1.08885,8.49454 -2.27134,12.60545 -1.71145,3.22768 -4.10829,6.16069 -5.06112,9.77005 -3.1747,9.23248 -2.28283,19.52328 1.32223,28.49498 4.30961,10.8869 12.37443,19.976 21.85996,26.689 11.68812,8.3602 25.48677,13.2901 39.49724,16.0666 16.85178,3.3621 34.10852,4.1056 51.25494,3.8391 31.17547,-0.7218 62.10995,-6.3027 92.00017,-15.0154 25.18043,-7.3693 49.64733,-17.0749 73.30159,-28.407 19.68985,-9.3464 38.87762,-19.7843 57.18177,-31.62557 17.48227,-11.22524 34.16963,-23.62188 50.52472,-36.42133 8.01273,-6.22936 16.0124,-12.47718 23.97887,-18.76651 3.37876,-2.8569 6.80837,-5.98065 8.57226,-10.1332 1.61049,-4.42856 0.60856,-9.5716 -2.20169,-13.29808 -3.47678,-5.90681 -6.95488,-11.91501 -8.45034,-18.67691 -2.07699,-8.38317 -2.27143,-17.19534 -0.99441,-25.65601 1.72643,-11.30018 5.7463,-22.19217 11.31095,-32.15368 2.31727,-3.92487 5.18354,-7.88119 5.7862,-12.56475 0.74267,-4.87247 -0.99331,-9.88545 -4.0858,-13.64736 -3.05916,-3.91188 -6.91816,-7.14906 -11.07275,-9.83998 -5.08764,-3.06542 -11.05165,-4.56147 -16.97831,-4.46146 -8.28156,-0.24297 -16.56545,0.14399 -24.84786,-0.0131 -0.53734,-2.41876 -1.27889,-4.80223 -1.96956,-7.1867 -3.9268,-12.94875 -9.40893,-25.39368 -15.86833,-37.27033 -8.22792,-14.70149 -19.09536,-28.14299 -32.79689,-38.07278 -11.99655,-8.72179 -26.29419,-14.60682 -41.17537,-15.56145 -1.96806,-0.14328 -3.94343,-0.17259 -5.91641,-0.15093 z"
         sodipodi:nodetypes="sccccsccccccccccccccccccccccccccccccccccccccccccccccccccss" />
      <path
         id="path36"
         style="display:inline;fill:#1bbe47;fill-opacity:1;stroke:none;stroke-width:0.2;stroke-linecap:round;stroke-linejoin:bevel;stroke-opacity:1"
         d="m 185.90938,-84.28232 c -11.77079,0.37685 -23.33314,5.6285 -33.31735,16.08584 -10.20816,10.69195 -16.56441,24.739 -20.1228,44.47119 -0.9479,5.25634 -0.43412,5.01899 -8.37416,3.86488 -13.30104,-1.93343 -25.74202,-4.67347 -50.36644,-11.09441 -17.96337,-4.68401 -40.97187,-9.9453 -45.90366,-10.49652 -2.63617,-0.29468 -2.89239,-0.0538 -1.83296,2.13268 0.62583,1.29161 1.3902,3.55583 1.69912,9.65678 0.13107,2.58855 -1.82089,0.36322 -3.14296,-3.84679 -0.57702,-1.83747 -1.61249,-5.13157 -2.30115,-7.31997 -8.11306,-25.78229 -22.97339,-33.92484 -40.3102,-22.08806 -3.92544,2.68012 -3.50595,2.75691 -7.89461,-1.45211 -7.7325,-7.41598 -20.99842,-9.05878 -33.04243,-4.09225 -9.61582,3.96526 -15.82723,12.11432 -21.01732,27.57454 -6.62248,19.72716 -4.23003,64.31056 4.35374,81.13613 0.87034,1.70601 -0.19447,1.83611 8.60154,-1.04851 0.6465,-0.21202 1.18888,-0.33672 1.81178,-0.53227 2.09939,-0.65951 4.16378,-1.30161 6.1004,-1.79214 0.0212,-0.005 0.0455,-0.0148 0.0667,-0.0202 v 5.2e-4 c -0.0212,0.005 -0.045,0.0136 -0.0667,0.0196 7.50756,-1.89212 14.42043,-2.59708 25.49095,-2.86132 0.18397,-0.004 0.30979,-0.0171 0.49609,-0.0212 3.1551,-0.066 6.11523,-0.099 8.93434,-0.076 2.5533,0.0204 4.96492,0.0964 7.3241,0.20774 0.0634,0.003 0.13359,0.003 0.19689,0.006 15.79551,0.75766 28.22629,3.68167 49.16134,10.77453 70.96589,24.04351 93.46064,26.04436 126.7163,11.27218 13.56428,-6.02521 40.10145,-25.14753 43.12605,-31.07613 3.11574,-6.10764 16.4551,-2.18138 25.78034,7.58816 9.47464,9.92608 13.74313,26.68409 5.78569,22.71386 -20.62668,-10.2912 -39.71446,1.68567 -57.90654,36.3337 -16.48014,31.38756 -31.97238,52.23209 -51.25062,68.95807 -1.84326,1.59917 -5.81167,5.17004 -8.8191,7.93491 -28.96755,26.63193 -82.93075,40.03243 -136.34879,33.85943 -6.98492,-0.8072 -14.75758,-2.124 -18.52083,-3.1378 -1.4552,-0.3921 -5.18601,-1.3661 -8.29045,-2.1647 -6.46424,-1.6628 -12.66947,-3.6336 -13.82448,-4.3904 -2.26796,-1.48614 -2.35075,0.1714 -0.30747,6.1624 6.65959,19.5268 25.98384,30.5814 59.81702,34.2191 3.58945,0.3859 7.08172,0.7621 7.76076,0.8351 5.71444,0.6171 32.72232,0.1887 39.77949,-0.631 47.4953,-5.5166 85.09816,-21.8147 142.04249,-61.56576 7.61254,-5.31399 9.96809,-7.04376 20.14347,-14.79134 53.2713,-40.56091 70.18161,-72.31632 59.09097,-110.96532 -2.1708,-7.56507 3.22971,-0.75553 6.00945,7.57731 6.1845,18.53904 1.61411,44.53285 -11.00863,62.61117 -9.74124,13.95143 -14.81436,18.59174 -25.5788,27.68358 -8.19894,6.92491 -8.28778,7.39098 -12.28503,10.35699 -1.52676,1.13285 -2.54408,1.88029 -3.74603,2.77916 -7.08069,6.12177 -10.13759,9.01484 -12.80129,12.46642 -2.46366,3.19244 -15.51623,16.38002 -18.01027,18.25263 -3.77045,2.83098 -5.82532,4.36722 -7.23676,5.37796 2.62796,-1.29811 5.22568,-1.77267 17.23512,-8.67233 0.66688,-0.38314 2.73768,-1.50168 4.58628,-2.51768 5.1572,-2.83426 10.23275,-4.65315 15.03371,-7.69927 0.194,-0.15193 2.97234,-1.58349 6.17378,-3.1812 5.4733,-2.7315 12.84417,-6.76814 14.81667,-8.11423 0.485,-0.33102 3.19551,-1.86979 6.02341,-3.41943 2.82774,-1.54963 7.1141,-4.16344 9.525,-5.80895 2.41074,-1.64551 5.97084,-3.9115 7.91114,-5.03535 6.98964,-4.04859 22.32409,-14.54024 28.45563,-19.4691 3.4266,-2.75442 8.14927,-6.32166 10.49497,-7.92768 4.33014,-2.96477 5.33275,-4.14631 3.11815,-3.67368 -0.6306,0.13458 -6.30579,0.40208 -12.61163,0.59428 -6.3059,0.1922 -13.09784,0.43455 -15.09314,0.53847 -3.70854,0.19315 -4.66224,-0.0464 -4.66224,-1.17099 0,-0.75341 2.90496,-3.04934 6.16654,-6.30866 4.54547,-4.54217 11.40224,-15.85641 14.12834,-26.28521 4.5313,-17.33519 -5.86288,-52.40545 -20.52536,-69.25417 -6.0487,-6.95054 -7.79355,-10.03364 -10.72855,-18.95388 -2.79314,-8.48971 -3.27463,-8.7263 -2.93522,-1.44229 0.2751,5.90377 -0.75274,13.00709 -1.29036,17.15864 -0.95993,7.41277 -1.19407,4.97586 -2.48563,2.97604 -2.35367,-3.64414 -2.53871,-4.37773 -3.31401,-14.24874 -1.9493,-24.81842 -4.45119,-34.54284 -12.43129,-48.32056 -14.43707,-24.92622 -34.63452,-37.84029 -54.2525,-37.2122 z m -82.48799,9.39736 c -12.50178,-0.58481 -23.43286,8.87575 -30.02814,27.5823 -1.88884,5.35734 -1.99284,5.00835 1.74667,5.8477 1.55216,0.34841 3.76221,1.01153 4.91132,1.4733 2.67833,1.07627 4.21521,-1.03334 5.52628,-1.94562 3.66581,-2.55076 10.07074,-6.52398 14.90297,-6.51898 6.79476,0.007 9.89623,5.71266 12.89688,10.34562 1.45224,2.24219 1.6743,5.08057 6.03581,5.97741 2.86526,0.58916 2.94625,0.53149 3.43287,-2.43293 0.54495,-3.31972 2.82057,-10.81889 5.0307,-16.58038 0.93038,-2.42534 1.97479,-5.21792 2.3213,-6.20582 l 0.62994,-1.79627 -3.8039,-3.67213 c -8.03507,-7.75622 -16.10156,-11.72331 -23.6027,-12.0742 z m 89.82398,15.16342 v 5.1e-4 c 16.34804,-0.5249 32.01196,10.23205 38.86636,31.27613 3.3789,10.37368 5.10407,28.77232 2.92437,31.18518 -0.9316,1.03118 -0.79072,1.33408 1.41128,3.03909 7.74294,5.99538 19.01887,21.45002 19.24637,26.37823 0.077,1.67427 -0.38123,2.03516 -1.42213,1.11983 -0.3934,-0.34592 -2.19831,-2.37498 -4.01061,-4.50929 -20.21058,-23.80162 -52.10125,-37.35736 -74.57943,-31.7009 -4.091,1.02949 -10.34106,3.77264 -11.19776,4.02197 -0.89058,0.25916 -2.56556,0.68117 -4.00596,1.09968 -3.1931,0.92781 -3.35717,0.79788 -2.13837,-1.68724 0.5378,-1.09654 0.7017,-1.57673 0.7276,-2.26239 0.0201,-0.53158 0.4117,-1.08269 0.96842,-1.63763 -10e-4,10e-4 -0.002,10e-4 -0.003,0.002 l -5.2e-4,5.2e-4 c -0.55545,-0.0683 -1.1194,-0.13998 -1.80092,-0.20878 -2.92213,-0.39195 -6.01101,-3.96542 -6.01101,-6.95358 0,-0.22188 0.0443,-0.49406 0.0832,-0.7431 0.001,-1.7e-4 0.002,-8e-4 0.002,-10e-4 0.001,-10e-4 0.002,-0.002 0.003,-0.002 -0.85472,0.37615 -1.78079,0.21783 -2.83032,-0.51729 -2.77015,-1.94027 1.73122,-16.06318 8.20209,-25.73279 9.72049,-14.52555 22.85009,-21.75887 35.56527,-22.16712 z m 2.5802,9.02373 -5.1e-4,0.002 c 0.029,0.001 0.0578,0.008 0.0868,0.0103 -0.0288,-0.002 -0.0575,-0.01 -0.0863,-0.0119 z m -200.11285,2.43603 c 4.89421,0.49597 10.19427,6.34181 12.75426,15.89722 2.09923,7.83555 0.89487,10.04667 -4.9413,9.07283 -0.90346,-0.15075 -1.48352,-0.39359 -1.97714,-0.81752 -0.2715,0.0663 -0.68968,0.13185 -1.49913,0.30593 -1.95122,0.41961 -8.69347,-0.273 -9.75961,-0.82941 -0.69962,-0.36512 -1.34335,-0.30723 -0.62322,-1.02784 -0.24126,0.32458 -0.47968,0.62941 -0.64751,0.62941 -5.01286,0 -5.51304,-9.01184 -0.99839,-17.99166 1.96495,-3.90833 4.75551,-5.53654 7.69204,-5.23896 z m -59.32713,0.26303 c 1.6951,0.0524 3.43818,0.77116 4.81108,2.14406 4.96057,4.96057 5.9689,20.11815 1.33842,20.11815 -1.26207,0 -1.25722,0.19484 -1.90066,-0.95963 -0.34304,-0.61548 -0.65672,-1.24282 -0.94413,-1.91823 -0.6815,-1.60153 -1.48611,-3.84514 -1.69447,-5.02708 -0.27422,-1.55553 -0.54991,-2.44063 -0.9002,-2.59519 0.14194,0.0629 0.26528,0.32798 0.38757,0.62683 0.17854,0.43419 0.34533,1.03538 0.50746,1.95079 0.001,0.008 0.003,0.01 0.004,0.0176 0.15253,0.86506 0.64635,2.24479 1.19786,3.55224 0.20297,0.53736 0.29721,1.00498 0.49712,1.47484 0.28741,0.67541 0.60109,1.30275 0.94413,1.91823 0.24863,0.4461 0.38952,0.57313 0.55501,0.70538 l 0.009,0.0176 -0.46715,0.58911 c -0.39361,0.49612 -6.95003,0.18512 -7.42332,-0.0879 -0.293,-0.1689 -0.45765,-0.35273 -0.57464,-0.48524 l 0.0982,-0.27802 c -0.28522,0.51197 -0.6248,0.63187 -1.757,0.60307 -1.61618,-0.0411 -1.76189,-0.15446 -2.63498,-1.29915 -2.27884,-2.98765 -0.0696,-15.3828 3.42408,-19.21174 1.18069,-1.29399 2.82768,-1.90811 4.52272,-1.85571 z m 274.4401,2.74454 c 0.16116,0.1059 0.32593,0.18848 0.48576,0.30282 h 5.1e-4 c 0.007,0.005 0.0132,0.011 0.0202,0.016 -0.007,-0.005 -0.0132,-0.0126 -0.0202,-0.0176 -0.15991,-0.11441 -0.32574,-0.19052 -0.48627,-0.30127 z m -216.31961,7.79797 c -0.10836,0.0189 -0.20478,0.19894 -0.30438,0.32246 0.10029,-0.1364 0.19964,-0.29197 0.30903,-0.31987 -0.002,0 -0.004,-0.002 -0.005,-0.003 z m -0.50643,0.53537 c -0.1681,0.33408 -0.33607,0.82065 -0.52245,1.48311 -0.81664,2.90274 -1.71027,5.48234 -2.50889,7.35201 0.79911,-1.86946 1.69339,-4.45147 2.50941,-7.35201 0.18269,-0.64922 0.35113,-1.14212 0.52193,-1.48311 z m 113.5202,0.91777 c 0.21106,0.45233 0.40997,0.90414 0.64596,1.34204 0.10789,0.20017 0.17706,0.37524 0.2775,0.57464 -0.20305,-0.44975 -0.22623,-0.68906 -0.4439,-1.09295 -0.10445,-0.1938 -0.33635,-0.5694 -0.47956,-0.82373 z m 58.63828,14.14798 c -0.0304,0.0442 -0.0722,0.079 -0.10232,0.12351 -0.53633,0.79384 -0.97991,1.64993 -1.37407,2.53369 0.41578,-0.93211 0.90904,-1.82208 1.47639,-2.6572 z m -2.62568,6.36188 c -0.18205,0.98362 -0.30592,1.98678 -0.30592,3.02308 0,1.93351 0.33159,3.7893 0.94051,5.51439 0.0836,0.23671 0.17223,0.47116 0.26613,0.7028 0.014,0.0345 0.0188,0.0856 0.0258,0.13332 0.001,-2.7e-4 0.001,-7.3e-4 0.002,-0.001 -0.007,-0.0477 -0.0118,-0.0988 -0.0258,-0.13333 -0.0939,-0.23164 -0.18253,-0.46609 -0.26613,-0.7028 -0.60892,-1.72507 -0.94051,-3.58085 -0.94051,-5.51439 0,-1.03517 0.12268,-2.03945 0.30437,-3.02204 z m 124.5831,30.60795 c -0.008,0.002 -0.002,0.0109 -0.01,0.0129 0.0181,-0.005 0.0495,-0.005 0.0698,-0.009 -0.01,0.002 -0.0509,-0.006 -0.0599,-0.004 z m -304.82429,27.42417 -5.2e-4,10e-4 c 2.33916,-0.0722 7.26349,0.43133 13.13718,0.91158 7.63119,0.62395 12.42925,1.0811 13.19403,1.84588 0.12405,0.12404 0.20938,0.33463 0.25838,0.62167 -0.049,-0.28746 -0.1337,-0.49856 -0.25786,-0.6227 -0.76478,-0.76478 -5.56286,-1.22194 -13.19403,-1.84589 -5.8737,-0.48025 -10.79802,-0.98377 -13.13718,-0.91157 z m 97.44676,25.74778 c 0.0913,0.23797 0.008,0.76471 -0.21549,1.51206 0.22401,-0.74756 0.30731,-1.27404 0.21601,-1.51206 z m -21.4483,10.018 c 0.98382,4.98781 2.32298,10.04342 3.74396,13.78055 0.48923,1.28667 0.85141,2.24827 1.15445,2.92902 -0.30299,-0.68081 -0.66476,-1.64257 -1.15394,-2.92902 -1.42087,-3.73714 -2.76051,-8.79279 -3.74447,-13.78055 z m 30.63947,67.37211 c -0.40503,0.0231 -0.80883,0.0829 -1.21181,0.17984 0.80595,-0.19381 1.61638,-0.24004 2.42983,-0.13901 -0.40673,-0.0508 -0.81299,-0.0639 -1.21802,-0.0408 z m 1.07591,6.50348 c -0.003,-2.7e-4 -0.005,7.9e-4 -0.008,5.2e-4 l 5.1e-4,0.002 c 0.001,7e-5 7.9e-4,-6e-5 0.002,0 l -5.1e-4,5.2e-4 c 0.002,1.8e-4 0.004,-1.7e-4 0.006,0 1.018,0.0854 1.81775,0.4015 2.5957,1.13171 0.31974,0.30014 0.64006,0.72175 0.96584,1.17461 0.0703,0.0978 0.13747,0.14774 0.20877,0.25321 v 5.2e-4 l 5.2e-4,5.2e-4 c 0.40204,0.5951 0.82306,1.31656 1.28726,2.18746 v 5.2e-4 l 5.1e-4,5.1e-4 c 0.59651,1.11904 1.83415,3.14031 2.75126,4.49224 v 5.1e-4 l 5.1e-4,5.2e-4 c 0.0671,0.0989 0.0874,0.13068 0.15296,0.22738 -0.0709,-0.10452 -0.0809,-0.12291 -0.15347,-0.22996 -0.91731,-1.35222 -2.15541,-3.37438 -2.75177,-4.49327 -1.85761,-3.48521 -3.02216,-4.57839 -5.05809,-4.74906 z m -48.37535,5.62446 c -0.28914,0.003 -0.57843,0.0224 -0.86764,0.0589 0.57843,-0.073 1.15714,-0.0787 1.73478,-0.0165 -0.28882,-0.0311 -0.57799,-0.0454 -0.86714,-0.0424 z m -93.21136,0.185 c -0.24281,-0.0859 -0.47325,-0.0771 -0.68781,0.0377 -0.004,0.002 -0.009,0.009 -0.0129,0.0109 0.004,-0.002 0.008,-0.008 0.0134,-0.0103 0.2145,-0.115 0.44502,-0.12373 0.68782,-0.0377 v -5.2e-4 z m 136.25835,4.90668 c -0.26992,3.28159 -0.56778,6.30581 -0.67334,6.47661 -2.3e-4,0 2.2e-4,0.005 0,0.005 2.3e-4,-0.002 2.7e-4,-0.005 5.1e-4,-0.005 0.10553,-0.17075 0.403,-3.19511 0.67283,-6.47661 z m -78.50219,1.99265 c -0.20832,-0.002 -0.41847,0.0126 -0.63148,0.0434 0.42603,-0.0615 0.83953,-0.0598 1.25367,0.0176 -0.20707,-0.0387 -0.41386,-0.059 -0.62219,-0.061 z m -25.20569,0.38602 v 5.1e-4 c 0.49728,0.0751 0.96327,0.26251 1.4087,0.56431 h 5.1e-4 c 0.44533,0.30179 0.87004,0.71792 1.28468,1.24954 0.26114,0.33482 0.51521,0.79719 0.77101,1.22421 0.15027,0.25085 0.30338,0.43606 0.4532,0.71882 -1.21535,-2.29422 -2.42604,-3.53194 -3.91759,-3.75739 z m 24.69151,5.13302 v 5.1e-4 c -0.19428,0 -0.4089,0.0968 -0.64027,0.27802 0.2313,-0.18101 0.4461,-0.2775 0.64027,-0.2775 v 0.008 c 0.20918,0 0.50131,0.1694 0.85835,0.48576 0.357,0.31637 0.77924,0.77927 1.2485,1.36736 0.002,0.002 0.004,0.005 0.005,0.007 0.008,0.01 0.0173,0.0246 0.0253,0.0346 0.92468,1.16357 2.02864,2.8052 3.18069,4.75888 0.0105,0.0178 0.02,0.0308 0.0305,0.0486 l 5.2e-4,5.1e-4 c 1.31276,2.23129 3.18174,5.40631 4.15324,7.05539 l 5.1e-4,5.1e-4 c 0.97164,1.64929 2.76642,4.39552 3.98891,6.10299 l 5.1e-4,5.2e-4 c 0.56218,0.78524 0.89917,1.37385 1.27951,2.00039 -0.37989,-0.62899 -0.71331,-1.21741 -1.28054,-2.0097 -1.22261,-1.70761 -3.01784,-4.45426 -3.98942,-6.1035 -0.97158,-1.64923 -2.84098,-4.82458 -4.15375,-7.0559 -2.3495,-3.99339 -4.51125,-6.70243 -5.348,-6.70243 z m -65.10352,3.10834 c -0.44335,2.372 -0.71219,4.79255 -0.75809,7.11274 0.0458,-2.31843 0.31768,-4.74348 0.75809,-7.11274 z m 24.9158,4.69273 c -0.35539,0.72873 -0.65959,1.49102 -0.92346,2.30736 0.26384,-0.81584 0.56814,-1.57767 0.92346,-2.30632 6e-5,-9e-5 -7e-5,-9e-4 0,-0.001 z m -8.5571,10.88978 c -2.3e-4,0.002 -6.5e-4,0.005 -0.001,0.007 l 5.2e-4,-5.1e-4 c 3.7e-4,-0.001 1.5e-4,-0.004 5.2e-4,-0.006 z m 13.14183,5.01931 c 2.9202,0.4057 6.79946,0.8813 12.59251,1.5922 1.31517,0.1613 3.12497,0.2682 4.6576,0.2842 -1.53211,-0.016 -3.34312,-0.1236 -4.6576,-0.2847 -5.90034,-0.7241 -9.67274,-1.1802 -12.59251,-1.5917 z"
         inkscape:label="green" />
      <path
         id="path1-3-3-9"
         style="display:inline;fill:#55adde;fill-opacity:1"
         inkscape:label="blue"
         d="m 288.48813,15.07906 c -0.76185,0.004 -0.81471,0.26632 -0.1819,1.07022 4.0179,5.10388 7.85752,11.77997 10.32702,17.56482 5.14729,12.05765 5.65663,12.77982 6.15673,8.72815 0.3718,-3.01205 3.08515,-11.47221 5.79965,-18.08417 3.54389,-8.63229 3.36264,-8.09657 2.89594,-8.5633 -0.2991,-0.29909 -3.44139,-0.3962 -11.60652,-0.30179 -8.31101,0.0961 -9.57143,0.006 -11.24893,-0.20464 -0.97251,-0.12195 -1.68488,-0.21186 -2.14199,-0.20929 z m 10.60556,74.36393 c -0.30335,0.0561 -0.70932,1.23475 -1.33377,3.55689 -1.642,6.10607 -3.93377,10.43861 -8.10287,15.31896 -2.51989,2.94984 -2.51475,3.21073 0.06,2.99207 1.1157,-0.0947 5.406,-0.22891 9.5343,-0.29817 8.16919,-0.13704 8.27238,-0.15911 7.37268,-1.56166 -2.8732,-4.4792 -6.47091,-13.36723 -6.81251,-16.8305 -0.21375,-2.16714 -0.41443,-3.23368 -0.71778,-3.17759 z" />
      <path
         id="path33"
         style="display:inline;fill:#b5162e"
         inkscape:label="red"
         d="m 49.07019,93.69545 c -2.00313,1.69073 -3.64724,3.2865 -5.1046,4.69273 -1.25616,1.21213 -7.15574,8.00388 -14.73605,17.90279 -1.56744,2.04687 -9.42534,13.79075 -13.18008,19.69802 -10.44551,16.43387 -17.81242,25.95618 -22.71954,29.36668 l -1.02371,0.71159 0.56586,2.25826 c 0.3113,1.24208 0.65392,3.28605 0.76171,4.54184 0.35103,4.08956 1.49737,4.19526 3.44578,0.31781 2.16507,-4.30855 4.41075,-6.48777 8.13336,-7.89099 3.72366,-1.40363 5.74509,0.43593 13.11341,11.93519 5.63284,8.79081 6.20628,8.38028 7.22643,4.14083 0.94897,-3.94363 1.72463,-6.50973 2.85357,-8.99222 8.21377,-18.06175 18.48538,-19.59657 26.74824,-3.13882 2.11514,4.21283 5.0155,10.88617 6.55361,14.96653 1.89334,5.02278 3.17378,3.18803 7.56284,1.51515 10.0815,-3.84252 9.20837,-1.51464 9.39374,-10.55336 0.3276,-15.97413 1.69197,-22.79991 5.27152,-26.37359 9e-5,-9e-5 -9e-5,-4.2e-4 0,-5.1e-4 0.002,-0.002 0.003,-0.002 0.005,-0.004 0.78521,-0.7832 1.57606,-1.41959 2.37144,-1.90789 0.79711,-0.48937 1.59854,-0.8309 2.4045,-1.02474 0.80596,-0.19385 1.61637,-0.24004 2.42983,-0.13901 0.8133,0.101 1.63003,0.34954 2.44946,0.74465 1.5e-4,8e-5 3.7e-4,-7e-5 5.2e-4,0 0.81958,0.39524 1.64164,0.93746 2.466,1.62626 0.82435,0.6888 1.65063,1.52409 2.4784,2.50579 0.82776,0.9817 1.65685,2.10982 2.48667,3.38377 0.8298,1.27395 1.6603,2.69364 2.4908,4.25917 0.71749,1.35252 1.277,2.38172 1.75287,3.14555 0.47325,0.75945 0.86441,1.25761 1.2454,1.54564 1.6e-4,1.3e-4 3.5e-4,3.9e-4 5.1e-4,5.2e-4 0.19085,0.14417 0.37939,0.23595 0.57465,0.28267 0.58641,0.14031 1.23443,-0.1273 2.19263,-0.61495 9.19689,-4.68054 28.23552,-23.19009 36.92488,-36.266 4.98345,-7.4993 15.77663,-24.53775 17.53743,-28.8277 0.12483,-0.30412 0.95833,-2.21516 1.31051,-3.02566 -5.24794,5.1594 -14.34792,11.67668 -27.73474,12.92945 -5.02466,0.47021 -22.8305,1.35235 -27.5208,-2.77038 -8.56557,-7.52898 -8.07257,3.26773 -34.65318,2.02055 -16.00522,-0.75097 -21.98534,-4.2324 -26.07903,-12.96148 z" />
      <path
         id="path428-5-9"
         style="display:inline;fill:#ffffff;fill-opacity:1"
         inkscape:label="white"
         d="m 195.82557,-50.69781 c -1.14425,-0.0704 -2.28852,-0.0351 -3.43131,0.0388 -0.22682,0.0147 -0.45396,0.0107 -0.68058,0.031 -1.16809,0.10448 -2.33279,0.28981 -3.4923,0.54157 -1.6e-4,3e-5 -3.4e-4,-4e-5 -5.1e-4,0 -0.29241,0.0635 -0.58272,0.14978 -0.87437,0.22272 -0.002,3.9e-4 -0.003,6.5e-4 -0.005,10e-4 -0.90317,0.22544 -1.8022,0.49408 -2.69596,0.80718 -0.33043,0.11577 -0.66124,0.22896 -0.99012,0.35657 -1.12467,0.43639 -2.24274,0.91998 -3.34553,1.49293 -0.0215,0.0112 -0.0436,0.0192 -0.0651,0.0305 -1.12279,0.58628 -2.22781,1.26582 -3.32176,1.99058 -0.3134,0.20764 -0.62309,0.43022 -0.9338,0.64905 -0.83465,0.58786 -1.65884,1.2165 -2.4722,1.88412 -0.002,10e-4 -0.003,0.002 -0.005,0.004 -0.27561,0.22612 -0.55392,0.44163 -0.82682,0.67696 -1.03865,0.89563 -2.06027,1.84794 -3.05666,2.8727 -0.18123,0.18638 -0.35529,0.39242 -0.53485,0.58342 -0.002,0.002 -0.004,0.005 -0.006,0.007 -0.82438,0.87463 -1.63168,1.79477 -2.42208,2.75694 -0.28367,0.34534 -0.56488,0.6967 -0.84387,1.05316 -8.4e-4,10e-4 -0.002,0.002 -0.003,0.003 -0.76912,0.98276 -1.51975,2.0076 -2.25102,3.07371 -0.001,0.002 -0.003,0.004 -0.004,0.006 -0.17093,0.24882 -0.3486,0.48292 -0.51728,0.73639 -4.8e-4,7.3e-4 -0.001,10e-4 -0.002,0.002 -0.87391,1.31421 -1.71408,2.69554 -2.52594,4.12843 -0.20997,0.37059 -0.40939,0.75952 -0.61495,1.13792 -0.61898,1.13934 -1.21751,2.31358 -1.79473,3.52278 -0.21479,0.44998 -0.431,0.89753 -0.63975,1.35702 -2.6e-4,5.7e-4 -7.8e-4,9.9e-4 -0.001,0.002 -0.72763,1.60182 -1.43134,3.24126 -2.08153,4.9568 -0.37244,0.98274 -0.75394,1.75384 -1.14308,2.41691 -0.0811,0.13974 -0.16236,0.29746 -0.24443,0.42375 -0.35414,0.53763 -0.72077,0.93515 -1.09813,1.22938 -0.19531,0.15421 -0.39197,0.30962 -0.59531,0.39894 -5.3e-4,2.4e-4 -0.001,8e-4 -0.002,0.001 -0.0389,0.24904 -0.0832,0.52122 -0.0832,0.7431 0,2.98818 3.08885,6.56163 6.011,6.95358 0.68152,0.0688 1.24548,0.14044 1.80093,0.20878 l 5.1e-4,-5.2e-4 c 0.30072,-0.29991 0.74241,-0.59672 1.17874,-0.89814 0.86501,-0.61414 1.88859,-1.22725 3.24787,-1.82469 -0.007,-0.0477 -0.0118,-0.0988 -0.0258,-0.13333 -0.0939,-0.23164 -0.18253,-0.46609 -0.26613,-0.7028 -0.60892,-1.72509 -0.94051,-3.58085 -0.94051,-5.51439 0,-3.43053 1.0427,-6.61776 2.82876,-9.26145 0.59543,-0.88134 1.27363,-1.70154 2.02314,-2.45101 2.99755,-2.99741 7.13856,-4.8519 11.71246,-4.8519 9.14808,0 16.56385,7.41628 16.56385,16.56436 0,0.30379 -0.008,0.60562 -0.0243,0.90537 -0.004,0.0932 0.0668,0.25604 -0.0103,0.28474 2.10403,0.20165 4.25354,0.55649 6.41253,0.9772 0.97404,0.1836 1.93134,0.39209 2.90835,0.61547 0.89651,0.21151 1.78522,0.45361 2.67942,0.69763 2.81094,0.74624 5.55873,1.63469 8.2517,2.67994 0.002,8.6e-4 0.004,0.002 0.007,0.003 0.0665,0.0246 0.13211,0.0492 0.19844,0.0739 0.002,6.2e-4 0.003,10e-4 0.005,0.002 1.31962,0.51672 2.61027,1.03623 3.8747,1.61902 4.9e-4,2.3e-4 0.001,2.9e-4 0.002,5.2e-4 1.94363,0.87023 3.83555,1.79812 5.60018,2.83858 0.78366,0.46207 1.37523,0.80346 1.81591,0.9679 0.22034,0.0822 0.40336,0.12031 0.55345,0.10697 0.14986,-0.0134 0.26752,-0.0782 0.3576,-0.20102 0.18036,-0.24597 0.25103,-0.7253 0.25373,-1.49448 0.003,-0.76918 -0.0627,-1.82822 -0.15503,-3.2334 -0.11857,-1.80549 -0.3458,-3.62016 -0.62321,-5.42912 -0.082,-0.53474 -0.18344,-1.06664 -0.27854,-1.5999 -0.23784,-1.3334 -0.51385,-2.6592 -0.82941,-3.97444 -0.12512,-0.52146 -0.24362,-1.04445 -0.38034,-1.56166 -0.46493,-1.75861 -0.97396,-3.5011 -1.56372,-5.19038 -0.65624,-1.87967 -1.38527,-3.70653 -2.17765,-5.45962 -0.79232,-1.75293 -1.6479,-3.43174 -2.55695,-5.01519 -1.81806,-3.16697 -3.85015,-5.95187 -6.01875,-8.18348 -1.08421,-1.11571 -2.20227,-2.09337 -3.34502,-2.91094 -10e-5,-7e-5 -4.1e-4,8e-5 -5.2e-4,0 -0.77332,-0.55324 -1.56458,-0.99246 -2.35076,-1.46451 -0.47613,-0.28588 -0.94344,-0.63035 -1.42368,-0.88676 -3.81952,-2.03944 -7.76171,-3.15054 -11.71195,-3.3936 z m -95.42208,7.51996 c -2.28923,-0.28832 -4.95269,1.16262 -9.39736,4.30413 -1.34362,0.94967 -2.27712,1.59766 -2.85616,2.12597 -0.0745,0.0677 -0.16444,0.1413 -0.22479,0.20412 -0.21962,0.227 -0.36883,0.43056 -0.39274,0.60823 -10e-4,0.0181 0.005,0.0354 0.005,0.0532 -0.003,0.1605 0.1155,0.30277 0.2961,0.4408 0.0522,0.0402 0.11551,0.0801 0.18397,0.11937 0.52133,0.30084 1.5964,0.58805 3.16828,0.93689 1.89314,0.42759 4.33955,0.90505 8.13336,1.72186 2.71524,0.58461 4.27251,1.04264 6.7076,1.55856 2.03203,0.43052 3.50883,0.43767 3.50883,-0.293 0,-0.28195 -0.59195,-1.57995 -1.09037,-2.68459 -6.3e-4,-10e-4 -9.4e-4,-0.002 -0.002,-0.004 -0.10044,-0.1994 -0.16962,-0.37447 -0.27751,-0.57464 -0.23599,-0.4379 -0.43489,-0.88971 -0.64595,-1.34204 -1.8e-4,-3.1e-4 -3.5e-4,-7.2e-4 -5.2e-4,-0.001 -10e-4,-0.003 -0.004,-0.006 -0.005,-0.009 -0.39237,-0.69658 -0.89921,-1.55151 -1.39733,-2.35489 -0.63019,-1.00248 -1.27574,-1.97585 -1.69395,-2.40244 -0.70387,-0.71795 -1.3653,-1.2765 -2.02262,-1.67742 -0.65731,-0.40091 -1.31052,-0.64421 -1.99729,-0.7307 z m -105.89328,5.72368 c -0.10975,0.028 -0.20943,0.18419 -0.31006,0.32091 -0.005,0.006 -0.009,0.008 -0.014,0.0145 -0.061,0.0789 -0.12648,0.0785 -0.18655,0.19792 -0.1708,0.34099 -0.33924,0.83386 -0.52193,1.48311 -0.81602,2.90054 -1.7103,5.48255 -2.50941,7.35201 -1.2e-4,2.8e-4 -4e-4,7.6e-4 -5.2e-4,10e-4 -0.24798,0.58052 -0.46148,0.95069 -0.68574,1.38028 -0.13713,0.26279 -0.24033,0.6781 -0.41755,0.83303 -0.0772,0.12278 -0.1255,0.11298 -0.1974,0.2098 -0.72204,0.72188 -0.0773,0.66356 0.6227,1.02888 1.06614,0.55641 7.80839,1.24902 9.75961,0.82941 0.80945,-0.17408 1.22763,-0.23967 1.49913,-0.30593 -0.70746,-0.60758 -1.20274,-1.64793 -1.92443,-3.83801 -0.69482,-2.10853 -1.31099,-3.62519 -1.90273,-4.85655 -0.5229,-1.08751 -1.02296,-1.90884 -1.53685,-2.74505 -0.0759,-0.12341 -0.14915,-0.27982 -0.22583,-0.40308 -9e-5,-1.5e-4 1e-4,-3.6e-4 0,-5.1e-4 -0.3239,-0.52065 -0.59495,-0.91096 -0.83044,-1.16376 -0.20179,-0.21662 -0.36858,-0.27988 -0.52968,-0.2899 -0.0269,-0.002 -0.0622,-0.0523 -0.0884,-0.0481 z m -57.41407,1.2175 c -0.12755,-0.0565 -0.27029,0.0265 -0.42116,0.16691 -3e-5,4e-5 -4.8e-4,-3e-5 -5.2e-4,0 -0.22675,0.21023 -0.49683,0.72175 -0.79633,1.39372 -5e-5,1e-4 5e-5,4.1e-4 0,5.1e-4 -0.41402,0.92616 -0.88242,2.17046 -1.49086,4.0287 l -0.004,0.01 c -0.003,0.009 -0.61463,1.81715 -1.20613,3.75274 -0.12182,0.39866 -0.23917,0.45574 -0.34571,0.6475 l -0.0987,0.27957 c 0.11699,0.13251 0.28165,0.31631 0.57465,0.48524 0.47329,0.27297 7.0297,0.58407 7.42331,0.0879 l 0.46716,-0.58911 -0.009,-0.0176 c -0.16549,-0.13225 -0.30637,-0.25928 -0.555,-0.70538 -0.34304,-0.61548 -0.65672,-1.24282 -0.94413,-1.91823 -0.19994,-0.46986 -0.29416,-0.93748 -0.49713,-1.47484 -0.55151,-1.30745 -1.04533,-2.68718 -1.19786,-3.55224 -10e-4,-0.008 -0.003,-0.0101 -0.004,-0.0176 -0.16213,-0.91541 -0.32892,-1.5166 -0.50746,-1.95079 -0.12229,-0.29885 -0.24564,-0.56397 -0.38758,-0.62683 z m 38.67516,70.1554 c -2.81914,-0.023 -5.77924,0.01 -8.93434,0.076 -3.78625,0.084 -7.08528,0.21825 -10.08207,0.42995 2.8691,-0.20268 6.06711,-0.3265 9.65264,-0.41135 0.15952,-0.004 0.26821,-0.0145 0.42943,-0.0181 1.9e-4,-10e-6 3.4e-4,0 5.2e-4,0 6.08933,-0.13562 11.43278,-0.10395 16.45481,0.13694 -2.41942,-0.11648 -4.89905,-0.19246 -7.52099,-0.21343 z m -34.85472,2.93833 c -2.52945,0.6371 -5.1279,1.40884 -7.97935,2.34404 -0.0122,0.004 -0.0181,0.006 -0.0274,0.009 0.0168,-0.006 0.011,-0.003 0.0279,-0.009 2.85139,-0.9351 5.44959,-1.70746 7.97884,-2.34456 z m 16.6641,5.26789 c -0.34507,-0.0353 -0.81223,-0.0146 -1.43815,0.0522 -0.83457,0.0891 -1.95146,0.26062 -3.43804,0.49196 -3.77869,0.58798 -6.96935,1.43272 -9.26558,2.05207 -2.03139,0.54791 -3.50425,0.97335 -4.55941,1.35857 -1.05517,0.38521 -1.69243,0.73006 -2.05259,1.11724 -0.72032,0.77437 -0.33208,1.71746 0.0403,3.48765 0.37861,1.79977 0.83985,3.60514 1.36271,5.37848 3.65999,12.41358 10.33461,23.2453 12.74909,19.42052 0.79099,-1.25302 1.51689,-2.7537 2.19418,-4.57026 0.67729,-1.81657 1.30592,-3.94919 1.90169,-6.46524 1.19154,-5.03211 2.25228,-11.599 3.31091,-20.24476 0.16708,-1.36448 0.23009,-1.97252 -0.80512,-2.07843 z m 25.71058,0.41393 c -0.77857,0.024 -1.26941,0.11195 -1.4149,0.28577 -1.7e-4,2e-4 -10e-4,3.2e-4 -0.002,5.2e-4 -2.9e-4,3.4e-4 2.8e-4,0.003 0,0.003 -0.1265,0.15507 0.009,0.95873 0.34985,2.24534 1.7e-4,6.6e-4 3.4e-4,8.9e-4 5.1e-4,0.002 0.34605,1.30369 0.90574,3.10776 1.62161,5.24412 0.001,0.004 0.004,0.0101 0.005,0.014 1.41561,4.22379 3.44383,9.74798 5.66528,15.31741 5.1e-4,0.001 10e-4,0.002 0.002,0.004 0.004,0.0109 0.008,0.0214 0.0124,0.0326 1.40152,3.51252 2.52089,6.23575 3.4525,8.29097 0.92958,2.05073 1.67069,3.43249 2.31872,4.27364 6.1e-4,7.9e-4 0.001,0.002 0.002,0.003 0.001,0.002 0.002,0.005 0.004,0.006 0.3244,0.4201 0.62524,0.704 0.91416,0.8661 0.28901,0.16215 0.56645,0.20312 0.84336,0.13746 0.27658,-0.0658 0.55288,-0.23791 0.84077,-0.50074 0.28823,-0.26315 0.58809,-0.6172 0.91106,-1.04749 1.1e-4,-1.5e-4 4e-4,-3.6e-4 5.2e-4,-5.1e-4 0.5948,-0.79247 1.2404,-1.86237 1.91151,-3.13159 9e-5,-1.9e-4 4.2e-4,-3.4e-4 5.1e-4,-5.2e-4 0.67115,-1.26937 1.36748,-2.73848 2.06293,-4.32894 8e-5,-1.9e-4 4.3e-4,-3.2e-4 5.1e-4,-5.1e-4 1.391,-3.18134 2.77825,-6.84946 3.95532,-10.38128 C 9.10316,52.80916 10.61448,46.28975 9.62209,45.29738 8.85731,44.5326 4.05925,44.07544 -3.57194,43.45149 -9.44566,42.97124 -14.36996,42.46772 -16.70912,42.53992 Z M 58.2102,62.83532 c -0.22999,0.0875 -0.36304,0.28668 -0.43873,0.62631 -0.0757,0.33964 -0.094,0.8197 -0.094,1.46865 0,1.73322 0.15708,3.82961 0.43718,6.11642 0.28012,2.28699 0.68317,4.76383 1.17512,7.25796 0.98396,4.98779 2.32357,10.04341 3.74447,13.78055 0.97835,2.5729 1.44788,3.84706 1.95441,4.17236 0.12663,0.0813 0.25555,0.10312 0.39532,0.0713 0.41927,-0.0956 0.936,-0.67519 1.78025,-1.59112 0.43593,-0.47292 0.97731,-1.20701 1.5565,-2.04432 0.17236,-0.24923 0.35743,-0.53458 0.5395,-0.81028 0.33768,-0.51141 0.6991,-1.09369 1.0635,-1.68311 0.48817,-0.79 1.01338,-1.72421 1.53117,-2.61844 1.01244,-1.75026 2.03516,-3.60286 3.0422,-5.52008 0.39286,-0.74862 0.78784,-1.4851 1.16323,-2.22673 1.31839,-2.60737 2.56593,-5.18741 3.40703,-7.19957 0.46859,-1.12101 0.8318,-2.08929 1.05523,-2.83651 0.22334,-0.74735 0.30681,-1.27409 0.21549,-1.51206 -1.6e-4,-4.3e-4 -8.1e-4,-10e-4 -0.002,-0.002 -0.009,-0.023 -0.0657,-0.0348 -0.0786,-0.0563 -0.0847,-0.14212 -0.21273,-0.26478 -0.51986,-0.37259 -0.3525,-0.12374 -0.88121,-0.24129 -1.65416,-0.39068 -0.15961,-0.0308 -0.65664,-0.12941 -0.83768,-0.16329 -1.57291,-0.29423 -3.64714,-0.64881 -7.27604,-1.41645 -3.68653,-0.77984 -7.0069,-1.73585 -9.30537,-2.46342 -1.54797,-0.49004 -2.39467,-0.76196 -2.85461,-0.58704 z m 66.32412,10.91509 c -0.43888,-0.10028 -1.30202,-0.0218 -2.32958,0.0661 -1.34225,0.11402 -3.01097,0.26717 -5.41362,0.293 -4.26984,0.0459 -9.34798,-0.20791 -9.60562,-0.24701 -0.40806,-0.0619 0.55836,3.85387 1.85467,8.23826 6e-5,1.8e-4 -5e-5,3.3e-4 0,5.1e-4 1.29629,4.38427 2.92254,9.23696 3.83491,11.04842 1.55069,3.26199 2.31688,3.98247 3.61735,0.93897 1.46097,-3.41914 7.45236,-16.21391 8.11372,-19.54506 0.0945,-0.47588 0.08,-0.75855 -0.0718,-0.79324 z m -33.53697,78.43087 c -0.95168,-0.0793 -1.70132,-0.0575 -2.31304,0.14211 -2.3e-4,8e-5 -2.9e-4,4.5e-4 -5.2e-4,5.2e-4 -0.0891,0.0291 -0.16235,0.0812 -0.24546,0.11834 -0.18769,0.0839 -0.36925,0.17671 -0.52865,0.30696 -0.0901,0.0735 -0.16818,0.17255 -0.25012,0.26251 -0.1329,0.14577 -0.26005,0.30559 -0.37362,0.49868 -0.0525,0.0892 -0.0995,0.19594 -0.14831,0.29611 -1e-4,2.1e-4 -4.1e-4,3e-4 -5.1e-4,5.1e-4 -0.2549,0.52148 -0.43459,1.34094 -0.6103,2.20142 -0.0769,0.3755 -0.17497,0.63465 -0.24185,1.08469 -0.14038,0.93968 -0.25643,2.25101 -0.37362,3.5574 -0.0521,0.56387 -0.11289,0.90966 -0.16381,1.56115 -3.6e-4,0.005 -6.8e-4,0.006 -0.001,0.0109 v 5.2e-4 c -0.2924,3.74405 -0.62609,6.96145 -0.74259,7.14995 -3.3e-4,5.4e-4 -7.8e-4,0.004 -0.001,0.006 -7e-5,5.3e-4 7e-5,0.001 0,0.002 -0.18027,0.29834 -0.23503,2.18991 -0.19482,4.20026 0,1.9e-4 0,3.3e-4 0,5.2e-4 1.6e-4,0.009 3.5e-4,0.0157 5.2e-4,0.0238 2e-5,0.001 -3e-5,0.002 0,0.003 0.0413,2.00964 0.17745,4.12501 0.37878,4.88084 1.9e-4,7e-4 3.4e-4,0.003 5.2e-4,0.004 5e-4,0.002 6.2e-4,0.008 0.001,0.01 0.11461,0.42531 0.24225,0.75241 0.41083,0.98598 0.50628,0.70149 1.37918,0.56146 3.35742,-0.28215 1.98101,-0.8448 8.81921,-4.61163 10.87685,-5.99136 0.77611,-0.52041 2.0858,-1.28884 2.91042,-1.70739 0.55704,-0.28274 0.98173,-0.47669 1.20768,-0.75293 0.11287,-0.13799 0.17609,-0.2967 0.18138,-0.49713 1e-5,-1.3e-4 0,-3.8e-4 0,-5.1e-4 0.005,-0.20043 -0.048,-0.44279 -0.16691,-0.74828 v -5.2e-4 c -3e-5,-8e-5 3e-5,-4.3e-4 0,-5.1e-4 -0.23853,-0.61198 -0.74264,-1.47692 -1.57872,-2.76676 v -5.1e-4 c -5e-5,-9e-5 6e-5,-4.4e-4 0,-5.2e-4 -0.83624,-1.2901 -2.00515,-3.00516 -3.57239,-5.31544 l -5.1e-4,-5.2e-4 c -8e-5,-1.1e-4 7e-5,-4e-4 0,-5.1e-4 -0.91711,-1.35193 -2.15475,-3.3732 -2.75126,-4.49224 l -5.1e-4,-5.1e-4 c -9e-5,-1.5e-4 8e-5,-3.7e-4 0,-5.2e-4 -0.4642,-0.8709 -0.88522,-1.59236 -1.28726,-2.18746 l -5.2e-4,-5.2e-4 c -9e-5,-1.3e-4 9e-5,-3.9e-4 0,-5.2e-4 -0.0713,-0.10547 -0.13847,-0.15544 -0.20877,-0.25321 -0.32578,-0.45286 -0.6461,-0.87447 -0.96584,-1.17461 -0.77795,-0.73024 -1.5777,-1.04636 -2.5957,-1.13171 -0.002,-1.7e-4 -0.004,1.8e-4 -0.006,0 l 5.1e-4,-5.2e-4 c -7.6e-4,-6e-5 -0.001,7e-5 -0.002,0 z m -141.57844,5.80895 c -0.2428,-0.086 -0.47332,-0.0773 -0.68782,0.0377 -0.005,0.002 -0.009,0.008 -0.0134,0.0103 -0.43215,0.23358 -0.86425,0.61309 -1.29243,1.0604 -0.1314,0.13732 -0.26134,0.30025 -0.39171,0.45579 -0.31331,0.37394 -0.62225,0.79556 -0.92656,1.26607 -0.12503,0.19333 -0.25114,0.37786 -0.37413,0.58601 -0.40762,0.69014 -0.80777,1.43328 -1.18598,2.26601 v 5.2e-4 c -0.42229,0.92985 -0.82294,1.93901 -1.19424,3.0055 v 5.2e-4 c -2.2e-4,6.3e-4 -3e-4,0.001 -5.2e-4,0.002 -1.2e-4,3.7e-4 -4.3e-4,6.9e-4 -5.1e-4,0.001 -0.73372,2.10803 -1.34808,4.44387 -1.79473,6.83317 -0.44052,2.36961 -0.71224,4.79502 -0.75809,7.11378 -10e-4,0.0719 -0.0125,0.14741 -0.0134,0.21911 v 5.1e-4 c -0.0169,1.23364 -0.0487,2.13914 0.0217,2.83807 10e-6,1.3e-4 -1e-5,3.9e-4 0,5.2e-4 0.0704,0.69876 0.24286,1.19136 0.63459,1.59887 0.39183,0.40762 1.0029,0.73018 1.95026,1.08986 0.94737,0.35967 2.23125,0.75633 3.96824,1.31154 3.14523,1.00537 6.35369,2.04378 7.1298,2.30787 1.93248,0.65759 2.79654,0.54214 3.21737,-0.3855 0.0726,-0.16017 0.15983,-0.29181 0.20722,-0.50437 4.5e-4,-0.002 7.2e-4,-0.005 0.001,-0.007 3e-5,-1.4e-4 -3e-5,-3.8e-4 0,-5.2e-4 0.19943,-0.89763 0.27409,-2.03423 0.24391,-3.34088 v -5.2e-4 c -0.0606,-2.61899 -0.54,-5.91614 -1.26814,-9.31623 v -5.1e-4 c -0.36408,-1.69998 -0.79054,-3.42545 -1.25781,-5.10512 v -5.1e-4 c -0.46726,-1.67965 -0.97529,-3.31304 -1.50326,-4.82865 v -5.2e-4 c -0.52797,-1.51557 -1.07593,-2.91338 -1.62213,-4.12119 v -5.2e-4 c -0.54614,-1.20765 -1.09091,-2.22545 -1.61282,-2.98173 l -5.1e-4,-5.2e-4 c -0.26085,-0.37793 -0.51591,-0.69036 -0.76275,-0.92862 l -5.2e-4,-5.2e-4 c -0.24676,-0.23811 -0.48515,-0.40157 -0.71261,-0.48214 z m 94.17719,5.90817 c -0.27703,-0.042 -0.54994,0.0194 -0.82372,0.0568 -0.19265,0.0263 -0.38589,0.0356 -0.57722,0.10129 -0.22231,0.0763 -0.44317,0.21715 -0.66405,0.34675 -0.18859,0.11066 -0.37753,0.19926 -0.56534,0.34881 -0.2235,0.17795 -0.44594,0.42576 -0.66869,0.65888 -0.1831,0.19162 -0.36648,0.35601 -0.54932,0.58497 -0.22944,0.28732 -0.45892,0.65012 -0.68833,0.99633 -0.16684,0.25176 -0.33372,0.47409 -0.50074,0.75706 -0.7883,1.3355 -1.5803,3.02507 -2.38332,5.05808 -0.0298,0.0753 -0.0591,0.13455 -0.0889,0.21084 -0.83204,2.13094 -1.67637,4.62458 -2.54403,7.50756 -3.92591,13.04487 -3.52809,13.72257 -3.21892,14.79347 0.30918,1.0708 11.15956,-0.7641 13.5816,-1.0651 2.42204,-0.301 10.80033,-1.5296 13.2271,-2.80656 0.2057,-0.10824 0.2377,-0.42232 0.15089,-0.92087 -0.0868,-0.49856 -0.29239,-1.18159 -0.56172,-2.02779 -2.53165,-7.95423 -3.15756,-9.75266 -4.37389,-12.56667 -1.64163,-3.79797 -3.16666,-6.70599 -4.61264,-8.71471 -0.72299,-1.00437 -1.42636,-1.78374 -2.1146,-2.33733 -0.68824,-0.55359 -1.36124,-0.88135 -2.02417,-0.98185 z m -61.62724,1.37614 v 5.2e-4 c -0.99448,-0.14998 -2.11413,0.15018 -3.44269,0.8878 -1.32877,0.73772 -2.86701,1.91298 -4.69893,3.51296 l -0.008,0.008 c -0.002,0.001 -0.002,0.003 -0.004,0.004 -1.84258,1.60987 -3.31973,3.00995 -4.5129,4.36821 -0.001,0.001 -0.003,0.002 -0.004,0.004 l -0.007,0.007 c -1.19789,1.3651 -2.11011,2.68883 -2.81895,4.14238 -7e-5,1.4e-4 6e-5,3.9e-4 0,5.2e-4 -0.71077,1.45761 -1.21672,3.04705 -1.60404,4.93872 -10e-4,0.006 -0.002,0.0125 -0.003,0.0181 -0.38275,1.87356 -0.6495,4.04247 -0.88005,6.67866 -5.4e-4,0.006 -0.001,0.0109 -0.002,0.0171 -0.0597,0.68346 -0.12875,1.23164 -0.0661,1.68982 2.1e-4,0.002 3.1e-4,0.004 5.2e-4,0.006 0.0313,0.22474 0.0966,0.42688 0.20877,0.61288 0.007,0.0123 0.0205,0.023 0.0284,0.0351 0.11533,0.17859 0.26991,0.34393 0.49507,0.49613 0.33705,0.2071 0.89835,0.3861 1.57044,0.5638 1.04341,0.2778 2.63816,0.5467 4.83692,0.8521 2.91977,0.4115 6.69214,0.8676 12.59251,1.5917 1.31477,0.1612 3.1263,0.2684 4.65863,0.2847 1.52307,0.016 2.77032,-0.057 2.97243,-0.2568 3.2e-4,-4e-4 0.003,-8e-4 0.003,0 0.17276,-0.173 0.27861,-0.5716 0.34158,-1.1012 0.16853,-1.5817 -0.12383,-4.564 -0.66353,-7.91478 -0.83318,-5.17605 -2.2769,-11.26637 -3.84782,-15.03991 -7e-5,-1.6e-4 6e-5,-3.6e-4 0,-5.2e-4 -0.41672,-1.00097 -0.82272,-1.88317 -1.22784,-2.6479 -7e-5,-1.4e-4 8e-5,-3.7e-4 0,-5.2e-4 -0.1499,-0.28301 -0.30286,-0.46835 -0.4532,-0.71933 -0.2558,-0.42702 -0.50987,-0.8894 -0.77101,-1.22422 -0.41464,-0.53162 -0.83935,-0.94774 -1.28468,-1.24953 h -5.1e-4 c -0.44543,-0.3018 -0.91142,-0.48925 -1.4087,-0.56431 z m 24.69151,5.13405 c -0.19417,0 -0.40897,0.0965 -0.64027,0.27751 -0.2312,0.18113 -0.47913,0.44661 -0.73949,0.78548 v 5.2e-4 c -0.52084,0.67796 -1.09239,1.64797 -1.68258,2.8174 -8e-5,1.5e-4 8e-5,3.5e-4 0,5.1e-4 -0.59021,1.1695 -1.19929,2.53802 -1.79576,4.01268 v 5.1e-4 c -1.19299,2.94953 -2.33561,6.32292 -3.175,9.37514 v 5.2e-4 c -0.47587,1.73038 -0.81451,3.29638 -1.04955,4.68447 -0.16778,0.99341 -0.28588,1.90441 -0.28938,2.60191 -0.002,0.4725 0.0189,0.8996 0.1049,1.1979 0.0781,0.2705 0.19473,0.4632 0.35398,0.5658 0.95926,0.6182 17.53598,0.8171 22.82187,0.2739 0.68366,-0.07 1.15383,-0.2403 1.51877,-0.4708 0.24534,-0.1543 0.47053,-0.3191 0.57154,-0.5586 2.8e-4,-7e-4 10e-4,-9e-4 0.002,0 v -6e-4 c 0.0834,-0.199 0.11708,-0.4292 0.10077,-0.6935 v -5e-4 h -5.2e-4 c -8e-5,0 -9.5e-4,0 -0.001,0 -0.0335,-0.5276 -0.2655,-1.191 -0.69764,-2.0138 -8e-5,-2e-4 9e-5,-4e-4 0,-6e-4 -3.7e-4,-7e-4 -7.4e-4,0 -10e-4,0 -0.43441,-0.82617 -1.07047,-1.81344 -1.90944,-2.98531 l -5.2e-4,-5.1e-4 c -1.22249,-1.70747 -3.01726,-4.4537 -3.9889,-6.10299 l -5.2e-4,-5.2e-4 c -0.9715,-1.64908 -2.84048,-4.82409 -4.15324,-7.05538 l -5.1e-4,-5.2e-4 c -0.0105,-0.0178 -0.02,-0.0308 -0.0305,-0.0486 -1.15205,-1.95368 -2.25601,-3.59532 -3.18069,-4.75889 -0.008,-0.01 -0.0176,-0.025 -0.0253,-0.0346 -10e-4,-0.002 -0.003,-0.005 -0.005,-0.007 C 8.29813,171.68203 7.87588,171.21913 7.51888,170.90276 7.16184,170.5864 6.86972,170.417 6.66054,170.417 Z" />
      <path
         id="path4"
         style="display:inline;fill:#000000;fill-opacity:1;stroke:none;stroke-width:0.2;stroke-linecap:round;stroke-linejoin:bevel;stroke-opacity:1"
         inkscape:label="black"
         d="m 188.14129,-96.84383 c -16.35157,-0.17455 -32.43277,6.8052 -45.70988,21.69687 -1.63292,1.83152 -3.20607,3.92288 -3.49591,4.64726 -1.01579,2.5388 -1.01944,2.53718 -7.39954,-3.33261 -22.5733,-20.76781 -48.66919,-18.10625 -62.90107,6.41511 -3.67591,6.33355 -6.01577,13.19162 -6.85023,17.9958 -0.57884,3.33257 -1.71464,3.18291 -3.6158,2.66031 -2.31454,-0.63627 -6.15875,-1.95785 -16.5933,-2.90422 -8.26181,-0.74932 -7.97388,-0.4994 -10.14616,-5.21932 -0.86318,-1.87557 -2.39459,-3.60868 -4.90719,-7.36441 -2.1022,-3.1423 -7.73248,-8.58678 -11.44685,-11.06909 -11.01549,-7.36166 -17.30807,-7.85902 -29.65452,-2.34301 -4.03771,1.80395 -4.58657,1.74767 -9.50898,-0.97927 -7.61463,-4.21838 -10.81625,-5.48578 -16.24913,-6.4332 -18.32699,-3.19593 -39.90847,9.20208 -49.39337,28.37553 -18.31603,37.02532 -10.98275,111.86449 10.96109,111.86449 2.7725,0 2.82144,0.0558 3.25251,3.70417 1.18075,9.99312 5.71888,17.36286 15.95148,25.90384 11.52075,9.61619 16.4735,8.40904 28.48457,-6.94221 3.79037,-4.84445 3.30506,-4.85941 7.59488,0.23565 6.75131,8.01854 18.50163,16.96227 22.28495,16.96227 2.02725,0 6.32424,-3.64683 10.59987,-8.99584 4.18296,-5.23309 4.39127,-5.28917 9.69708,-2.60035 8.10745,4.10858 8.68142,5.32908 4.25866,9.05888 -7.08489,5.97475 -10.72609,11.51642 -20.44113,31.11231 -10.50334,21.18594 -15.04967,26.91792 -26.02219,32.80885 -6.24496,3.35276 -9.29402,5.41961 -11.02672,7.47448 -1.72751,2.04877 -2.01346,0.46737 -2.56108,-2.28255 -1.0611,-5.32842 -5.20064,-11.34267 -8.21138,-13.95109 -3.10027,-2.68593 -5.31655,-4.12792 -8.97827,-2.00401 -3.0619,1.77601 -6.24958,4.82677 -8.17314,8.19588 -4.20864,7.37149 -4.37066,16.00735 -5.17178,20.50624 -0.56239,3.15823 -1.60333,5.10903 -3.26285,7.38612 -7.76845,10.65939 -4.33016,28.01059 8.01191,40.43219 15.43898,15.5382 39.11238,23.2977 74.82748,24.5261 11.18496,0.3849 11.08982,0.3847 21.51962,0.031 11.80552,-0.4004 19.94375,-1.2109 37.19256,-3.7052 27.43013,-3.9667 64.48567,-14.7115 93.68782,-27.1652 52.34105,-22.3222 86.38542,-42.729 136.08627,-82.18521 3.80207,-3.01839 8.89296,-7.10541 11.51505,-9.04648 6.46772,-4.78782 12.88508,-9.86909 12.03906,-11.51816 -0.98169,-1.91349 -2.18991,-3.79414 -4.07572,-6.96546 -12.53523,-21.08018 -12.23578,-48.66827 0.43719,-75.84705 1.44747,-3.10445 3.12672,-6.54939 3.81785,-7.60057 5.04262,-7.6696 6.2509,-9.48641 2.40502,-14.05444 -1.3881,-1.64875 -3.39838,-3.46886 -4.75216,-4.53874 -7.28025,-5.75353 -10.93868,-4.78995 -30.06638,-4.65398 -10.05993,0.0715 -16.56316,-0.0995 -16.9845,-0.11782 -1.78941,-0.0778 -1.07394,-0.50613 -1.57096,-3.7543 -0.5044,-3.29632 -3.13855,-12.478 -4.14135,-15.55099 -1.0147,-3.10946 -6.05571,-15.83612 -6.65231,-16.93333 -0.2638,-0.48507 -1.33308,-2.71262 -2.37608,-4.95008 -17.02807,-36.52976 -45.03241,-56.69423 -72.28499,-56.98516 z m -2.23191,12.56203 c 19.61804,-0.62809 39.81537,12.28592 54.2525,37.2122 7.9801,13.77778 10.48199,23.50205 12.43129,48.32056 0.7753,9.87104 0.96034,10.60457 3.31401,14.24874 1.29159,1.99982 1.5257,4.43676 2.48563,-2.97604 0.53762,-4.15155 1.56546,-11.25484 1.29036,-17.15864 -0.33941,-7.28401 0.14205,-7.04742 2.93522,1.44229 2.935,8.92027 4.67985,12.00334 10.72855,18.95388 14.66254,16.84878 25.05666,51.91892 20.52536,69.25417 -2.7261,10.42883 -9.58287,21.74301 -14.12834,26.28521 -3.26161,3.25932 -6.16654,5.55525 -6.16654,6.30866 0,1.12455 0.95367,1.36414 4.66224,1.17099 1.9953,-0.10392 8.78724,-0.34627 15.09314,-0.53847 6.30587,-0.1922 11.98103,-0.4597 12.61163,-0.59428 2.2146,-0.47263 1.21202,0.70891 -3.11815,3.67368 -2.3457,1.60602 -7.06837,5.17323 -10.49497,7.92768 -6.13157,4.92886 -21.46596,15.42051 -28.45563,19.4691 -1.9403,1.12385 -5.50037,3.38984 -7.91114,5.03535 -2.4109,1.64551 -6.69723,4.25932 -9.525,5.80895 -2.8279,1.54964 -5.53841,3.08841 -6.02341,3.41943 -1.9725,1.34609 -9.34337,5.38273 -14.81667,8.11423 -3.20147,1.59771 -5.97978,3.02927 -6.17378,3.1812 -4.80099,3.04612 -9.87651,4.86498 -15.03371,7.69927 -1.84863,1.016 -3.9194,2.13454 -4.58628,2.51768 -12.00947,6.89969 -14.60713,7.3741 -17.23512,8.6723 1.41144,-1.01083 3.46628,-2.54695 7.23676,-5.37793 2.49404,-1.87261 15.54658,-15.06019 18.01027,-18.25263 2.6637,-3.45158 5.72057,-6.34462 12.80129,-12.46642 1.20195,-0.89887 2.21927,-1.64631 3.74603,-2.77916 3.99728,-2.96601 4.08606,-3.43205 12.28503,-10.35699 10.76447,-9.09187 15.83753,-13.73209 25.5788,-27.68358 12.62277,-18.07835 17.19313,-44.07207 11.00863,-62.61117 -2.77977,-8.33287 -8.18025,-15.14238 -6.00945,-7.57731 11.09067,38.64912 -5.81952,70.40429 -59.09097,110.96532 -10.17544,7.74761 -12.5309,9.47732 -20.14347,14.79134 -56.94451,39.75103 -94.54704,56.04913 -142.04249,61.56573 -7.0572,0.8197 -34.06505,1.2481 -39.77949,0.631 -0.67907,-0.073 -4.17128,-0.4492 -7.76076,-0.8351 -33.83327,-3.6377 -53.1574,-14.6923 -59.81702,-34.2191 -2.04328,-5.991 -1.96049,-7.64848 0.30747,-6.1624 1.15501,0.7568 7.36021,2.7276 13.82448,4.3904 3.10444,0.7986 6.83525,1.7726 8.29045,2.1647 3.76325,1.0138 11.53588,2.3306 18.52083,3.1378 53.41819,6.173 107.38115,-7.2275 136.34879,-33.8594 3.00743,-2.7649 6.97584,-6.33571 8.8191,-7.93491 19.2783,-16.72601 34.77045,-37.57042 51.25062,-68.95807 18.19214,-34.64815 37.2798,-46.62493 57.90654,-36.3337 7.95747,3.97023 3.68898,-12.78775 -5.78569,-22.71386 -9.32527,-9.76957 -22.66457,-13.6958 -25.78034,-7.58816 -3.0246,5.92863 -29.56171,25.05089 -43.12605,31.07613 C 125.91418,70.95108 103.41973,68.95026 32.45363,44.90669 4.86222,35.55862 -7.92085,33.43303 -33.16304,33.99522 c -15.14586,0.33733 -22.4932,1.46579 -33.89922,5.2064 -8.79604,2.88464 -7.7312,2.75452 -8.60154,1.04851 -8.5838,-16.82563 -10.97625,-61.40891 -4.35374,-81.13613 5.19009,-15.46026 11.40147,-23.60928 21.01732,-27.57455 12.04404,-4.96655 25.3099,-3.32375 33.04243,4.09226 4.38866,4.20902 3.96917,4.13223 7.89461,1.45211 17.33687,-11.83681 32.19711,-3.6943 40.3102,22.08806 0.68866,2.18842 1.72413,5.48249 2.30115,7.31996 1.32207,4.21002 3.27403,6.43537 3.14296,3.8468 -0.30892,-6.10096 -1.07329,-8.36517 -1.69912,-9.65678 -1.05943,-2.18645 -0.80324,-2.42736 1.83296,-2.13268 4.93179,0.55124 27.94023,5.81248 45.90366,10.49651 24.62448,6.42095 37.06537,9.16099 50.36644,11.09442 7.94007,1.15413 7.42626,1.39149 8.37416,-3.86488 3.55839,-19.73223 9.91458,-33.77921 20.1228,-44.47119 9.98424,-10.45737 21.54653,-15.70899 33.31735,-16.08584 z m -82.48799,9.39684 c 7.50114,0.35089 15.56763,4.31795 23.6027,12.0742 l 3.8039,3.67213 -0.62994,1.79627 c -0.34651,0.9879 -1.39092,3.78048 -2.3213,6.20582 -2.21013,5.76149 -4.48575,13.26063 -5.0307,16.58038 -0.48662,2.96442 -0.56761,3.02209 -3.43287,2.43293 -4.36154,-0.89684 -4.58357,-3.73522 -6.03581,-5.97741 -3.00068,-4.63296 -6.10209,-10.33862 -12.89688,-10.34562 -4.83223,-0.005 -11.23716,3.96822 -14.90297,6.51898 -1.31107,0.91228 -2.84795,3.02189 -5.52628,1.94562 -1.14911,-0.46177 -3.35913,-1.12489 -4.91132,-1.4733 -3.73951,-0.83935 -3.63551,-0.49033 -1.74667,-5.8477 6.59528,-18.70658 17.5263,-28.16711 30.02814,-27.5823 z m 89.82398,15.16342 c -12.71521,0.40825 -25.84475,7.64154 -35.56527,22.16712 -6.47087,9.66964 -10.97227,23.79249 -8.20209,25.73279 2.42927,1.70153 4.22162,0.50311 5.90972,-3.95118 11.61127,-30.63681 36.05799,-43.39266 55.92423,-29.18013 9.1428,6.54085 16.72241,23.31074 17.77411,39.32473 0.3691,5.62071 0.30901,5.7023 -2.82566,3.85403 -8.64595,-5.09782 -19.84051,-8.53915 -29.93823,-9.50691 0.0771,-0.0287 0.006,-0.19156 0.0103,-0.28474 0.0163,-0.29975 0.0243,-0.60158 0.0243,-0.90537 0,-9.14809 -7.41576,-16.56436 -16.56385,-16.56436 -9.14809,0 -16.56436,7.41627 -16.56436,16.56436 0,1.93354 0.33159,3.78929 0.94051,5.51439 0.0836,0.23671 0.17223,0.47116 0.26613,0.7028 0.014,0.0345 0.019,0.0856 0.0258,0.13333 -3.25508,1.4307 -5.3409,2.95634 -5.39399,4.35942 -0.0259,0.68566 -0.1898,1.16586 -0.7276,2.2624 -1.2188,2.48514 -1.05473,2.61504 2.13837,1.68723 1.4404,-0.41851 3.11538,-0.84051 4.00596,-1.09967 0.85673,-0.24933 7.10673,-2.99249 11.19776,-4.02198 22.47824,-5.65648 54.36879,7.89922 74.57943,31.70091 1.8123,2.13431 3.61721,4.16336 4.01061,4.50928 1.0409,0.91533 1.49913,0.55447 1.42213,-1.11982 -0.2275,-4.92822 -11.5034,-20.38283 -19.24637,-26.37824 -2.202,-1.70501 -2.34288,-2.00791 -1.41128,-3.03909 2.1797,-2.41286 0.45453,-20.81147 -2.92437,-31.18518 -6.85443,-21.04414 -22.51826,-31.80102 -38.86636,-31.27612 z M -4.28728,-48.26178 c -2.93653,-0.29758 -5.72709,1.33063 -7.69204,5.23896 -4.51468,8.97985 -4.0145,17.99166 0.99839,17.99166 0.85847,0 2.81589,-4.56924 4.45813,-10.4066 0.73371,-2.60795 1.18099,-2.6047 2.4815,-0.51418 1.19332,1.91824 2.27237,3.77728 3.66541,8.00468 1.22523,3.71814 1.70324,4.28871 3.90157,4.65553 5.83617,0.97384 7.04053,-1.23725 4.9413,-9.07283 C 5.90699,-41.92 0.60693,-47.76581 -4.28728,-48.26178 Z m -59.32713,0.26303 c -1.69507,-0.0524 -3.34203,0.56172 -4.52272,1.85571 -3.49368,3.82897 -5.70292,16.22406 -3.42408,19.21174 0.87309,1.14469 1.0188,1.25805 2.63498,1.29915 1.55642,0.0396 1.65566,0.21421 2.10375,-1.25212 0.59304,-1.94065 1.20923,-3.76256 1.20923,-3.76256 2.13676,-6.52602 2.87813,-7.14095 3.60908,-2.99465 0.20836,1.18194 1.01297,3.42555 1.69447,5.02708 0.28741,0.67541 0.60109,1.30275 0.94413,1.91823 0.64344,1.15447 0.63859,0.95963 1.90066,0.95963 4.63051,0 3.62218,-15.15755 -1.33842,-20.11815 -1.3729,-1.3729 -3.11598,-2.09167 -4.81108,-2.14406 z m 164.0179,4.8209 c 1.37354,0.17299 2.61218,0.97222 4.01991,2.40812 0.91219,0.93045 2.8228,4.1928 3.57601,5.59036 0.7532,1.39756 1.53634,3.38449 1.53634,3.78168 0,0.73067 -1.4768,0.72352 -3.50883,0.293 -2.43509,-0.51592 -3.99235,-0.97395 -6.7076,-1.55856 -13.68822,-2.94708 -14.02386,-2.17416 -8.31319,-6.21047 4.44467,-3.14151 7.10813,-4.59245 9.39736,-4.30413 z m 187.71206,58.29256 c 0.38337,-0.0951 1.21789,0.011 2.51457,0.17364 1.6775,0.21054 2.93794,0.30074 11.24893,0.20464 8.16511,-0.0944 11.30742,0.003 11.60652,0.30179 0.4667,0.46673 0.64793,-0.069 -2.89594,8.5633 -2.7145,6.61194 -5.42785,15.07212 -5.79965,18.08417 -0.5001,4.05165 -1.00946,3.32946 -6.15673,-8.72815 -2.4695,-5.78485 -6.30912,-12.46096 -10.32702,-17.56482 -0.50625,-0.64312 -0.57406,-0.93951 -0.19068,-1.03457 z M -42.41932,42.12495 c 1.03521,0.10591 0.9722,0.71395 0.80512,2.07843 -2.11726,17.29155 -4.24279,26.26818 -7.40678,31.28026 -2.75937,4.37112 -11.0829,-10.4007 -14.1118,-24.799 -0.74477,-3.54038 -1.55387,-3.77182 6.57169,-5.96346 2.29623,-0.61935 5.48688,-1.46408 9.26558,-2.05207 1.48658,-0.23134 2.60347,-0.4029 3.43804,-0.49196 0.62592,-0.0668 1.09308,-0.0875 1.43815,-0.0522 z m 25.71058,0.41393 c 2.33916,-0.0722 7.26345,0.43132 13.13718,0.91157 7.6312,0.62395 12.42925,1.08111 13.19403,1.84589 1.98478,1.98475 -6.04499,26.07816 -10.80451,32.4192 -2.58377,3.44229 -3.68114,2.02138 -9.28729,-12.02872 -4.46843,-11.19869 -8.16794,-22.24525 -7.65638,-22.86165 0.14468,-0.17433 0.63725,-0.26221 1.41697,-0.28629 z M 58.2102,62.83532 c 0.45994,-0.17492 1.30664,0.097 2.85461,0.58704 2.29848,0.72757 5.61884,1.68358 9.30537,2.46342 8.10167,1.71379 10.10035,1.70246 10.36836,2.40088 0.73053,1.90372 -9.72211,22.27192 -13.57437,26.4511 -2.25201,2.44317 -2.17388,2.49329 -4.13049,-2.65255 -2.84196,-7.47427 -5.35626,-20.22202 -5.35626,-27.15493 0,-1.2979 0.0728,-1.92004 0.53278,-2.09496 z m 66.32412,10.91509 c 1.21449,0.27752 -6.37221,16.43071 -8.04189,20.3383 -1.30047,3.04351 -2.06666,2.32302 -3.61735,-0.93897 -1.8248,-3.62306 -6.5057,-19.41101 -5.68958,-19.28719 0.25764,0.0391 5.33578,0.29291 9.60562,0.24701 4.18517,-0.045 6.73305,-0.58997 7.7432,-0.35915 z m 174.55937,15.69258 c 0.30335,-0.0561 0.50403,1.01045 0.71778,3.17759 0.3416,3.46325 3.93931,12.3513 6.81251,16.8305 0.89966,1.40248 0.79561,1.42463 -7.37268,1.56166 -4.12809,0.0693 -8.41866,0.20348 -9.5343,0.29817 -2.5747,0.21866 -2.57977,-0.0422 -0.06,-2.99207 4.1691,-4.88033 6.46087,-9.21289 8.10287,-15.31896 0.62445,-2.32212 1.03042,-3.50079 1.33377,-3.55689 z m -250.0235,4.25246 c 4.0937,8.72909 10.0738,12.21051 26.07903,12.96148 26.58064,1.24718 26.0876,-9.54954 34.65318,-2.02055 4.69031,4.12273 22.49614,3.24059 27.5208,2.77038 13.38683,-1.25277 22.48679,-7.77005 27.73474,-12.92945 -0.35218,0.8105 -1.18568,2.72154 -1.31051,3.02566 -1.7608,4.28996 -12.55397,21.3284 -17.53743,28.8277 -8.68936,13.07593 -27.72798,31.58546 -36.92488,36.266 -2.5552,1.30041 -2.90299,1.03761 -5.76606,-4.35943 -6.64401,-12.52431 -13.28759,-15.72831 -19.58278,-9.44386 -3.57976,3.57361 -4.94392,10.39955 -5.27152,26.3741 -0.18537,9.03873 0.68777,6.71084 -9.39374,10.55336 -4.38907,1.67288 -5.66949,3.50764 -7.56284,-1.51515 -1.53811,-4.08036 -4.43847,-10.75369 -6.55361,-14.96653 -8.26287,-16.45776 -18.53447,-14.92295 -26.74824,3.13882 -1.12894,2.48249 -1.9046,5.04859 -2.85357,8.99222 -1.02015,4.23945 -1.59358,4.64999 -7.22643,-4.14083 C 10.958,165.7301 8.93659,163.89055 5.21292,165.29418 c -3.72261,1.40322 -5.96829,3.58244 -8.13336,7.89099 -1.94842,3.87745 -3.09475,3.77175 -3.44578,-0.31781 -0.10779,-1.25579 -0.45041,-3.29976 -0.76171,-4.54184 l -0.56586,-2.25826 1.02371,-0.71159 c 4.90712,-3.41051 12.27401,-12.93279 22.71954,-29.36668 3.75474,-5.90728 11.61264,-17.65115 13.18008,-19.69802 7.58032,-9.89892 13.47989,-16.69066 14.73605,-17.90279 1.45736,-1.40624 3.10147,-3.002 5.1046,-4.69273 z m 41.93491,58.48532 c 2.03596,0.17067 3.20048,1.26385 5.05809,4.74906 0.59636,1.11889 1.83446,3.14105 2.75177,4.49327 6.27065,9.24362 6.15762,8.9532 3.92947,10.08414 -0.82462,0.41855 -2.13431,1.18698 -2.91042,1.70739 -2.05765,1.37974 -8.89584,5.14656 -10.87685,5.99136 -2.63766,1.12482 -3.30994,0.99905 -3.76876,-0.70487 -0.40563,-1.50636 -0.54816,-8.54103 -0.185,-9.12864 0.11654,-0.18856 0.45068,-3.40581 0.7431,-7.14995 0.71394,-9.14117 1.35722,-10.36881 5.2586,-10.04176 z m -141.58671,5.80894 c 3.64216,1.28789 10.0996,23.92661 8.49664,31.11542 -0.32204,1.44424 -1.15873,1.66158 -3.42511,0.89038 -0.77611,-0.26409 -3.98456,-1.3025 -7.1298,-2.30787 -6.94797,-2.22086 -6.64249,-1.90343 -6.57479,-6.83937 0.12943,-9.43367 4.06762,-20.74559 7.94525,-22.82083 0.21456,-0.11483 0.445,-0.12361 0.68781,-0.0377 z m 94.17771,5.90869 c 2.65171,0.40202 5.46815,4.43795 8.75141,12.03389 1.21633,2.81401 1.84224,4.61243 4.37389,12.56667 0.53865,1.6924 0.82223,2.73218 0.41083,2.94866 -2.42677,1.27692 -10.80506,2.50552 -13.2271,2.80652 -2.42204,0.301 -13.27242,2.1359 -13.5816,1.0651 -0.30917,-1.0709 -0.707,-1.7486 3.21892,-14.79343 3.50741,-11.65411 6.64433,-17.14429 10.05365,-16.62741 z m -61.62724,1.37614 c 1.98913,0.30025 3.47879,2.40166 5.14594,6.40633 2.93682,7.05459 5.63068,22.59547 4.16977,24.05637 -0.40137,0.4016 -5.01024,0.2949 -7.63468,-0.027 -21.08841,-2.5878 -19.98642,-2.1833 -19.6665,-5.84774 0.9286,-10.6362 2.42661,-13.70877 9.84385,-20.18688 3.66386,-3.19997 6.15248,-4.70101 8.14162,-4.40076 z m 24.69151,5.13354 c 0.83675,0 2.9985,2.70901 5.348,6.70243 1.31277,2.23132 3.18217,5.40667 4.15375,7.0559 0.97158,1.64924 2.76681,4.39586 3.98942,6.1035 3.35689,4.68873 3.46396,6.41983 0.41755,6.73293 -5.28589,0.5432 -21.86261,0.3443 -22.82187,-0.2739 -2.55072,-1.6438 5.80575,-26.32086 8.91315,-26.32086 z"
         sodipodi:nodetypes="ssssssssssssssssssssssssssssssssssssscssssssssssssscsssssssssssssssssssssscsscsscsssscscsccsssssscssssssssssssssssssssssssscsssssssssssssscsssccssssscssssssscssssssssssssssssssscssssssssssssssssscsssssssssssssssssssssssssssssscsssssssscssscssscsssssssssssssssscsssscsssssssssssssssssssssssssscsscssccsssssss" />
    </g>
  </g>
</svg>
